<?xml version="1.0" encoding="utf-8"?>
<!-- Generator: Adobe Illustrator 26.5.3, SVG Export Plug-In . SVG Version: 6.00 Build 0)  -->
<svg version="1.1" id="レイヤー_1" xmlns="http://www.w3.org/2000/svg" xmlns:xlink="http://www.w3.org/1999/xlink" x="0px"
	 y="0px" viewBox="0 0 448 512" enable-background="new 0 0 448 512" xml:space="preserve">
<path fill="#FFFFFF" d="M224,112c-8.8,0-16-7.2-16-16V80c0-44.2,35.8-80,80-80h16c8.8,0,16,7.2,16,16v16c0,44.2-35.8,80-80,80H224z
	 M0,288c0-76.3,35.7-160,112-160c27.3,0,59.7,10.3,82.7,19.3c18.8,7.3,39.9,7.3,58.7,0c22.9-8.9,55.4-19.3,82.7-19.3
	c76.3,0,112,83.7,112,160c0,128-80,224-160,224c-16.5,0-38.1-6.6-51.5-11.3c-8.1-2.8-16.9-2.8-25,0c-13.4,4.7-35,11.3-51.5,11.3
	C80,512,0,416,0,288z"/>
</svg>
