<?xml version="1.0" encoding="utf-8"?>
<!-- Generator: Adobe Illustrator 26.5.3, SVG Export Plug-In . SVG Version: 6.00 Build 0)  -->
<svg version="1.1" id="レイヤー_1" xmlns="http://www.w3.org/2000/svg" xmlns:xlink="http://www.w3.org/1999/xlink" x="0px"
	 y="0px" viewBox="0 0 320 512" enable-background="new 0 0 320 512" xml:space="preserve">
<path fill="#FFFFFF" d="M96,0C82.7,0,72,10.7,72,24s10.7,24,24,24c4.4,0,8,3.6,8,8v64.9c0,12.2-7.2,23.1-17.2,30.1
	C53.7,174.1,32,212.5,32,256v192c0,35.3,28.7,64,64,64h128c35.3,0,64-28.7,64-64V256c0-43.5-21.7-81.9-54.8-105
	c-10-7-17.2-17.9-17.2-30.1V56c0-4.4,3.6-8,8-8c13.3,0,24-10.7,24-24S237.3,0,224,0h-8l0,0l0,0H104l0,0l0,0H96z M160,382
	c-26.5,0-48-20.1-48-45c0-16.8,22.1-48.1,36.3-66.4c6-7.8,17.5-7.8,23.5,0c14.1,18.3,36.2,49.6,36.2,66.4
	C208,361.9,186.5,382,160,382z"/>
</svg>
