<?xml version="1.0" encoding="utf-8"?>
<!-- Generator: Adobe Illustrator 26.5.3, SVG Export Plug-In . SVG Version: 6.00 Build 0)  -->
<svg version="1.1" id="レイヤー_1" xmlns="http://www.w3.org/2000/svg" xmlns:xlink="http://www.w3.org/1999/xlink" x="0px"
	 y="0px" viewBox="0 0 512 512" enable-background="new 0 0 512 512" xml:space="preserve">
<path fill="#FFFFFF" d="M176,56c0-13.3,10.7-24,24-24h16c13.3,0,24,10.7,24,24s-10.7,24-24,24h-16C186.7,80,176,69.3,176,56z
	 M200,104h16c13.3,0,24,10.7,24,24s-10.7,24-24,24h-16c-13.3,0-24-10.7-24-24S186.7,104,200,104z M56,176h16c13.3,0,24,10.7,24,24
	s-10.7,24-24,24H56c-13.3,0-24-10.7-24-24S42.7,176,56,176z M0,283.4C0,268.3,12.3,256,27.4,256h457.2c15.1,0,27.4,12.3,27.4,27.4
	c0,70.5-44.4,130.7-106.7,154.1l-1.8,14.5c-2,16-15.6,28-31.8,28H140.2c-16.1,0-29.8-12-31.8-28l-1.8-14.4
	C44.4,414.1,0,353.9,0,283.4z M224,200c0-13.3,10.7-24,24-24h16c13.3,0,24,10.7,24,24s-10.7,24-24,24h-16
	C234.7,224,224,213.3,224,200z M128,200c0-13.3,10.7-24,24-24h16c13.3,0,24,10.7,24,24s-10.7,24-24,24h-16
	C138.7,224,128,213.3,128,200z M104,104h16c13.3,0,24,10.7,24,24s-10.7,24-24,24h-16c-13.3,0-24-10.7-24-24S90.7,104,104,104z
	 M320,200c0-13.3,10.7-24,24-24h16c13.3,0,24,10.7,24,24s-10.7,24-24,24h-16C330.7,224,320,213.3,320,200z M296,104h16
	c13.3,0,24,10.7,24,24s-10.7,24-24,24h-16c-13.3,0-24-10.7-24-24S282.7,104,296,104z M416,200c0-13.3,10.7-24,24-24h16
	c13.3,0,24,10.7,24,24s-10.7,24-24,24h-16C426.7,224,416,213.3,416,200z M392,104h16c13.3,0,24,10.7,24,24s-10.7,24-24,24h-16
	c-13.3,0-24-10.7-24-24S378.7,104,392,104z M296,32h16c13.3,0,24,10.7,24,24s-10.7,24-24,24h-16c-13.3,0-24-10.7-24-24
	S282.7,32,296,32z"/>
</svg>
