<?xml version="1.0" encoding="utf-8"?>
<!-- Generator: Adobe Illustrator 26.5.3, SVG Export Plug-In . SVG Version: 6.00 Build 0)  -->
<svg version="1.1" id="レイヤー_1" xmlns="http://www.w3.org/2000/svg" xmlns:xlink="http://www.w3.org/1999/xlink" x="0px"
	 y="0px" viewBox="0 0 512 512" enable-background="new 0 0 512 512" xml:space="preserve">
<path fill="#FFFFFF" d="M61.1,224C45,224,32,211,32,194.9c0-1.9,0.2-3.7,0.6-5.6C37.9,168.3,78.8,32,256,32s218.1,136.3,223.4,157.3
	c0.5,1.9,0.6,3.7,0.6,5.6c0,16.1-13,29.1-29.1,29.1L61.1,224L61.1,224z M144,128c0-8.837-7.163-16-16-16s-16,7.163-16,16
	s7.163,16,16,16S144,136.837,144,128z M384,144c8.837,0,16-7.163,16-16s-7.163-16-16-16s-16,7.163-16,16S375.163,144,384,144z
	 M272,96c0-8.837-7.163-16-16-16c-8.837,0-16,7.163-16,16s7.163,16,16,16C264.837,112,272,104.837,272,96z M16,304
	c0-26.5,21.5-48,48-48h384c26.5,0,48,21.5,48,48s-21.5,48-48,48H64C37.5,352,16,330.5,16,304z M32,400c0-8.8,7.2-16,16-16h416
	c8.8,0,16,7.2,16,16v16c0,35.3-28.7,64-64,64H96c-35.3,0-64-28.7-64-64V400z"/>
</svg>
