<?xml version="1.0" encoding="utf-8"?>
<!-- Generator: Adobe Illustrator 26.5.3, SVG Export Plug-In . SVG Version: 6.00 Build 0)  -->
<svg version="1.1" id="レイヤー_1" xmlns="http://www.w3.org/2000/svg" xmlns:xlink="http://www.w3.org/1999/xlink" x="0px"
	 y="0px" viewBox="0 0 512 512" enable-background="new 0 0 512 512" xml:space="preserve">
<path fill="#FFFFFF" d="M346.7,6C337.6,17,320,42.3,320,72c0,40,15.3,55.3,40,80s40,40,80,40c29.7,0,55-17.6,66-26.7
	c4-3.3,6-8.2,6-13.3s-2-10-6-13.2c-11.4-9.1-38.3-26.8-74-26.8c-32,0-40,8-40,8s8-8,8-40c0-35.7-17.7-62.6-26.8-74
	c-3.2-4-8.1-6-13.2-6S350,2,346.7,6z M244.6,136c-40,0-77.1,18.1-101.7,48.2l60.5,60.5c6.2,6.2,6.2,16.4,0,22.6s-16.4,6.2-22.6,0
	L125.5,212v0.1L2.2,477.9C-2,487-0.1,497.8,7,505s17.9,9,27.1,4.8l134.7-62.4l-52.1-52.1c-6.2-6.2-6.2-16.4,0-22.6s16.4-6.2,22.6,0
	l60.4,60.3l100.2-46.4c46.4-21.5,76.2-68,76.2-119.2C376,194.8,317.2,136,244.6,136z"/>
</svg>
