<?xml version="1.0" encoding="utf-8"?>
<!-- Generator: Adobe Illustrator 26.5.3, SVG Export Plug-In . SVG Version: 6.00 Build 0)  -->
<svg version="1.1" id="レイヤー_1" xmlns="http://www.w3.org/2000/svg" xmlns:xlink="http://www.w3.org/1999/xlink" x="0px"
	 y="0px" viewBox="0 0 384 512" enable-background="new 0 0 384 512" xml:space="preserve">
<path fill="#FFFFFF" d="M192,496C86,496,0,394,0,288C0,176,64,16,192,16s192,160,192,272C384,394,298,496,192,496z M154.8,134
	c6.5-6,7-16.1,1-22.6s-16.1-7-22.6-1c-23.9,21.8-41.1,52.7-52.3,84.2S64,259.7,64,288c0,8.8,7.2,16,16,16s16-7.2,16-16
	c0-24.5,5-54.4,15.1-82.8C121.2,176.7,136.1,151.1,154.8,134z"/>
</svg>
