<?xml version="1.0" encoding="utf-8"?>
<!-- Generator: Adobe Illustrator 26.5.3, SVG Export Plug-In . SVG Version: 6.00 Build 0)  -->
<svg version="1.1" id="レイヤー_1" xmlns="http://www.w3.org/2000/svg" xmlns:xlink="http://www.w3.org/1999/xlink" x="0px"
	 y="0px" viewBox="0 0 576 512" enable-background="new 0 0 576 512" xml:space="preserve">
<path fill="#FFFFFF" d="M180.5,141.5C219.7,108.5,272.6,80,336,80s116.3,28.5,155.5,61.5c39.1,33,66.9,72.4,81,99.8
	c4.7,9.2,4.7,20.1,0,29.3c-14.1,27.4-41.9,66.8-81,99.8C452.3,403.5,399.4,432,336,432s-116.3-28.5-155.5-61.5
	c-16.2-13.7-30.5-28.5-42.7-43.1l-89.7,52.2c-12.5,7.3-28.4,5.3-38.7-4.9s-12.4-26-5.2-38.6L50,256L4.2,175.9
	c-7.2-12.6-5-28.4,5.3-38.6s26.1-12.2,38.7-4.9l89.7,52.3c12.2-14.6,26.5-29.4,42.7-43.1L180.5,141.5z M448,256
	c0-17.673-14.327-32-32-32s-32,14.327-32,32s14.327,32,32,32S448,273.673,448,256z"/>
</svg>
