<?xml version="1.0" encoding="utf-8"?>
<!-- Generator: Adobe Illustrator 26.5.3, SVG Export Plug-In . SVG Version: 6.00 Build 0)  -->
<svg version="1.1" id="レイヤー_1" xmlns="http://www.w3.org/2000/svg" xmlns:xlink="http://www.w3.org/1999/xlink" x="0px"
	 y="0px" viewBox="0 0 448 512" enable-background="new 0 0 448 512" xml:space="preserve">
<path fill="#FFFFFF" d="M367.1,160c0.6-5.3,0.9-10.6,0.9-16C368,64.5,303.5,0,224,0S80,64.5,80,144c0,5.4,0.3,10.7,0.9,16H80
	c-26.5,0-48,21.5-48,48s21.5,48,48,48h53.5h181H368c26.5,0,48-21.5,48-48s-21.5-48-48-48H367.1z M96,288l104.8,209.7
	c4.4,8.8,13.3,14.3,23.2,14.3s18.8-5.5,23.2-14.3L352,288H96z"/>
</svg>
