<?xml version="1.0" encoding="utf-8"?>
<!-- Generator: Adobe Illustrator 26.5.3, SVG Export Plug-In . SVG Version: 6.00 Build 0)  -->
<svg version="1.1" id="レイヤー_1" xmlns="http://www.w3.org/2000/svg" xmlns:xlink="http://www.w3.org/1999/xlink" x="0px"
	 y="0px" viewBox="0 0 448 512" enable-background="new 0 0 448 512" xml:space="preserve">
<path fill="#FFFFFF" d="M448,96c0-35.3-28.7-64-64-64c-6.6,0-13,1-19,2.9c-22.5,7-48.1,14.9-71,9c-75.2-19.1-156.4,11-213.7,68.3
	S-7.2,250.8,11.9,326c5.8,22.9-2,48.4-9,71C1,403,0,409.4,0,416c0,35.3,28.7,64,64,64c6.6,0,13-1,19.1-2.9c22.5-7,48.1-14.9,71-9
	c75.2,19.1,156.4-11,213.7-68.3s87.5-138.5,68.3-213.7c-5.8-22.9,2-48.4,9-71C447,109.1,448,102.7,448,96L448,96z M212.5,127.4
	c-54.6,16-101.1,62.5-117.1,117.1c-2.5,8.5-11.4,13.3-19.9,10.9S62.2,244,64.6,235.5c19.1-65.1,73.7-119.8,138.9-138.9
	c8.5-2.5,17.4,2.4,19.9,10.9S221,124.9,212.5,127.4z"/>
</svg>
