<?xml version="1.0" encoding="utf-8"?>
<!-- Generator: Adobe Illustrator 26.5.3, SVG Export Plug-In . SVG Version: 6.00 Build 0)  -->
<svg version="1.1" id="レイヤー_1" xmlns="http://www.w3.org/2000/svg" xmlns:xlink="http://www.w3.org/1999/xlink" x="0px"
	 y="0px" viewBox="0 0 512 512" enable-background="new 0 0 512 512" xml:space="preserve">
<path fill="#FFFFFF" d="M428.3,3c11.6-6.4,26.2-2.3,32.6,9.3l4.8,8.7c19.3,34.7,19.8,75.7,3.4,110c26.7,28.6,42.9,66.9,42.9,109
	c0,18.5-3.1,36.3-8.9,52.8c-6.1,17.3-28.5,16.3-36.8-0.1l-11.7-23.4c-4.1-8.1-12.4-13.3-21.5-13.3H360c-13.3,0-24-10.7-24-24v-80
	c0-13.3-10.7-24-24-24h-17.1c-21.3,0-30-23.9-10.8-32.9C304.7,85.4,327.7,80,352,80c28.3,0,54.8,7.3,77.8,20.2
	c5.5-18.2,3.7-38.4-6-55.8l-4.8-8.7c-6.4-11.6-2.3-26.2,9.3-32.6V3z M171.2,345.5L264,160h40v80c0,26.5,21.5,48,48,48h76.2
	l23.9,47.8C372.3,443.9,244.3,512,103.2,512H44.4C19.9,512,0,492.1,0,467.6c0-20.8,14.5-38.8,34.8-43.3l49.8-11.1
	c37.6-8.4,69.5-33.2,86.7-67.7H171.2z"/>
</svg>
