<svg enable-background="new 0 0 512 512" viewBox="0 0 512 512" xmlns="http://www.w3.org/2000/svg"><path d="m64 32c-35.3 0-64 28.7-64 64s28.7 64 64 64h1c3.7 88.9 77 160 167 160h56v-192h-24-175.2-24.8c-17.7 0-32-14.3-32-32s14.3-32 32-32h400c8.8 0 16-7.2 16-16s-7.2-16-16-16zm160 424c0 13.3 10.7 24 24 24h72v-72.2l-64.1-22.4c-12.5-4.4-26.2 2.2-30.6 14.7s2.2 26.2 14.7 30.6l4.5 1.6c-11.5 1.6-20.5 11.6-20.5 23.7zm128 23.3c36.4-3.3 69.5-17.6 96.1-39.6l-86.5-34.6c-3 1.8-6.2 3.2-9.6 4.3zm120.6-64.3c24.6-30.3 39.4-68.9 39.4-111 0-12.3-1.3-24.3-3.7-35.9l-125.5 87c.8 3.4 1.2 7 1.2 10.6 0 4.6-.7 9-1.9 13.1zm-136.6-287h-16v192h18.3c9.9 0 19.1 3.2 26.6 8.5l133.5-92.4c-26.6-63.5-89.3-108.1-162.4-108.1zm-168 64c0-13.255 10.745-24 24-24s24 10.745 24 24-10.745 24-24 24-24-10.745-24-24z" fill="#fff"/></svg>