<?xml version="1.0" encoding="utf-8"?>
<!-- Generator: Adobe Illustrator 26.5.3, SVG Export Plug-In . SVG Version: 6.00 Build 0)  -->
<svg version="1.1" id="レイヤー_1" xmlns="http://www.w3.org/2000/svg" xmlns:xlink="http://www.w3.org/1999/xlink" x="0px"
	 y="0px" viewBox="0 0 448 512" enable-background="new 0 0 448 512" xml:space="preserve">
<path fill="#FFFFFF" d="M416,0c-16,0-128,32-128,176v112c0,35.3,28.7,64,64,64h32v128c0,17.7,14.3,32,32,32s32-14.3,32-32V352V240
	V32C448,14.3,433.7,0,416,0z M64,16c0-8.2-6.1-15-14.3-15.9S34.2,4.6,32.4,12.5L2.1,148.8C0.7,155.1,0,161.5,0,167.9
	c0,45.9,35.1,83.6,80,87.7V480c0,17.7,14.3,32,32,32s32-14.3,32-32V255.6c44.9-4.1,80-41.8,80-87.7c0-6.4-0.7-12.8-2.1-19.1
	L191.6,12.5c-1.8-8-9.3-13.3-17.4-12.4S160,7.8,160,16v134.2c0,5.4-4.4,9.8-9.8,9.8c-5.1,0-9.3-3.9-9.8-9L127.9,14.6
	C127.2,6.3,120.3,0,112,0S96.8,6.3,96.1,14.6L83.7,151c-0.5,5.1-4.7,9-9.8,9c-5.4,0-9.8-4.4-9.8-9.8V16H64z M112.3,168H112h-0.3
	l0.3-0.7L112.3,168z"/>
</svg>
