<?xml version="1.0" encoding="utf-8"?>
<!-- Generator: Adobe Illustrator 26.5.3, SVG Export Plug-In . SVG Version: 6.00 Build 0)  -->
<svg version="1.1" id="レイヤー_1" xmlns="http://www.w3.org/2000/svg" xmlns:xlink="http://www.w3.org/1999/xlink" x="0px"
	 y="0px" viewBox="0 0 320 512" enable-background="new 0 0 320 512" xml:space="preserve">
<path fill="#FFFFFF" d="M32.1,29.3C33.5,12.8,47.4,0,64,0h192c16.6,0,30.5,12.8,31.9,29.3l14,168.4c6,72-42.5,135.2-109.9,150.6V448
	h48c17.7,0,32,14.3,32,32s-14.3,32-32,32h-80H80c-17.7,0-32-14.3-32-32s14.3-32,32-32h48v-99.6C60.6,333,12.1,269.8,18.1,197.8
	l14-168.4V29.3z M88.1,128h143.8l-5.3-64H93.4L88.1,128z"/>
</svg>
