<?xml version="1.0" encoding="utf-8"?>
<!-- Generator: Adobe Illustrator 26.5.3, SVG Export Plug-In . SVG Version: 6.00 Build 0)  -->
<svg version="1.1" id="layer1" xmlns="http://www.w3.org/2000/svg" xmlns:xlink="http://www.w3.org/1999/xlink" x="0px" y="0px"
	 viewBox="0 0 28 14" enable-background="new 0 0 28 14" xml:space="preserve">
<g>
	<path d="M5.612,3.392c0-0.109,0.038-0.202,0.114-0.278s0.169-0.114,0.278-0.114h0.896L6.749,2.565
		c-0.062-0.16-0.124-0.312-0.185-0.454s-0.13-0.272-0.208-0.39c-0.07-0.117-0.15-0.18-0.24-0.188
		c-0.094,0.008-0.178,0.07-0.252,0.188s-0.142,0.247-0.202,0.39S5.54,2.405,5.478,2.565L4.921,4.089
		C4.882,4.171,4.832,4.238,4.771,4.291S4.62,4.37,4.499,4.37c-0.113,0-0.206-0.039-0.278-0.117S4.116,4.081,4.124,3.972
		C4.128,3.921,4.14,3.874,4.159,3.831l0.645-1.664c0.18-0.438,0.359-0.791,0.539-1.061c0.176-0.266,0.434-0.4,0.773-0.404
		C6.452,0.706,6.709,0.84,6.887,1.104s0.356,0.618,0.536,1.063l0.645,1.664c0.02,0.043,0.031,0.09,0.035,0.141
		C8.11,4.081,8.078,4.175,8.006,4.253S7.841,4.37,7.728,4.37c-0.129,0-0.224-0.026-0.284-0.079s-0.11-0.12-0.149-0.202L7.183,3.784
		H6.005c-0.109,0-0.201-0.039-0.275-0.117C5.651,3.593,5.612,3.501,5.612,3.392z"/>
	<path d="M8.565,3.907c0-0.109,0.038-0.202,0.114-0.278s0.169-0.114,0.278-0.114h1.125V1.628H8.958
		c-0.109,0-0.201-0.039-0.275-0.117C8.604,1.437,8.565,1.345,8.565,1.235S8.604,1.033,8.68,0.957s0.169-0.114,0.278-0.114h3.035
		c0.109,0,0.203,0.037,0.281,0.111c0.074,0.078,0.111,0.172,0.111,0.281s-0.038,0.202-0.114,0.278s-0.169,0.114-0.278,0.114h-1.119
		v1.887h1.119c0.109,0,0.203,0.037,0.281,0.111c0.074,0.078,0.111,0.172,0.111,0.281s-0.038,0.202-0.114,0.278
		S12.103,4.3,11.993,4.3H8.958c-0.109,0-0.201-0.039-0.275-0.117C8.604,4.108,8.565,4.017,8.565,3.907z"/>
</g>
<g>
	<path d="M4.189,6.174c0-0.105,0.037-0.193,0.111-0.264s0.164-0.105,0.27-0.105h1.002c0.004-0.102,0.041-0.188,0.111-0.258
		c0.066-0.066,0.145-0.1,0.234-0.1c0.09,0.004,0.166,0.04,0.229,0.108s0.096,0.151,0.1,0.249h0.867c0.105,0,0.197,0.035,0.275,0.105
		c0.07,0.07,0.105,0.158,0.105,0.264c0,0.102-0.037,0.188-0.111,0.261s-0.164,0.108-0.27,0.108H6.251c0,0.117,0,0.232,0,0.346H6.99
		c0.293,0.012,0.525,0.072,0.697,0.182s0.304,0.247,0.396,0.413s0.14,0.337,0.144,0.513c0,0.219-0.038,0.404-0.114,0.557
		S7.909,8.841,7.731,8.96S7.328,9.139,7.054,9.139h-0.27c-0.109,0-0.201-0.037-0.275-0.111C6.431,8.958,6.392,8.872,6.392,8.77
		c0-0.105,0.038-0.194,0.114-0.267s0.169-0.108,0.278-0.108h0.305c0.074,0,0.143-0.021,0.205-0.062s0.109-0.12,0.141-0.237
		S7.46,7.879,7.417,7.797c-0.023-0.059-0.06-0.111-0.108-0.158S7.201,7.567,7.13,7.563H6.251c0,0.152,0,0.305,0,0.457
		c0,0.324-0.09,0.582-0.27,0.773c-0.18,0.195-0.438,0.289-0.773,0.281C4.986,9.079,4.788,9.026,4.614,8.917S4.316,8.669,4.242,8.503
		S4.13,8.165,4.13,7.985c0-0.168,0.038-0.335,0.114-0.501s0.196-0.304,0.36-0.413s0.393-0.17,0.686-0.182h0.281V6.543H4.57
		c-0.105,0-0.195-0.037-0.27-0.111C4.226,6.362,4.189,6.276,4.189,6.174z M5.314,7.563C5.197,7.567,5.102,7.592,5.03,7.639
		S4.91,7.74,4.886,7.8S4.851,7.92,4.851,7.979c0,0.062,0.012,0.125,0.035,0.188s0.06,0.116,0.108,0.161s0.108,0.067,0.179,0.067
		c0.141,0,0.242-0.035,0.305-0.105s0.094-0.16,0.094-0.27V7.563H5.314z M7.658,6.168c0-0.113,0.042-0.21,0.126-0.29
		s0.187-0.12,0.308-0.12s0.224,0.04,0.308,0.12s0.126,0.177,0.126,0.29s-0.042,0.21-0.126,0.29s-0.187,0.12-0.308,0.12
		s-0.224-0.04-0.308-0.12S7.658,6.282,7.658,6.168z"/>
	<path d="M9.703,8.993V8.02C9.605,8.247,9.482,8.454,9.333,8.641C9.279,8.704,9.224,8.735,9.169,8.735
		c-0.035,0-0.07-0.015-0.105-0.044s-0.062-0.069-0.082-0.12L8.841,8.219C8.826,8.18,8.818,8.139,8.818,8.096
		c0-0.082,0.035-0.156,0.105-0.223c0.238-0.238,0.426-0.482,0.562-0.732H9.21c-0.09,0-0.168-0.033-0.234-0.1s-0.1-0.145-0.1-0.234
		c0-0.094,0.033-0.173,0.1-0.237S9.121,6.473,9.21,6.473h0.51V6.227L9.421,6.338C9.386,6.354,9.349,6.362,9.31,6.362
		c-0.098,0-0.168-0.061-0.211-0.182c-0.059-0.176-0.117-0.35-0.176-0.521c-0.012-0.035-0.018-0.068-0.018-0.1
		c0-0.09,0.03-0.164,0.091-0.223S9.128,5.249,9.21,5.249c0.07,0,0.132,0.018,0.185,0.053s0.089,0.084,0.108,0.146
		C9.589,5.69,9.662,5.917,9.72,6.127V5.249c0-0.082,0.022-0.145,0.067-0.188s0.106-0.064,0.185-0.064h0.24
		c0.082,0,0.145,0.021,0.188,0.064s0.064,0.105,0.064,0.188v0.814c0.098-0.219,0.174-0.434,0.229-0.645
		c0.02-0.066,0.057-0.121,0.111-0.164s0.117-0.064,0.188-0.064c0.09,0,0.166,0.03,0.229,0.091s0.094,0.136,0.094,0.226
		c0,0.004-0.008,0.035-0.023,0.094c-0.094,0.289-0.162,0.486-0.205,0.592c-0.043,0.109-0.113,0.164-0.211,0.164
		c-0.043,0-0.084-0.008-0.123-0.023l-0.287-0.111v0.252h0.463c0.078,0,0.14,0.013,0.185,0.038s0.067,0.062,0.067,0.108v0.158
		l0.381-0.34c0.062-0.055,0.123-0.082,0.182-0.082c0.051,0,0.107,0.021,0.17,0.064c0.301,0.211,0.57,0.418,0.809,0.621
		c0.07,0.055,0.105,0.113,0.105,0.176c0,0.055-0.033,0.113-0.1,0.176l-0.199,0.188c-0.062,0.055-0.121,0.082-0.176,0.082
		s-0.113-0.025-0.176-0.076c-0.273-0.23-0.605-0.49-0.996-0.779v0.082c0,0.082-0.019,0.145-0.056,0.188s-0.093,0.064-0.167,0.064
		h-0.229l0.199,0.287l0.363,0.539l1.91-0.27V5.249c0-0.082,0.022-0.145,0.067-0.188s0.106-0.064,0.185-0.064h0.34
		c0.082,0,0.145,0.021,0.188,0.064s0.064,0.105,0.064,0.188v2.332l0.229-0.029l0.059-0.006c0.062,0,0.112,0.02,0.149,0.059
		s0.06,0.096,0.067,0.17l0.029,0.211c0.008,0.074-0.008,0.137-0.047,0.188s-0.098,0.082-0.176,0.094l-0.311,0.041v0.686
		c0,0.078-0.021,0.14-0.064,0.185s-0.105,0.067-0.188,0.067h-0.34c-0.078,0-0.14-0.022-0.185-0.067s-0.067-0.106-0.067-0.185V8.418
		L11.396,8.67l-0.053,0.006c-0.066,0-0.118-0.02-0.155-0.059s-0.06-0.096-0.067-0.17L11.091,8.19l-0.07,0.059
		c-0.059,0.047-0.113,0.07-0.164,0.07c-0.074,0-0.135-0.043-0.182-0.129l-0.199-0.34v1.143c0,0.078-0.021,0.14-0.064,0.185
		s-0.105,0.067-0.188,0.067h-0.27c-0.078,0-0.14-0.022-0.185-0.067S9.703,9.071,9.703,8.993z M11.976,5.307
		c0.059-0.051,0.123-0.076,0.193-0.076c0.055,0,0.109,0.018,0.164,0.053c0.191,0.137,0.41,0.299,0.656,0.486
		c0.07,0.059,0.105,0.117,0.105,0.176s-0.033,0.119-0.1,0.182l-0.199,0.182c-0.062,0.055-0.123,0.082-0.182,0.082
		c-0.055,0-0.107-0.02-0.158-0.059c-0.246-0.195-0.463-0.361-0.65-0.498c-0.078-0.051-0.117-0.113-0.117-0.188
		c0-0.055,0.031-0.111,0.094-0.17L11.976,5.307z"/>
	<path d="M16.417,8.899V8.6c-0.465,0.098-0.871,0.176-1.219,0.234L15.146,8.84c-0.133,0-0.209-0.076-0.229-0.229l-0.023-0.211
		c-0.008-0.078,0.006-0.142,0.041-0.19s0.094-0.077,0.176-0.085l0.24-0.035V7.217H15.21c-0.078,0-0.14-0.022-0.185-0.067
		s-0.067-0.106-0.067-0.185V6.749c0-0.082,0.018-0.145,0.053-0.188s0.084-0.064,0.146-0.064h0.193V5.94h-0.199
		c-0.082,0-0.145-0.021-0.188-0.064S14.9,5.77,14.9,5.688V5.459c0-0.082,0.021-0.146,0.064-0.19s0.105-0.067,0.188-0.067h1.207
		c0.078,0,0.14,0.022,0.185,0.067s0.067,0.108,0.067,0.19v0.229c0,0.082-0.02,0.145-0.059,0.188S16.458,5.94,16.388,5.94h-0.223
		v0.557h0.164c0.078,0,0.14,0.021,0.185,0.064s0.067,0.105,0.067,0.188v0.217c0,0.078-0.019,0.14-0.056,0.185
		s-0.087,0.067-0.149,0.067h-0.211v0.727l0.17-0.035c0.016-0.004,0.041-0.006,0.076-0.006c0.125,0,0.191,0.076,0.199,0.229
		l0.012,0.352h1.482V8.254h-1.072c-0.082,0-0.154-0.03-0.217-0.091s-0.094-0.136-0.094-0.226c0-0.086,0.031-0.159,0.094-0.22
		s0.135-0.091,0.217-0.091h1.072V7.393h-1.084c-0.078,0-0.14-0.021-0.185-0.064s-0.067-0.105-0.067-0.188V5.295
		c0-0.082,0.022-0.145,0.067-0.188s0.106-0.064,0.185-0.064h3.023c0.082,0,0.145,0.021,0.188,0.064s0.064,0.105,0.064,0.188v1.846
		c0,0.082-0.021,0.145-0.064,0.188s-0.105,0.064-0.188,0.064h-1.09v0.234h1.137c0.082,0,0.154,0.03,0.217,0.091
		s0.094,0.134,0.094,0.22c0,0.09-0.031,0.165-0.094,0.226s-0.135,0.091-0.217,0.091h-1.137v0.229h1.184
		c0.09,0,0.168,0.032,0.234,0.097s0.1,0.144,0.1,0.237c0,0.09-0.033,0.168-0.1,0.234s-0.145,0.1-0.234,0.1h-3.469
		c-0.082,0-0.145-0.021-0.188-0.064S16.417,8.981,16.417,8.899z M18.105,6.016V5.688h-0.586v0.328H18.105z M18.105,6.819V6.497
		h-0.586v0.322H18.105z M19.535,6.016V5.688h-0.58v0.328H19.535z M19.535,6.819V6.497h-0.58v0.322H19.535z"/>
</g>
<g>
	<path d="M6.23,9.77C6.335,9.773,6.425,9.811,6.5,9.881c0.07,0.07,0.109,0.154,0.117,0.252h0.557c0.023,0,0.047,0.002,0.07,0.006
		h0.035c0.273,0.008,0.498,0.067,0.674,0.179s0.303,0.238,0.381,0.381s0.117,0.286,0.117,0.431c0,0.148-0.038,0.294-0.114,0.437
		s-0.202,0.269-0.378,0.378c-0.023,0.016-0.047,0.029-0.07,0.041l0.287,0.363c0.066,0.082,0.093,0.177,0.079,0.284
		s-0.062,0.194-0.144,0.261c-0.086,0.07-0.184,0.096-0.293,0.076c-0.105-0.004-0.193-0.051-0.264-0.141l-0.562-0.715H6.617v0.979
		c-0.004,0.105-0.043,0.194-0.117,0.267s-0.164,0.11-0.27,0.114c-0.109,0-0.203-0.036-0.281-0.108s-0.119-0.163-0.123-0.272v-0.979
		H5.744c-0.215,0.004-0.389,0.068-0.521,0.193s-0.227,0.24-0.281,0.346l-0.105,0.141c-0.051,0.07-0.108,0.124-0.173,0.161
		s-0.149,0.04-0.255,0.009c-0.102-0.031-0.178-0.095-0.229-0.19s-0.061-0.196-0.029-0.302c0.012-0.047,0.031-0.09,0.059-0.129
		l0.129-0.182c0.25-0.348,0.462-0.569,0.636-0.665s0.372-0.151,0.595-0.167H7.39c0.059,0,0.106-0.012,0.144-0.035
		s0.064-0.05,0.082-0.079s0.026-0.06,0.026-0.091c0-0.027-0.009-0.056-0.026-0.085s-0.045-0.056-0.082-0.079
		s-0.085-0.037-0.144-0.041H4.537c-0.109,0-0.201-0.039-0.275-0.117c-0.078-0.074-0.117-0.166-0.117-0.275s0.038-0.202,0.114-0.278
		s0.169-0.114,0.278-0.114h1.289c0.008-0.102,0.049-0.188,0.123-0.258C6.027,9.805,6.121,9.77,6.23,9.77z"/>
	<path d="M9.13,11.639c0-0.109,0.038-0.202,0.114-0.278s0.169-0.114,0.278-0.114h2.941c0.109,0,0.203,0.037,0.281,0.111
		c0.074,0.078,0.111,0.172,0.111,0.281s-0.038,0.202-0.114,0.278s-0.169,0.114-0.278,0.114H9.523c-0.109,0-0.201-0.039-0.275-0.117
		C9.169,11.84,9.13,11.748,9.13,11.639z"/>
	<path d="M13.572,10.326c0-0.109,0.038-0.202,0.114-0.278s0.169-0.114,0.278-0.114h2.941c0.109,0,0.203,0.037,0.281,0.111
		c0.074,0.078,0.111,0.172,0.111,0.281s-0.037,0.202-0.113,0.278s-0.17,0.114-0.279,0.114h-2.941c-0.109,0-0.201-0.039-0.275-0.117
		C13.611,10.527,13.572,10.436,13.572,10.326z M13.572,12.998c0-0.109,0.038-0.202,0.114-0.278s0.169-0.114,0.278-0.114h2.941
		c0.109,0,0.203,0.037,0.281,0.111c0.074,0.078,0.111,0.172,0.111,0.281s-0.037,0.202-0.113,0.278s-0.17,0.114-0.279,0.114h-2.941
		c-0.109,0-0.201-0.039-0.275-0.117C13.611,13.199,13.572,13.107,13.572,12.998z M13.595,11.639c0-0.109,0.038-0.202,0.114-0.278
		s0.169-0.114,0.278-0.114h2.941c0.109,0,0.203,0.037,0.281,0.111c0.074,0.078,0.111,0.172,0.111,0.281s-0.037,0.202-0.113,0.278
		s-0.17,0.114-0.279,0.114h-2.941c-0.109,0-0.201-0.039-0.275-0.117C13.634,11.84,13.595,11.748,13.595,11.639z"/>
	<path d="M18.007,10.326c0-0.109,0.038-0.202,0.114-0.278s0.169-0.114,0.278-0.114h1.512c0.109,0,0.203,0.037,0.281,0.111
		c0.074,0.078,0.111,0.172,0.111,0.281s-0.038,0.202-0.114,0.278s-0.169,0.114-0.278,0.114h-1.512c-0.109,0-0.201-0.039-0.275-0.117
		C18.046,10.527,18.007,10.436,18.007,10.326z M21.921,10.355l-0.539,1.664c-0.156,0.445-0.352,0.781-0.586,1.008
		s-0.49,0.348-0.768,0.363h-1.102c-0.105-0.004-0.194-0.042-0.267-0.114s-0.11-0.161-0.114-0.267c0-0.109,0.036-0.203,0.108-0.281
		s0.163-0.119,0.272-0.123h0.902c0.148-0.008,0.288-0.064,0.419-0.17s0.229-0.226,0.296-0.36s0.123-0.282,0.17-0.442l0.48-1.535
		c0.027-0.082,0.067-0.149,0.12-0.202s0.134-0.079,0.243-0.079c0.105,0,0.196,0.039,0.272,0.117s0.114,0.172,0.114,0.281
		C21.944,10.266,21.937,10.312,21.921,10.355z"/>
	<path d="M24.054,9.934h2.49c0.109,0,0.203,0.037,0.281,0.111c0.082,0.086,0.119,0.18,0.111,0.281l-0.188,1.377
		c-0.039,0.277-0.111,0.539-0.217,0.785c-0.113,0.246-0.271,0.454-0.472,0.624s-0.438,0.263-0.712,0.278H24.81
		c-0.105-0.004-0.194-0.042-0.267-0.114s-0.11-0.161-0.114-0.267c0-0.109,0.036-0.203,0.108-0.281s0.163-0.119,0.272-0.123h0.445
		c0.148-0.008,0.278-0.064,0.39-0.17s0.188-0.226,0.231-0.36s0.074-0.282,0.094-0.442l0.105-0.768
		c0.012-0.094-0.021-0.143-0.1-0.146h-1.652c-0.039,0.168-0.092,0.328-0.158,0.48c-0.113,0.246-0.271,0.454-0.472,0.624
		s-0.438,0.263-0.712,0.278h-0.129c-0.105-0.004-0.194-0.042-0.267-0.114s-0.11-0.161-0.114-0.267c0-0.109,0.036-0.203,0.108-0.281
		s0.163-0.119,0.272-0.123h0.035c0.148-0.008,0.278-0.064,0.39-0.17s0.188-0.226,0.231-0.36s0.074-0.282,0.094-0.442v-0.029
		c0.02-0.109,0.072-0.201,0.158-0.275C23.847,9.969,23.944,9.934,24.054,9.934z M25.202,9.277c0-0.117,0.041-0.217,0.123-0.299
		s0.182-0.123,0.299-0.123s0.217,0.041,0.299,0.123s0.123,0.182,0.123,0.299s-0.041,0.217-0.123,0.299s-0.182,0.123-0.299,0.123
		s-0.217-0.041-0.299-0.123S25.202,9.395,25.202,9.277z M26.21,9.277c0-0.117,0.041-0.217,0.123-0.299s0.182-0.123,0.299-0.123
		s0.217,0.041,0.299,0.123s0.123,0.182,0.123,0.299s-0.041,0.217-0.123,0.299s-0.182,0.123-0.299,0.123s-0.217-0.041-0.299-0.123
		S26.21,9.395,26.21,9.277z"/>
</g>
<path fill="#FFCE67" d="M2.501,4.3H1.499C0.947,4.3,0.5,3.853,0.5,3.301V2.299C0.5,1.747,0.947,1.3,1.499,1.3h1.002
	C3.053,1.3,3.5,1.747,3.5,2.299v1.002C3.5,3.853,3.053,4.3,2.501,4.3z"/>
<path fill="#FFCE67" d="M2.502,8.8H1.498C0.947,8.8,0.5,8.353,0.5,7.802V6.798C0.5,6.247,0.947,5.8,1.498,5.8h1.004
	C3.053,5.8,3.5,6.247,3.5,6.798v1.004C3.5,8.353,3.053,8.8,2.502,8.8z"/>
<path fill="#FFCE67" d="M2.498,13.3H1.502c-0.553,0-1.002-0.449-1.002-1.002v-0.996c0-0.553,0.449-1.002,1.002-1.002h0.996
	c0.553,0,1.002,0.449,1.002,1.002v0.996C3.5,12.851,3.051,13.3,2.498,13.3z"/>
</svg>
