<?xml version="1.0" encoding="UTF-8"?><svg id="_レイヤー_1" xmlns="http://www.w3.org/2000/svg" xmlns:xlink="http://www.w3.org/1999/xlink" viewBox="0 0 200 200"><defs><style>.cls-1{fill:none;stroke-width:4.9px;}.cls-1,.cls-2,.cls-3,.cls-4{stroke-linecap:round;}.cls-1,.cls-2,.cls-3,.cls-4,.cls-5,.cls-6{stroke:#000;}.cls-1,.cls-2,.cls-4{stroke-linejoin:round;}.cls-2{stroke-width:4.06px;}.cls-2,.cls-3,.cls-4,.cls-5,.cls-6{fill:#fff;}.cls-7{fill:#aadaff;stroke:#297cc4;stroke-width:2px;}.cls-7,.cls-3,.cls-5,.cls-6{stroke-miterlimit:10;}.cls-3{stroke-width:3.25px;}.cls-4{stroke-width:4.77px;}.cls-8{filter:url(#drop-shadow-1);}.cls-5{stroke-width:3.91px;}.cls-6{stroke-width:3.6px;}</style><filter id="drop-shadow-1" filterUnits="userSpaceOnUse"><feOffset dx="3" dy="4"/><feGaussianBlur result="blur" stdDeviation="4"/><feFlood flood-color="#000" flood-opacity=".5"/><feComposite in2="blur" operator="in"/><feComposite in="SourceGraphic"/></filter></defs><g class="cls-8"><g><path class="cls-5" d="M170.2,135.21c-.44-33.34-32.45-60.05-71.09-59.61-38.86,.66-69.98,28.26-69.54,61.59,0,1.55,.22,2.87,.22,4.42h5.52l129.37-1.99h5.3c0-1.55,.22-2.87,.22-4.42h0Z"/><path class="cls-6" d="M100.88,192.39c34.22-.44,61.82-23.62,64.02-52.98l-129.59,1.99c3.09,29.14,31.35,51.44,65.57,51h0Z"/><path class="cls-6" d="M35.31,141.39s.22,.22,0,0l129.37-1.99h0c.22,0-129.37,1.99-129.37,1.99Z"/></g><g><ellipse cx="72.64" cy="120.2" rx="3.75" ry="9.05" transform="translate(-1.78 1.09) rotate(-.85)"/><path d="M72.62,112.91c.66,0,2.43,2.65,2.43,7.29s-1.55,7.29-2.21,7.29-2.43-2.65-2.43-7.29,1.32-7.29,2.21-7.29m-.22-3.53c-2.87,0-5.08,4.86-5.08,10.82s2.43,10.82,5.3,10.82,5.08-4.86,5.08-10.82-2.43-10.82-5.3-10.82h0Z"/></g><path class="cls-2" d="M141.73,39.62c-.22-13.03-10.6-23.84-23.18-23.62-1.77,0-3.31,.22-5.08,.66-4.19-5.74-10.38-9.05-17-9.05s-12.58,3.75-16.56,9.27c-1.1-.22-2.43-.22-3.53-.22-12.58,.22-22.74,11.04-22.52,24.28,.22,10.16,6.62,18.99,15.23,22.08l.44,27.38,56.3-.88-.44-27.15c9.71-2.87,16.56-11.92,16.34-22.74h0Z"/><path class="cls-4" d="M84.1,61.91c-5.52-5.3-9.05-12.8-9.05-21.64"/><path class="cls-4" d="M120.75,39.84c.22,8.61-3.09,16.34-8.39,21.86"/><line class="cls-1" x1="78.59" y1="64.12" x2="118.54" y2="63.46"/><path class="cls-3" d="M172.85,153.31h-2.43c-3.31,0-5.74-3.09-5.96-7.06l-.44-37.75c0-3.97,2.43-7.06,5.74-7.06h2.43c3.31,0,5.74,3.09,5.96,7.06l.44,37.75c0,3.75-2.65,7.06-5.74,7.06Z"/><path class="cls-3" d="M30.24,155.52h-2.43c-3.31,0-5.74-3.09-5.96-7.06l-.44-37.75c0-3.97,2.43-7.06,5.74-7.06l2.43-.22c3.31,0,5.74,3.09,5.96,7.06l.44,37.75c.22,3.75-2.43,7.29-5.74,7.29h0Z"/><g><ellipse cx="126.06" cy="118.86" rx="3.75" ry="9.05" transform="translate(-1.75 1.88) rotate(-.85)"/><path d="M125.83,111.59c.66,0,2.43,2.65,2.43,7.29s-1.55,7.29-2.21,7.29-2.43-2.65-2.43-7.29,1.55-7.29,2.21-7.29m0-3.53c-2.87,0-5.08,4.86-5.08,10.82s2.43,10.82,5.3,10.82,5.08-4.86,5.08-10.82-2.43-10.82-5.3-10.82h0Z"/></g></g><path class="cls-7" d="M156.02,92.15c0,6.1-4.94,11.04-11.04,11.04s-11.04-4.94-11.04-11.04,11.04-19.65,11.04-19.65c0,0,11.04,13.55,11.04,19.65Z"/><g><path d="M151.98,53.96c.8-.05,2.23-.39,3.87-.93,1.48-.48,2.55-.91,3.1-1.24l.62,1.73c-.62,.61-1.9,2.15-2.51,3.06l-1.72-.51c.19-.24,.3-.38,.44-.55l.3-.35c.06-.07,.13-.14,.14-.16l.1-.09s.05-.07,.11-.12c-.37,.16-.53,.22-.92,.35-.87,.28-1.45,.44-2.61,.7-.24,.05-.25,.06-.41,.1l-.51-1.98Zm4.02,4.41c-.5,.73-.7,1.33-.57,1.74,.19,.59,1.02,.61,2.75,.04,1.35-.44,2.9-1.2,3.56-1.74l.85,2.14c-.21,.08-.28,.1-.45,.17-.07,.03-.17,.08-.34,.16l-.3,.15c-.92,.44-1.84,.81-2.78,1.11-1.29,.42-2.24,.59-3.03,.54-1.15-.08-1.89-.61-2.2-1.56-.33-1.01-.1-2.01,.73-3.28l1.78,.53Zm3.28-3.59c.62,.35,1.16,.76,1.66,1.26l-.86,.91c-.61-.6-1.03-.92-1.67-1.29l.87-.88Zm1.21-1.24c.57,.32,1.03,.65,1.66,1.21l-.83,.89c-.62-.59-1.09-.94-1.65-1.26l.82-.84Z"/><path d="M164.55,49.73c.19,.55,.47,1.09,.79,1.61,.53-.43,1.18-.78,1.83-.99,.04-.01,.14-.04,.25-.08-.09-1.07-.13-1.36-.26-1.78l2.13-.28c-.01,.12,0,.36,0,.7,.02,.65,.05,.99,.05,1.03,.74-.01,1.21,.06,1.77,.29,1.09,.44,1.85,1.27,2.24,2.46,.59,1.81,.06,3.6-1.46,4.88-.53,.45-1.05,.81-1.86,1.26-.49-.72-.85-1.1-1.54-1.61,1.16-.49,1.99-1.05,2.43-1.63,.55-.72,.66-1.52,.37-2.42-.29-.9-.89-1.35-1.92-1.43-.03,1.99-.22,3.39-.62,4.61-.53,1.59-1.2,2.45-2.17,2.77-1.38,.45-2.7-.43-3.27-2.17-.47-1.45-.25-2.93,.64-4.24-.32-.5-.48-.76-.81-1.35-.21-.36-.25-.42-.43-.63l1.81-1.01Zm.51,6.52c.23,.7,.62,1.05,1.01,.92,.23-.07,.42-.31,.55-.71-.6-.65-.98-1.13-1.51-1.95-.21,.53-.22,1.21-.05,1.74Zm2.25-1.83c.15-.92,.19-1.45,.18-2.29-.57,.21-.9,.41-1.28,.77,.38,.61,.65,.97,1.09,1.52Z"/><path d="M177.8,45.39c-.09,.52-.13,.98-.34,4.82,.35-.48,.75-.8,1.25-.96,.75-.25,1.47-.01,1.87,.6,.25,.37,.28,.46,.76,1.87,.26,.8,.48,1,.89,.87,.46-.15,.69-.55,.76-1.27,.06-.7-.01-1.46-.22-2.26,.85,.35,1.25,.45,2.18,.55,.17,1.26,.12,2.13-.16,2.97-.34,.98-1.09,1.71-2.14,2.05-.73,.24-1.35,.23-1.86-.05-.52-.27-.84-.71-1.1-1.52-.03-.1-.1-.32-.25-.81-.03-.08-.05-.15-.06-.19-.18-.56-.37-.7-.72-.58-.52,.17-.9,.88-1.03,1.98-.11,.83-.12,2.11-.03,2.91l-2.31,.06c.08-.47,.08-.53,.11-2.74,0-.31,.02-1.59,.06-3.82,.05-2.96,.04-3.73-.03-4.21l2.38-.26Z"/><path d="M184.2,44.91c.18-.03,.24-.05,.37-.1,.27-.09,.9-.31,.96-.34q.33-.15,.44-.18c-.19-.65-.25-.88-.38-1.29-.04-.11-.04-.12-.22-.58l1.99-.6c.05,.41,.11,.65,.4,1.7l.84,.39c-.11,.15-.31,.56-.47,.95,.05,.21,.1,.35,.12,.39,.2-.38,.3-.51,.76-1.12,.78-1.02,1.45-1.57,2.3-1.85,1.78-.58,3.14,.45,3.98,3.03,.21,.65,.35,1.17,.43,1.77,.04,.01,.45,.13,1.19,.37l-.07,2.17c-.42-.23-.51-.28-1.17-.55-.06,.35-.15,.53-.37,.8-.34,.46-.96,.87-1.65,1.1-1.5,.49-2.76,0-3.16-1.2-.4-1.21,.32-2.34,1.77-2.81,.47-.15,.81-.2,1.36-.18-.05-.3-.11-.53-.21-.84-.15-.44-.36-.92-.56-1.22-.29-.42-.72-.58-1.2-.43-.78,.25-1.77,1.42-2.68,3.14l1.06,3.15c.34,1,.37,1.05,.58,1.53l-2.05,.67c-.04-.33-.12-.64-.31-1.21q-.36-1.14-.44-1.39c-.1-.33-.1-.35-.13-.43,0-.02-.03-.09-.05-.16l-.04,.1q-.05,.09-.09,.22c-.02,.07-.08,.23-.18,.46-.15,.33-.32,.79-.39,1.01l-1.51-1.61c.21-.22,.44-.61,.9-1.47,.24-.47,.36-.69,.57-1.04-.11-.33-.15-.44-.38-1.29-.84,.33-1.2,.49-1.61,.7l-.66-1.75Zm8.57,3.63c-.38,.12-.58,.39-.5,.64,.09,.26,.43,.34,.83,.21,.3-.1,.54-.29,.65-.52,.04-.09,.09-.31,.08-.33h-.01c-.43-.12-.71-.12-1.05,0Z"/></g></svg>