<?xml version="1.0" encoding="utf-8"?>
<!-- Generator: Adobe Illustrator 26.5.3, SVG Export Plug-In . SVG Version: 6.00 Build 0)  -->
<svg version="1.1" id="layer1" xmlns="http://www.w3.org/2000/svg" xmlns:xlink="http://www.w3.org/1999/xlink" x="0px" y="0px"
	 viewBox="0 0 350 350" style="enable-background:new 0 0 350 350;" xml:space="preserve">
<style type="text/css">
	.st0{stroke:#000000;stroke-width:3;stroke-miterlimit:10;}
	.st1{fill:none;stroke:#FFFFFF;stroke-width:7;stroke-miterlimit:10;}
	.st2{stroke:#FFFFFF;stroke-width:7;stroke-linecap:round;stroke-linejoin:round;}
	.st3{stroke:#FFFFFF;stroke-width:7;stroke-miterlimit:10;}
	.st4{stroke:#FFFFFF;stroke-width:7;stroke-linecap:round;stroke-miterlimit:10;}
	.st5{fill:none;stroke:#FFFFFF;stroke-width:7;stroke-linecap:round;stroke-linejoin:round;stroke-miterlimit:10;}
	.st6{fill:none;stroke:#FFFFFF;stroke-width:6;stroke-linecap:round;stroke-linejoin:round;stroke-miterlimit:10;}
	.st7{fill:none;stroke:#FFFFFF;stroke-width:6;stroke-miterlimit:10;}
</style>
<rect y="-1.7" width="350" height="350"/>
<path class="st0" d="M-145.7-86"/>
<g>
	<path class="st1" d="M216.5,234.7c-9-40.2-53.3-64.7-98.8-54.4c-45.5,10.3-75,51.4-66,91.6c0.4,1.9,1,3.4,1.4,5.3l6.5-1.5l0,0
		l151.7-34.3l0,0l6.1-1.4C217.1,238.2,217,236.6,216.5,234.7L216.5,234.7z"/>
	<path class="st1" d="M149.6,321c40.2-9.1,66.7-43.9,61.8-79.8L59.7,275.5C70.5,310,109.5,330,149.6,321L149.6,321z"/>
	<path class="st1" d="M59.7,275.5C59.7,275.5,59.8,275.8,59.7,275.5l151.7-34.3l0,0L59.7,275.5z"/>
	<g>
		<path class="st2" d="M152,126c-4.7-15.4-20.4-24.7-34.8-20.3c-2.1,0.6-3.9,1.4-5.6,2.5c-6.8-5.3-15.1-7.4-22.8-5.1
			s-13.2,8.6-16,16.5c-1.3,0.1-2.8,0.5-4.2,1c-14.5,4.4-22.4,20.5-17.7,36.2c3.7,12,14.1,20.3,25.2,21.2l9.9,32.4l64.7-19.6
			l-9.8-32.1C151.1,151.9,155.9,138.8,152,126L152,126z"/>
		<path class="st2" d="M93.1,171.5c-8.1-4.4-14.8-12.4-17.9-22.5"/>
		<path class="st2" d="M127.8,133.3c3.1,10.2,2,20.5-2.3,28.7"/>
		<line class="st2" x1="87.5" y1="176.1" x2="133.4" y2="162.2"/>
	</g>
	<path class="st3" d="M224.3,256l-2.9,0.7c-3.8,0.9-7.6-2.2-8.7-7l-10.2-45.6c-1.1-4.8,1-9.2,4.8-10.1l2.9-0.7
		c3.8-0.9,7.6,2.2,8.7,7l10.2,45.6C230.2,250.5,227.9,255.2,224.3,256z"/>
	<path class="st4" d="M57.3,293.8l-2.9,0.7c-3.8,0.9-7.6-2.2-8.7-7l-10.2-45.6c-1.1-4.8,1-9.2,4.8-10.1l2.9-0.7
		c3.8-0.9,7.6,2.2,8.7,7l10.2,45.6C63.3,288.2,61.1,292.9,57.3,293.8z"/>
	<g>
		<line class="st5" x1="106" y1="228.2" x2="90.2" y2="253"/>
		<line class="st5" x1="85.9" y1="232.4" x2="110.3" y2="248.8"/>
	</g>
	<g>
		<line class="st5" x1="171.1" y1="215" x2="156.2" y2="240.4"/>
		<line class="st5" x1="151.2" y1="219.9" x2="176.1" y2="235.5"/>
	</g>
	<path d="M212.9,138.4l0.2-1.6c-6.2-1-11.6-2.9-16.1-5.6c-6.8-4.1-11.7-9.7-15-16.2c-3.3-6.4-4.9-13.6-4.9-20.6
		c0-8.5,2.4-16.6,6.7-22.6c2.2-3,4.9-5.6,8-7.4c3.2-1.8,6.8-3,10.9-3.3l1.5-0.1l0-1.5c0.1-4.9,1.5-9.5,3.9-13.7
		c3.6-6.3,9.4-11.8,16.8-15.6c7.4-3.9,16.3-6.1,25.9-6.1c7,0,14.4,1.2,21.8,3.9c5,1.8,9.1,4.2,12.4,7.1c5,4.3,8.3,9.5,10.3,15.1
		c2,5.6,2.9,11.4,2.9,16.9c0,5.1-0.7,9.8-1.7,13.6c-0.5,1.9-1.1,3.5-1.7,4.8c-0.6,1.3-1.2,2.3-1.7,2.8l-1.6,1.6l2.1,0.9
		c1.3,0.6,2.5,1.4,3.4,2.3c1.5,1.4,2.5,3.1,3.3,5.1c0.7,2,1.1,4.4,1.1,6.9c0,4.1-1,8.8-2.9,13.4c-2.9,6.9-7.8,13.7-14.3,18.8
		c-3.3,2.5-7,4.6-11,6.1c-4.1,1.5-8.5,2.3-13.3,2.3c-5,0-10.5-0.9-16.3-3l-0.6-0.2l-0.6,0.2c-2.1,0.8-4.4,1.2-6.9,1.2
		c-2.6,0-5.3-0.4-7.8-1c-3.8-0.9-7.4-2.4-10-3.5c-1.3-0.6-2.3-1.1-3-1.5c-0.4-0.2-0.6-0.3-0.8-0.4c-0.1-0.1-0.2-0.1-0.2-0.1l0,0h0
		l0,0l-0.3-0.2l-0.3,0L212.9,138.4l-0.8,1.4c0,0,3,1.8,7.5,3.6c2.2,0.9,4.8,1.8,7.5,2.5c2.7,0.7,5.7,1.1,8.6,1.1
		c2.7,0,5.5-0.4,8-1.4l-0.6-1.5l-0.5,1.5c6.1,2.2,12,3.2,17.4,3.2c6.9,0,13.1-1.6,18.6-4.3c8.3-4,14.8-10.4,19.2-17.5
		c2.2-3.5,4-7.3,5.1-11s1.8-7.4,1.8-10.9c0-3.8-0.7-7.3-2.3-10.3c-0.8-1.5-1.8-2.9-3-4s-2.7-2.1-4.4-2.9l-0.6,1.5l1.2,1.1
		c0.9-0.9,1.6-2.1,2.3-3.6c1-2.3,2-5.2,2.6-8.6c0.7-3.4,1.1-7.2,1.1-11.2c0-7.7-1.5-16.3-5.7-23.9c-2.1-3.8-5-7.4-8.6-10.5
		c-3.6-3.1-8.1-5.8-13.4-7.7c-7.8-2.8-15.5-4.1-22.9-4.1c-13.5,0-25.7,4.2-34.7,11.2c-4.5,3.5-8.2,7.6-10.8,12.3
		c-2.6,4.6-4.1,9.8-4.3,15.2l1.6,0l-0.1-1.6c-4.6,0.3-8.8,1.6-12.3,3.7c-5.4,3.1-9.5,8-12.2,13.7c-2.7,5.7-4.1,12.3-4.1,19.1
		c0,9.9,3,20.3,9.4,28.6c3.2,4.2,7.2,7.9,12.1,10.8c4.9,2.9,10.6,5,17.3,6.1L212.9,138.4l-0.8,1.4L212.9,138.4z"/>
	<path d="M212.3,131.3c-0.9,1.3-1.5,2.5-2,3.8c-0.4,1.3-0.6,2.5-0.6,3.7c0,2,0.6,3.8,1.6,5.5c1.5,2.5,3.9,4.4,6.7,5.9
		c2.8,1.5,6.2,2.5,9.7,2.9c1.1,0.1,2.1,0.2,3.1,0.2c4.1,0,7.8-1.1,10.5-2.9c1.4-0.9,2.5-2,3.3-3.3c0.8-1.3,1.2-2.8,1.2-4.3
		c0-1-0.2-1.9-0.5-2.9s-0.9-1.9-1.5-2.8c-0.5-0.7-1.5-0.9-2.3-0.3c-0.7,0.5-0.9,1.5-0.3,2.3c0.5,0.7,0.9,1.4,1.1,2
		c0.2,0.6,0.3,1.2,0.3,1.8c0,0.9-0.3,1.8-0.8,2.6c-0.8,1.3-2.1,2.4-4,3.3c-1.9,0.9-4.3,1.4-7,1.4c-0.9,0-1.8-0.1-2.7-0.2
		c-4.2-0.5-8.1-2-10.8-4c-1.4-1-2.5-2.1-3.2-3.3c-0.7-1.2-1.1-2.5-1.1-3.8c0-0.8,0.1-1.7,0.5-2.6c0.3-0.9,0.8-1.9,1.6-3
		c0.5-0.7,0.3-1.7-0.4-2.2C213.8,130.4,212.8,130.6,212.3,131.3L212.3,131.3z"/>
	<g>
		<path class="st6" d="M266.3,115.1c0.2,0.8,0.4,1.7,0.6,2.5c-8.7-3.7-16.9-8.2-24.7-13.6c-2.9-2-6-4.5-6.6-7.9
			c-0.5-2.9,0.9-5.9,2.9-8.1c3.7-4.2,9.7-6.2,15.2-5.1c5.5,1.1,10.3,5.1,12.2,10.4c0.3,0.7,0.4,1.6-0.1,2.2
			c-0.4,0.4-0.9,0.4-1.4,0.5c-8.7,0.6-17.5,0.5-26.3-0.1c-1,3.9,0.9,8,3.3,11.2c3.6,4.8,8.7,8.8,14.6,9.7s12.6-1.7,15.3-7.1
			c3.4-6.8-0.6-15.4-6.9-19.5c-4.6-3-10.2-4.3-15.6-3.5c-1.8,0.3-3.7,0.8-4.8,2.3c-0.7,1-1,2.3-1.1,3.5c-0.3,5.3,2.7,10.7,7.4,13.2
			c5.6,3,12.4,1.8,18.6,0.6c1.3-0.3,2.8-0.6,3.6-1.6c1.5-1.8,0.5-4.5-0.8-6.4c-3.9-5.7-10.6-9.5-17.6-9.9c-1.8-0.1-4,0.3-4.5,2
			c-0.6,1.8,1.3,3.5,2.9,4.5c7.4,4.5,15.6,7.8,24,9.8c-0.1,1.7-2,2.5-3.7,2.9c-15.2,3.6-31.8,0.3-44.4-8.8c9.9-1.9,20-4.7,28.1-10.7
			c1.4-1.1,2.8-2.2,4.5-2.9c4.3-1.8,9.3,0.2,13.3,2.6c1.4,0.9,2.8,1.8,3.7,3.2c0.9,1.4,1.1,3.3,0.1,4.7c-0.8,1-2.1,1.5-3.4,1.8
			c-8.8,2.4-19,2.7-26.2-2.9c-1.6-1.3-3.1-3.6-1.9-5.2c0.7-0.9,1.9-1.1,2.9-1.3c3.3-0.6,6.7-1.2,10-0.7c3.3,0.5,6.6,2.4,7.9,5.5
			c0.2,0.6,0.4,1.2,0.2,1.8c-0.3,1-1.6,1.4-2.7,1.6c-6.6,1.2-13.5,1.3-20.1,0.3c-3.9-0.6-7.9-1.6-10.8-4.2s-4.5-7.1-2.6-10.5
			c-2.1,0.1-3.6,1.9-4.4,3.8c-2.5,5.6-0.8,12.8,3.9,16.7c5.1,4.2,12.3,4.3,18.9,3.8c9.2-0.7,18.9-2.5,26-8.4c1.2-1,2.3-2.2,2.1-3.7
			c-0.1-0.7-0.5-1.3-0.9-1.9c-6.9-9.4-20.2-13.6-31.2-9.7c-4.1,1.5-8.2,4.4-9,8.7c-0.5,2.6,0.4,5.4-0.5,7.9c-0.8,2.3-2.9,4-5.2,4.8
			s-4.8,0.7-7.2,0.3c-0.8-0.1-1.7-0.3-2.4-0.9c-0.9-0.8-1.1-2.1-1.2-3.3c-0.6-5-0.9-10.8,2.8-14.2c3.3-3.1,8.3-3,12.9-2.7
			c18.2,1.2,36.4,2.3,54.6,3.5c2.2,0.1,4.8,0.6,5.6,2.6c0.4,1,0.1,2.2-0.2,3.3c-1.1,3.8-2.8,7.5-5.5,10.5s-6.4,5-10.4,5.1
			c-4.3,0.2-8.4-1.9-12.2-4.1c-2.8-1.7-5.5-3.5-8.1-5.4c-1.5-1.1-3-2.4-3.5-4.2c-0.7-2.8,1.5-5.4,3.9-7s5.2-2.8,6.8-5.1
			c0.3-0.5,0.6-1,0.5-1.5c-0.1-0.7-0.8-1.2-1.4-1.5c-7.5-4.1-16.9-4.8-24.9-1.7c-0.8,0.3-1.6,0.7-2.1,1.4c-1,1.4-0.3,3.3,0.5,4.7
			c2.7,4.8,6.5,8.9,11.1,12c1.4,0.9,2.9,1.8,4.5,2c2,0.3,4-0.3,6-0.9c5.7-1.8,11.3-3.7,16.9-5.7"/>
		
			<ellipse transform="matrix(0.314 -0.9494 0.9494 0.314 -24.0142 305.4885)" class="st7" cx="199.4" cy="169.4" rx="2.2" ry="4.8"/>
		<ellipse transform="matrix(0.314 -0.9494 0.9494 0.314 -4.9109 309.1256)" class="st7" cx="211.5" cy="158" rx="5.8" ry="8.4"/>
		<g>
			<g>
				<path class="st7" d="M300.5,73.4c0.4-2,0.7-4,0.7-6.1c0-19.2-19.2-34.7-42.8-34.7c-20.1,0-36.9,11.2-41.5,26.3
					c-15.3,3-27,18.7-27,37.7c0,18.4,11,33.7,25.6,37.3c-0.1,0.5-0.1,0.9-0.1,1.4c0,8.8,10.8,16,24,16c5.7,0,10.9-1.3,15-3.5
					c5.9,3.9,12.8,6.1,20.1,6.1c22.3,0,40.3-20.4,40.3-45.6C314.8,94.2,309.3,81.7,300.5,73.4z"/>
			</g>
		</g>
	</g>
</g>
</svg>
