<?xml version="1.0" encoding="UTF-8"?><svg id="layer1" xmlns="http://www.w3.org/2000/svg" xmlns:xlink="http://www.w3.org/1999/xlink" viewBox="0 0 400 220"><defs><style>.cls-1{stroke-width:1.75px;}.cls-1,.cls-2,.cls-3,.cls-4,.cls-5,.cls-6,.cls-7,.cls-8{fill:#fff;}.cls-1,.cls-2,.cls-3,.cls-9,.cls-5,.cls-6,.cls-10,.cls-11,.cls-7,.cls-8{stroke:#000;}.cls-1,.cls-2,.cls-3,.cls-9,.cls-10,.cls-11,.cls-7{stroke-linecap:round;}.cls-1,.cls-5,.cls-6,.cls-8{stroke-miterlimit:10;}.cls-2{stroke-width:2.56px;}.cls-2,.cls-3,.cls-9,.cls-10,.cls-11,.cls-7{stroke-linejoin:round;}.cls-3{stroke-width:2.56px;}.cls-12{stroke-width:1.65px;}.cls-12,.cls-9,.cls-13,.cls-14,.cls-10,.cls-11{fill:none;}.cls-12,.cls-13,.cls-14{stroke:#1e3050;}.cls-9{stroke-width:3.17px;}.cls-5{stroke-width:1.99px;}.cls-13{stroke-width:1.58px;}.cls-14{stroke-width:.79px;}.cls-6{stroke-width:1.94px;}.cls-10{stroke-width:2.63px;}.cls-15{filter:url(#drop-shadow-1);}.cls-11{stroke-width:2.37px;}.cls-7{stroke-width:2.18px;}.cls-8{stroke-width:2.1px;}</style><filter id="drop-shadow-1" filterUnits="userSpaceOnUse"><feOffset dx="5.28" dy="5.28"/><feGaussianBlur result="blur" stdDeviation="5.28"/><feFlood flood-color="#1e3050" flood-opacity=".75"/><feComposite in2="blur" operator="in"/><feComposite in="SourceGraphic"/></filter></defs><g><path class="cls-4" d="M378.14,124.46c0-10.81-10.3-19.69-23.43-20.62,.29-1.33,.45-2.71,.45-4.11,0-11.85-10.75-21.46-24.01-21.46-6.45,0-12.3,2.28-16.61,5.97-3.7-3.15-8.93-5.13-14.75-5.13-.5,0-.99,.03-1.48,.06-4.33-3.67-10.9-6.82-18.75-8.62-12.84-2.94-25.16-1.36-30.93,3.42-.49-.92-1.09-1.82-1.85-2.66-5.54-6.22-16.3-7.64-24.01-3.17-1.84,1.06-3.32,2.37-4.47,3.81-3.13-6.36-10.83-10.87-19.85-10.87-8.44,0-15.71,3.95-19.18,9.66-2.2-1.27-4.89-2.02-7.8-2.02-5.01,0-9.37,2.21-11.69,5.49-4.24-5.22-11.55-8.67-19.88-8.67-13.11,0-23.73,8.56-23.73,19.11,0,2.01,.39,3.96,1.11,5.78-.37-.02-.73-.05-1.11-.05-7.84,0-14.39,4.37-16.14,10.25-.22-.05-.44-.11-.66-.16-15.76-3.61-31.46,1.73-35.07,11.93-2.56,7.24,1.65,14.97,9.94,20.15-6.89,5.22-11.07,12-11.07,19.42,0,16.47,20.54,29.83,45.89,29.83,6.48,0,12.65-.88,18.24-2.46,6.49,8.49,18.91,14.24,33.18,14.24,9.92,0,18.95-2.78,25.71-7.32,3.46,7.2,13.65,12.42,25.67,12.42,9.61,0,18.05-3.34,22.81-8.36,5.3,5.05,14.03,8.36,23.9,8.36s18.49-3.26,23.8-8.26c4.86,2,10.72,3.16,17.03,3.16,16.87,0,30.54-8.34,30.54-18.63,0-1.03-.14-2.04-.41-3.03,6.86,1.93,16.16-.02,23.41-5.46,8.93-6.7,11.53-16.27,6.26-22.03,10.91-2.4,18.93-10.43,18.93-19.97Z"/><path class="cls-12" d="M378.14,124.46c0-10.81-10.3-19.69-23.43-20.62,.29-1.33,.45-2.71,.45-4.11,0-11.85-10.75-21.46-24.01-21.46-6.45,0-12.3,2.28-16.61,5.97-3.7-3.15-8.93-5.13-14.75-5.13-.5,0-.99,.03-1.48,.06-4.33-3.67-10.9-6.82-18.75-8.62-12.84-2.94-25.16-1.36-30.93,3.42-.49-.92-1.09-1.82-1.85-2.66-5.54-6.22-16.3-7.64-24.01-3.17-1.84,1.06-3.32,2.37-4.47,3.81-3.13-6.36-10.83-10.87-19.85-10.87-8.44,0-15.71,3.95-19.18,9.66-2.2-1.27-4.89-2.02-7.8-2.02-5.01,0-9.37,2.21-11.69,5.49-4.24-5.22-11.55-8.67-19.88-8.67-13.11,0-23.73,8.56-23.73,19.11,0,2.01,.39,3.96,1.11,5.78-.37-.02-.73-.05-1.11-.05-7.84,0-14.39,4.37-16.14,10.25-.22-.05-.44-.11-.66-.16-15.76-3.61-31.46,1.73-35.07,11.93-2.56,7.24,1.65,14.97,9.94,20.15-6.89,5.22-11.07,12-11.07,19.42,0,16.47,20.54,29.83,45.89,29.83,6.48,0,12.65-.88,18.24-2.46,6.49,8.49,18.91,14.24,33.18,14.24,9.92,0,18.95-2.78,25.71-7.32,3.46,7.2,13.65,12.42,25.67,12.42,9.61,0,18.05-3.34,22.81-8.36,5.3,5.05,14.03,8.36,23.9,8.36s18.49-3.26,23.8-8.26c4.86,2,10.72,3.16,17.03,3.16,16.87,0,30.54-8.34,30.54-18.63,0-1.03-.14-2.04-.41-3.03,6.86,1.93,16.16-.02,23.41-5.46,8.93-6.7,11.53-16.27,6.26-22.03,10.91-2.4,18.93-10.43,18.93-19.97Z"/></g><g><path d="M84.39,39.51c-.06-.81-.11-1.25-.23-1.82l-.31-1.45-4.71-.45-.58,1.36c-.28,.64-.44,1.14-.58,1.75l-3.87-.37c.3-.47,.48-.85,.99-1.94l4.53-9.62c.37-.78,.57-1.26,.7-1.74l4.32,.41c.07,.49,.14,.93,.39,1.84l2.64,10.3c.23,.91,.43,1.61,.6,2.09l-3.87-.37Zm-2.18-11.24l-2.01,4.82,3.11,.3-1.1-5.11Z"/><path d="M94.37,26.57c-.17,.67-.25,1.23-.37,2.44l-.85,8.87c-.11,1.14-.14,1.76-.1,2.46l-3.64-.35c.16-.64,.26-1.33,.37-2.44l.85-8.87c.12-1.24,.13-1.72,.1-2.46l3.64,.35Z"/><path d="M95.72,30.09c.07,.02,.11,.03,.15,.03,.53,.05,2.11,.07,3.22,.02,.43-1.69,.64-2.66,.69-3.22,0-.07,.02-.17,.03-.28l2.97,.57c-.08,.19-.11,.26-.14,.39-.02,.05-.05,.2-.08,.29l-.17,.58c-.23,.83-.41,1.5-.49,1.76,.29,0,.48,.01,.72,.03,1.03,.1,1.76,.39,2.28,.89,.78,.76,1.01,1.8,.83,3.67-.25,2.58-.83,4.68-1.6,5.77-.27,.37-.72,.7-1.15,.87-.35,.12-.78,.16-1.31,.11-.76-.07-1.5-.26-2.59-.68,.1-.47,.11-.66,.14-.95,.07-.73,.05-1.18-.06-2.01,.91,.47,1.73,.77,2.21,.81,.35,.03,.58-.16,.81-.67,.32-.7,.68-2.36,.8-3.63,.07-.69,0-1.1-.19-1.35-.16-.23-.39-.32-.97-.38-.15-.01-.31-.03-.67-.03-.86,2.66-2.12,5.41-3.73,8.09-.16,.3-.2,.35-.32,.59l-2.59-1.7c1.17-1.29,2.88-4.43,3.81-7.03-1.06,.05-2.13,.13-2.63,.23v-2.77Zm11.26-2.41c.59,.79,1.05,1.6,1.41,2.52l-1.64,.61c-.45-1.1-.8-1.75-1.41-2.57l1.64-.56Zm1.93,3.07c.92,1.56,1.64,3.8,1.97,6.12l-2.84,1.03c-.15-2.13-.87-4.86-1.67-6.24l2.54-.91Zm.37-3.86c.55,.72,.95,1.39,1.43,2.46l-1.59,.6c-.46-1.1-.86-1.8-1.39-2.52l1.55-.54Z"/><path d="M121.89,33.37c-.25,0-.3,0-.64,.04-.66,.05-1.71,.09-2.53,.09l-.14,1.46c.98-.12,1.57-.13,2.44-.05,2.03,.19,3.51,.85,4.37,1.94,.66,.81,.95,1.89,.84,3.04-.22,2.33-2.16,3.92-4.51,3.69-2.05-.2-3.11-1.68-2.88-4.07,0-.08,.02-.23,.04-.41,1.24-.23,1.65-.36,2.61-.77-.05,.34-.08,.53-.12,.87-.05,.51-.04,.8,.03,1.05,.09,.31,.35,.54,.68,.57,.71,.07,1.25-.47,1.33-1.31,.05-.56-.19-1.14-.67-1.53-.42-.32-1.05-.54-1.93-.62-.81-.08-1.5-.06-2.46,.1l-.26,2.93-.04,.43c-.1,1.01-.2,1.37-.48,1.69-.36,.43-1.01,.64-1.76,.57-1.22-.12-2.58-.76-3.45-1.65-.62-.64-.95-1.46-.87-2.25,.09-.89,.72-1.82,1.8-2.6,.72-.52,1.45-.86,2.61-1.24l.19-1.95-1.26-.09-1.6-.19s-.2-.02-.35-.02l.22-2.6c.52,.15,1.19,.26,2.25,.37,.1,0,.12,.01,.63,.06q.23,0,.33,.01l.05-.53c.12-1.24,.14-1.62,.1-2.24l2.86,.27c-.14,.59-.19,.97-.3,2.06l-.05,.53c1.14,0,2.18-.11,3.08-.27l-.17,2.62Zm-6.24,4.7c-.81,.29-1.47,.88-1.51,1.34-.02,.2,.08,.38,.31,.56,.22,.17,.52,.32,.72,.34,.21,.02,.28-.09,.33-.64l.15-1.6Zm9.6-2.75c-.7-1.55-1.54-2.77-2.89-4.2l2.32-1.26c1.3,1.28,2.21,2.53,2.91,3.97l-2.35,1.5Z"/><path d="M138.25,37.57c1.23,.03,1.65,0,2.78-.27,.84,1.33,1.15,2.48,1.02,3.84-.12,1.26-.87,2.44-2,3.11-1.1,.68-2.51,.95-4.13,.79-1.7-.16-3-.74-3.86-1.69-.72-.82-.99-1.83-.86-3.19,.03-.36,.09-.73,.17-1.22-.51-.08-1.19-.26-2.1-.54-.32-.1-.42-.12-.7-.17l.45-2.63c.73,.35,1.33,.53,2.82,.85,.03-.16,.17-.72,.39-1.63-.66-.13-1.19-.28-2.25-.6-.24-.07-.34-.1-.58-.17l.43-2.55c.7,.32,1.65,.59,2.94,.85,.29-1.07,.42-1.78,.47-2.34,0-.05,.01-.13,.02-.23l3.04,.54c-.23,.51-.33,.87-.71,2.37,1.63,.11,2.6,.08,3.63-.07l-.36,2.74q-.38,0-1.2-.01c-1.1,0-1.61-.04-2.72-.14q-.04,.21-.19,.8c-.05,.21-.08,.34-.2,.88,.15,.01,.3,.03,.35,.03,1.29,.12,2.48,.1,3.46-.05l-.08,.69Zm-.24,1.96c-.17,0-.18,0-.54,.02-.77,.03-1.78,0-2.61-.08-.17-.02-.28-.03-.74-.09-.04,.21-.08,.53-.11,.79-.06,.66,.06,1.12,.38,1.47,.36,.4,.96,.64,1.73,.72,1.8,.17,2.96-.52,3.08-1.84,.08-.84-.25-1.78-.97-2.75l-.22,1.76Z"/><path d="M149.31,31.72c-.28,1.02-.9,5.42-1.17,8.19-.16,1.65-.14,2.16,.1,2.63,.27,.53,.95,.89,1.86,.98,1.7,.16,3.12-.72,3.94-2.44,.42-.86,.68-1.72,.95-2.93,1.13,1.08,1.65,1.48,2.66,2.01-.87,2.42-1.53,3.58-2.53,4.5-1.44,1.3-3.23,1.84-5.4,1.64-1.69-.16-2.91-.7-3.72-1.63-.86-1-1.07-2.09-.85-4.41q.04-.43,.44-3.75c.19-1.67,.38-3.24,.44-3.88,.05-.51,.06-.78,.04-1.27l3.24,.36Z"/><path d="M161.4,33.15c.52,.17,1.1,.24,3.33,.45,1.31,.13,3.07,.21,4.16,.22,.58-.01,.65-.02,.98-.12l1.22,2.2c-.47,.22-.69,.38-2.67,1.88-.74,.56-1.94,1.42-2.47,1.75,.81-.14,1.32-.16,2.08-.08,1.46,.14,2.69,.66,3.48,1.45,.65,.66,.96,1.65,.86,2.74-.14,1.51-.99,2.69-2.47,3.45-1.16,.59-2.66,.8-4.48,.62-1.36-.13-2.53-.39-3.91-.86,.07-1.26,.04-1.78-.19-3.02,1.44,.67,2.92,1.1,4.21,1.22,2.13,.2,3.67-.45,3.78-1.62,.09-.96-.76-1.59-2.35-1.75-1.64-.16-3.27,.19-4.99,1.06-.67,.34-1.09,.61-1.58,1.02l-1.49-2.58c1.55-.64,4.8-2.88,7.51-5.14-.74,.03-2.5-.02-3.69-.12-.75-.05-1.13-.06-1.47-.02l.18-2.74Z"/><path d="M178.54,35.36c-.19,.73-.35,1.77-.47,2.98-.35,3.71-.09,6.55,.6,6.62,.18,.02,.38-.18,.59-.59,.45-.89,.84-1.81,1.13-2.78,.68,.98,1.09,1.41,2.1,2.3-.47,1.24-.96,2.2-1.56,3.07-.72,1.03-1.67,1.54-2.68,1.45-.93-.09-1.67-.64-2.23-1.65-.74-1.31-1.03-3-.99-5.66,.03-1.17,.1-2.56,.28-4.86,.04-.56,.05-.73,.05-1.18l3.18,.3Zm7.57,1.33c1.9,2.8,2.82,5.95,2.9,9.99l-3.07,.81c.17-3.72-.66-7.09-2.46-9.89l2.63-.92Z"/><path d="M194.06,45.86c-1.01,.39-1.56,.55-2.76,.89-.38-1.09-.63-1.6-1.25-2.47,1.93-.27,3.44-.71,5.58-1.65-.47-.65-.92-1.16-1.61-1.84-.65,.37-1.11,.6-2.01,.98-.43-.91-.75-1.41-1.37-2.1,1.47-.51,2.61-1.08,3.89-1.96,.98-.67,1.8-1.48,2.38-2.36l2.74,.81c-.39,.45-.52,.6-.76,.84l3.18,.3c.6,.06,.96,.08,1.36,.05l1.24,1.5q-.26,.26-.72,.75c-1.26,1.28-3.12,2.76-4.87,3.82l4.5,.43c.76,.07,1.18,.1,1.58,.1-.11,.46-.17,.95-.25,1.7l-.43,4.53c-.08,.81-.09,1.31-.07,1.81l-2.6-.25,.08-.86-5.74-.55-.08,.86-2.6-.25c.12-.52,.2-1.03,.27-1.79l.32-3.29Zm2.52-6.79c-.29,.22-.34,.27-.59,.44q1.09,1.04,1.83,1.93c1.12-.71,1.7-1.14,2.63-2l-3.87-.37Zm-.23,9.06l5.77,.55,.25-2.65-5.77-.55-.25,2.65Z"/><path d="M209.83,50.64c-.08,.86-.1,1.21-.09,1.81l-2.6-.25c.12-.59,.21-1.15,.29-1.98l.7-7.31c.08-.79,.09-1.11,.08-1.51,.44,.08,.86,.13,1.5,.19l3.9,.37c.78,.07,1.08,.09,1.45,.09-.07,.41-.12,.76-.2,1.57l-.69,7.2c-.15,1.55-.63,1.89-2.53,1.71-.18-.02-.45-.04-.79-.09-.06-1.09-.1-1.35-.34-2.22,.47,.1,.64,.13,.92,.15,.3,.03,.37-.03,.4-.31l.07-.73-1.92-.18-.14,1.49Zm1.6-11.82c-.25-.56-.38-.79-.78-1.41l2.66-.4c.43,.78,.76,1.48,.99,2.08l2.07,.2c.52-.58,.82-1.02,1.23-1.83l2.64,.87c-.38,.52-.63,.83-1.02,1.24l1.74,.17c.91,.09,1.32,.11,1.88,.08l-.23,2.45c-.49-.11-.92-.17-1.86-.26l-11.2-1.07c-.91-.09-1.37-.11-1.89-.1l.23-2.45c.59,.14,1.02,.2,1.88,.28l1.69,.16Zm.65,8.58l.07-.74-1.92-.18-.07,.74,1.92,.18Zm.26-2.68l.07-.74-1.92-.18-.07,.74,1.92,.18Zm6.08-1.95c-.09,.44-.15,.87-.22,1.58l-.36,3.72c-.08,.84-.1,1.19-.1,1.71l-2.53-.24c.1-.57,.15-.87,.23-1.67l.36-3.77c.07-.69,.08-1.04,.08-1.58l2.53,.24Zm3.5-.08c-.11,.51-.17,.95-.25,1.71l-.65,6.75c-.1,1.03-.28,1.48-.69,1.75-.52,.33-1.02,.39-2.58,.24q-.18-.02-1.37-.15c-.07-1.01-.17-1.5-.47-2.45,.88,.17,1.38,.25,1.97,.31,.56,.05,.67,0,.71-.4l.61-6.35c.08-.86,.1-1.18,.09-1.66l2.61,.25Z"/><path d="M224.77,39.99c.7,.23,1.68,.39,3.4,.56,.1,0,.26,.03,.46,.04,.41-.76,.57-1.2,.69-1.79l3.01,.52c-.16,.24-.18,.25-.42,.74-.26,.46-.39,.72-.41,.75q.17,0,1.02,.03c1.63,.07,3.34,.02,4.24-.13l-.15,2.64c-.52,0-1.02,0-1.5,0-1.19,0-3.27-.08-4.96-.19-.33,.47-.46,.66-.91,1.15,.74-.26,1.44-.36,2.15-.29,1.37,.13,2.15,.74,2.38,1.85q.29-.07,1.2-.29c.05-.01,.51-.12,1.06-.23,.97-.22,1.09-.25,1.37-.37l.76,2.71c-.87,.03-2.69,.33-4.33,.72-.03,.45-.03,.46-.1,1.19-.07,.74-.08,.99-.07,1.43l-2.7-.18c.07-.24,.14-.75,.25-1.74l-.16,.05c-.79,.29-.9,.35-1.22,.58-.3,.22-.48,.5-.51,.8-.06,.63,.53,.94,2.13,1.09,1.99,.19,3.92,.08,5.37-.32l-.1,3q-.48-.03-1.49,0c-1.34,.04-2.72-.01-4.01-.13-1.87-.18-3.02-.52-3.86-1.14-.78-.56-1.18-1.48-1.08-2.47,.07-.78,.38-1.38,1.01-2.01,.68-.65,1.48-1.13,2.55-1.54,.42-.16,.59-.21,1.28-.45-.12-.3-.31-.45-.62-.48-.84-.08-2.04,.39-3.3,1.29-.75,.55-1.24,.97-1.75,1.52l-1.9-2.29c.57-.35,1.33-.96,1.92-1.55,.41-.41,1.16-1.31,1.45-1.68q.29-.39,.37-.5c-.23-.02-.41-.04-.53-.05q-.71-.07-1.42-.15c-.23-.04-.34-.05-.57-.07-.03,0-.13-.01-.25-.02l.28-2.61Z"/><path d="M239.69,43.14c.67,0,1.09-.03,2.22-.17,3.44-.37,4.73-.43,6.4-.27,1.74,.17,3.08,.64,4.01,1.43,1.2,1.03,1.8,2.59,1.64,4.3-.23,2.43-1.86,4.4-4.42,5.34-1.75,.63-3.4,.86-6.34,.84-.25-1.53-.36-1.85-.89-3.11,2.04,.18,3.48,.13,4.77-.13,1.34-.26,2.33-.78,3.02-1.58,.41-.46,.63-.98,.69-1.6,.06-.66-.08-1.21-.46-1.66-.48-.6-1.21-.92-2.37-1.03-1.75-.17-3.79,0-6.48,.56-.63,.12-1.08,.25-1.47,.39l-.32-3.32Z"/><path d="M260.63,42.62c-.55,1.38-.98,2.89-1.33,4.61-.21,1.01-.38,2.25-.53,3.79,0,0-.01,.15-.04,.61,.3-.71,.61-1.29,1.04-1.95l1.84,1.15c-1.24,1.63-2.41,4.04-2.64,5.44l-2.67-.16q-.02-.35-.11-1.33c-.15-1.6-.13-3.53,.04-5.29,.17-1.82,.32-2.59,1.15-6.1,.14-.62,.18-.87,.23-1.3l3.02,.52Zm.43,2.95c.83,.23,1.77,.4,2.96,.52,.61,.06,1.03,.08,1.51,.08,.15-2.82,.16-2.86,.08-3.46l2.95,.25c-.06,.31-.09,.44-.11,.62,0,.07-.02,.17-.01,.32-.01,.32-.07,1.1-.15,2.29,.97-.04,1.67-.14,2.37-.34l-.11,2.78c-.28,0-.38,.01-.97,.06-.61,.06-.64,.07-1.44,.08-.06,.8-.07,.96-.11,1.34-.2,2.12-.69,3.76-1.44,4.8-.85,1.2-1.75,1.9-3.53,2.72-.67-1.03-1.16-1.61-2.06-2.42,1.79-.58,2.98-1.47,3.57-2.61,.39-.76,.6-1.73,.78-3.66,0-.02,.01-.1,.02-.2-.65-.01-1.06-.04-1.78-.1-.63-.06-1.15-.13-1.73-.22q-.54-.09-1.06-.13l.27-2.7Z"/><path d="M273.9,43.89c.69,.15,1.3,.24,2.37,.34,1.47,.14,3.31,.25,5,.28,.73,.02,.95,0,1.28-.11l1.17,2.13q-.45,.21-2.87,1.91c-.95,.66-1.27,.88-2.46,1.58,.95-.14,1.44-.16,2.29-.08,1.55,.15,2.63,.62,3.43,1.46,.73,.79,1.05,1.79,.93,2.98-.16,1.67-1.06,2.92-2.65,3.67-1.21,.55-2.83,.78-4.48,.62-2.8-.27-4.39-1.54-4.22-3.38,.15-1.54,1.63-2.52,3.55-2.33,1.19,.11,2.21,.68,2.84,1.56,.3,.4,.45,.74,.64,1.38,.93-.31,1.4-.83,1.48-1.68,.11-1.16-.95-1.98-2.78-2.15-1.75-.17-3.66,.2-5.24,1.03-.55,.28-1.12,.64-1.71,1.09l-1.3-2.66c1.59-.57,5.34-2.94,7.59-4.78-.89,.02-1.55-.02-3.9-.12-.45-.03-.77-.02-1.1-.02l.15-2.72Zm3.07,11.18c-.38-.04-.67,.15-.7,.48-.04,.45,.46,.78,1.35,.86,.2,.02,.23,.02,.55,0-.14-.81-.56-1.29-1.21-1.35Z"/><path d="M296.05,45.36c-.14,.72-.3,1.92-.42,3.13,0,.03-.01,.13-.02,.23,1.94,.19,3.79,.18,4.88-.02l-.08,2.76c-.33-.01-.48-.01-1.17-.01-1.69,0-2.34-.02-3.83-.13q-.04,.78-.12,3.04c1.63,.74,2.7,1.44,4.46,2.96,.28,.23,.33,.26,.5,.4l-2.04,2.43c-.66-.98-1.79-2.04-3.16-2.92,0,.12,0,.22-.01,.28-.07,.78-.37,1.38-.87,1.8-.76,.63-2.06,.91-3.56,.76-1.34-.13-2.48-.56-3.18-1.17-.66-.6-1-1.57-.9-2.57,.1-1.01,.62-1.81,1.53-2.36,.9-.52,1.94-.7,3.31-.57,.43,.04,.68,.08,1.15,.19,.06-1.33,.29-4.73,.47-6.98,.06-.81,.08-1.03,.07-1.56l3.01,.31Zm-4.88,10.53c-.99-.1-1.65,.18-1.7,.69-.05,.55,.43,.93,1.26,1.01,.68,.06,1.23-.13,1.43-.5,.08-.18,.11-.26,.15-.7,0-.08,.02-.22,.02-.22-.47-.18-.71-.24-1.16-.28Z"/></g><line class="cls-9" x1="287.93" y1="28.19" x2="298.21" y2="37.28"/><line class="cls-9" x1="297.09" y1="20.96" x2="303.95" y2="32.84"/><g><g><path d="M36.35,141.66c-2.05,1.32-3.2,1.93-5.7,3.22-1.3-2.35-2.07-3.42-3.8-5.19,4.14-1.43,7.29-3.08,11.62-6.17-1.31-1.29-2.53-2.28-4.33-3.57-1.28,1.13-2.19,1.84-4.03,3.1-1.33-1.92-2.25-2.93-3.9-4.27,3.02-1.8,5.3-3.61,7.76-6.18,1.88-1.97,3.33-4.18,4.25-6.46l6.4,.72c-.68,1.2-.91,1.61-1.33,2.27l7.13-.64c1.34-.12,2.15-.23,3.03-.47l3.37,2.95q-.46,.71-1.28,2.04c-2.23,3.49-5.72,7.68-9.14,10.89l10.11-.91c1.71-.15,2.63-.28,3.52-.43-.05,1.1,.02,2.27,.17,4.02l.95,10.65c.17,1.91,.35,3.06,.6,4.22l-5.83,.52-.18-2.02-12.89,1.16,.18,2.02-5.83,.52c.04-1.26,0-2.47-.16-4.26l-.69-7.74Zm2.69-16.74c-.54,.64-.64,.76-1.12,1.28q2.83,1.94,4.86,3.68c2.17-2.11,3.26-3.35,4.95-5.73l-8.7,.78Zm3.31,21.02l12.97-1.16-.56-6.22-12.97,1.16,.56,6.22Z"/><path d="M86.68,130.25c2.73-.44,3.64-.72,6.02-1.79,2.42,2.72,3.58,5.24,3.86,8.43,.26,2.95-.89,6-3.1,8.04-2.14,2.04-5.14,3.24-8.78,3.57-3.83,.34-6.93-.44-9.23-2.27-1.94-1.59-2.96-3.81-3.25-7-.08-.85-.12-1.71-.15-2.89-1.16,.02-2.74-.11-4.86-.35-.76-.09-.98-.11-1.62-.09l-.11-6.26c1.77,.51,3.17,.66,6.59,.78,0-.39,.07-1.73,.17-3.93-1.5-.02-2.75-.15-5.21-.43-.57-.07-.79-.08-1.36-.15l-.13-6.06c1.69,.44,3.88,.67,6.84,.72,.18-2.6,.18-4.29,.06-5.61-.01-.12-.03-.31-.05-.54l6.93-.03c-.3,1.28-.37,2.15-.57,5.77,3.63-.44,5.76-.91,7.98-1.69l.36,6.47q-.85,.15-2.65,.47c-2.43,.45-3.58,.59-6.07,.82q0,.51-.09,1.93c-.03,.51-.04,.83-.07,2.12,.33-.03,.67-.06,.78-.07,2.9-.26,5.51-.81,7.61-1.58l.11,1.64Zm.3,4.64c-.37,.07-.41,.08-1.18,.26-1.69,.39-3.94,.75-5.8,.91-.37,.03-.63,.06-1.68,.11,0,.51,.04,1.25,.09,1.87,.14,1.56,.6,2.57,1.45,3.24,.97,.77,2.38,1.08,4.13,.92,4.05-.36,6.3-2.45,6.02-5.56-.18-1.98-1.29-4-3.3-5.93l.26,4.17Z"/><path d="M113.42,110.97c-.16,.72-.2,.72-.43,3.17-.1,.95-.15,1.31-.25,2.22,2.35-.49,3.93-.9,5.08-1.4l.68,6.29q-.88,.16-2.72,.56c-.99,.21-3.02,.58-3.94,.75-.93,4.71-1.65,7.48-3.04,11.64-.62,1.86-.89,2.59-2.07,5.75q-.4,1.02-.57,1.58l-6.37-2.92c2.31-3.93,4.38-9.68,5.56-15.31q-.71,.06-2.08,.19-.85,.08-1.71,.12c-.15,.01-.3,.03-1.45,.13l-.56-6.22c1.44,.15,3.16,.11,5.46-.1,.41-.04,.59-.05,1.33-.16q0-.31,.19-1.66c.18-1.35,.23-3.27,.14-4.68l6.75,.06Zm18.92,31.34c-1.52-1.55-3.05-2.67-5.17-3.81,.05,1.84-.29,3-1.2,4.18-1.31,1.65-3.83,2.77-6.81,3.04-2.97,.27-5.58-.44-7.25-1.94-1.34-1.21-2.13-2.83-2.29-4.65-.4-4.51,2.92-7.98,8.08-8.44,.78-.07,1.38-.08,2.62,0-.24-1.47-.35-2.2-.43-3.1-.14-1.59-.18-2.84-.19-4.61l6.16-.28c-.18,1.39-.18,2.56-.01,4.43,.13,1.4,.3,2.56,.7,4.48,2.36,.85,4.2,1.74,6.03,2.95,.12,.07,.76,.52,1.96,1.36l-2.2,6.39Zm-13.96-6.12c-1.75,.16-2.79,1.03-2.68,2.24,.1,1.13,1.21,1.77,2.8,1.63,1.86-.17,2.75-1.11,2.6-2.74-.02-.27-.11-.81-.15-.85-1.04-.3-1.68-.36-2.57-.28Zm12.69-12.15c-3.7-1.98-7.5-3.4-12.06-4.56l2.6-5.64c4.84,1.33,8.01,2.46,11.65,4.25l-2.2,5.96Z"/><path d="M137.52,113.15c1.31,.04,2.54-.03,4.25-.18,2.12-.19,4.97-.56,6.63-.87-.97-2.07-1.51-3.08-1.91-3.75l6.43-1.4c.3,1.23,.64,2.1,1.51,3.94,3.52-.83,7.79-2.15,9.87-3.08l1.03,5.63q-.69,.22-2.7,.83c-2.11,.66-2.15,.7-5.81,1.66,.36,.71,.86,1.68,1.04,1.94,5.08-1.43,6.82-2.02,8.47-2.84l1.07,5.66q-.84,.19-4.49,1.34s-1.72,.47-2.19,.63c1.77,2.66,2.95,4.12,5.4,6.73l-5.2,3.44c-2.3-1.01-4.72-1.3-7.96-1.01-4.12,.37-6.31,1.47-6.16,3.1,.13,1.44,2.12,1.96,6.06,1.61,4.27-.38,8.76-1.73,11.6-3.47l1.44,6.49q-.77,.19-2.55,.78c-3.46,1.13-6.84,1.83-10.3,2.14-5.65,.51-9.55-.4-11.59-2.68-.96-1.09-1.62-2.64-1.76-4.15-.24-2.72,1.24-5.36,3.85-6.81,2.11-1.17,4.59-1.86,7.82-2.15,1.97-.18,3.47-.19,5.17,0-.46-.55-1.1-1.43-1.96-2.61-3.12,.71-7.37,1.37-12.71,2-2.22,.28-2.33,.29-3.22,.48l-.78-5.73c1.09,.02,1.8,0,3.84-.19,3.57-.32,7.12-.83,10.1-1.45-.14-.3-.5-.97-1.04-1.98-3.24,.64-4.94,.87-9.66,1.3-1.67,.19-1.93,.21-2.78,.33l-.85-5.69Z"/><path d="M173.7,106.42c1.39,3.36,2.04,5.15,2.83,8.13l-3.65,2.36c-.87-3.49-1.54-5.47-2.75-8.1l3.57-2.4Zm13.36,22c-.3,1.2-.43,1.84-.71,3.32-1.26-1.1-2.05-1.97-3.17-3.56,.26,1.66,.27,1.78,.38,3.02l.5,5.6c.16,1.83,.28,2.72,.52,3.75l-5.83,.52c.04-1.18,.02-2.27-.13-3.94l-.31-3.5c-.13-1.4-.2-2.25-.21-3.19-1.23,3.44-1.89,4.79-3.29,6.72-.87-2.23-1.69-3.81-2.94-5.65,2.1-2.42,3.78-5.51,4.77-9.01l-1.41,.13c-1.75,.16-2.49,.26-3.48,.51l-.51-5.72c.87,.08,1.65,.05,3.47-.12l2.08-.19-.83-9.21c-.15-1.63-.26-2.48-.46-3.45l5.76-.52c-.03,.9,0,1.76,.16,3.43l.51,5.64c.54-1.93,.95-4.44,1.25-7.4l4.04,1.6c-.64,3.74-1.21,6.18-2.14,8.7l-3.02-1.53,.2,2.25,1.75-.16c1.56-.14,2.12-.23,2.88-.46l.26,2.88,2.67-3.69c2.97,1.81,4.61,3,6.81,4.95l-3.03,4.7c-2.57-2.36-4.1-3.55-6.37-4.99l.17,1.87c-.94-.07-1.61-.05-3.06,.08l-1.23,.11c1.26,1.53,2.72,2.77,4.75,4.08-.29,.89-.38,1.17-.59,1.82,.81-.11,2.17-.43,3.34-.77l7.03-2.2-1.24-13.84-2.56,3.99c-2.61-2.35-3.53-3.05-6.87-5.18l3.16-4.4c3.05,1.8,4.4,2.74,6.15,4.23l-.18-2.06c-.22-2.49-.35-3.53-.66-4.88l6.13-.55c-.06,1.38,0,2.43,.22,4.92l1.44,16.06c1.16-.38,1.85-.64,2.93-1.13l.92,6.03c-.84,.19-1.8,.43-3.33,.92l.44,4.86c.23,2.53,.35,3.5,.67,4.92l-6.13,.55c.05-1.49,0-2.43-.22-4.99l-.32-3.61-6.52,2.03c-2.08,.66-2.77,.88-3.52,1.22l-1.06-5.51Z"/><path d="M210.1,108.37c-.89,.08-1.52,.18-2.59,.39l-.51-5.71c.98,.03,2.14,0,3.58-.13l4.91-.44c1.52-.14,2.56-.31,3.51-.51l.51,5.71c-.9-.04-1.72,0-2.58,.08l-.48,.04,.54,6.06,.22-.02c.89-.08,1.44-.17,2.25-.36l.49,5.44c-.86,0-1.46,.01-2.28,.09l-.22,.02,.49,5.44c1.18-.65,1.53-.84,2.81-1.66l.56,5.79c-2.83,1.82-4.93,3.03-9.86,5.7-.25,.14-.29,.14-.78,.46l-1.85-5.99c1.2-.38,1.67-.58,3.86-1.64l-.68-7.62-.45,.04c-1.08,.1-1.74,.2-2.59,.39l-.49-5.48c.86,.04,1.54,.02,2.73-.09l.33-.03-.54-6.06-.89,.08Zm19.54,19.45l-3.42,.31c-2.42,.22-3.08,.32-4.11,.53l-.49-5.48c.9,.04,1.65,0,4.1-.21l3.46-.31-.17-1.94-3.31,.3c-2.49,.22-3.27,.33-4.26,.5,.01-1.1-.08-2.54-.32-5.22l-.84-9.33c-.25-2.84-.41-4.12-.68-5.46,1.57,.02,2.77-.05,5.26-.28l10.63-.95c2.94-.26,4.01-.4,4.89-.63,0,1.21,.1,3.17,.33,5.77l.79,8.79c.27,2.99,.42,4.23,.67,5.43-1.12,.02-1.46,.05-3.65,.25l-4.27,.38,.18,1.94,3.94-.35c2.23-.2,3.19-.33,4.22-.57l.5,5.56c-1.17-.05-2.13,0-4.18,.18l-4.01,.36,.2,2.25,4.98-.45c2.19-.2,3.19-.33,4.22-.57l.51,5.71c-1.36-.07-2.44-.02-4.7,.19l-14.6,1.31c-2.23,.2-3.27,.33-4.74,.66l-.51-5.71c1.09,.06,1.95,.02,3.99-.16l5.61-.5-.2-2.25Zm-4.19-21.29l.21,2.29,2.27-.2-.21-2.29-2.27,.2Zm.61,6.84l.22,2.41,2.27-.2-.22-2.41-2.27,.2Zm7.1-5.22l2.27-.2-.21-2.29-2.27,.2,.21,2.29Zm.62,6.96l2.27-.2-.22-2.41-2.27,.2,.22,2.41Z"/><path d="M254.89,99.5c-1.05,4.56-1.51,11.93-1.14,19.03l2.95,.76c-.65,3.58-.82,7.13-.47,11.01,.07,.74,.1,1.09,.28,1.89l-6.36,.89c-.1-.74-.13-1.05-.37-2.04-1.17-5.15-1.74-8.5-2.07-12.2-.4-4.47-.39-9.41,.07-15.09,.2-2.76,.21-3.04,.18-4.21l6.93-.03Zm3.24,2.69c1.78,.23,3.77,.25,6.67,0,4.94-.44,8.56-1.08,10.99-1.96l.86,6.62c-.33,.03-.7,.1-2.73,.52-2.54,.5-5.24,.9-7.8,1.13-2.27,.2-4.13,.29-6.42,.26-.3-.01-.56,.01-1.09,.02l-.48-6.58Zm8.54,13.38c-1.5,2.45-2.13,4.19-2.01,5.59,.16,1.79,1.92,2.61,5.08,2.33,3.31-.3,6.38-1.12,9.11-2.42l.99,6.85q-.96,.2-3.12,.75c-1.98,.49-4.26,.89-6.38,1.08-3.46,.31-5.8,.01-7.84-.94-2.19-1.06-3.75-3.35-3.97-5.87-.17-1.91,.27-4.1,1.24-6.23,.44-.94,.63-1.35,1.5-2.96l5.41,1.83Z"/></g><g><path class="cls-14" d="M36.35,141.66c-2.05,1.32-3.2,1.93-5.7,3.22-1.3-2.35-2.07-3.42-3.8-5.19,4.14-1.43,7.29-3.08,11.62-6.17-1.31-1.29-2.53-2.28-4.33-3.57-1.28,1.13-2.19,1.84-4.03,3.1-1.33-1.92-2.25-2.93-3.9-4.27,3.02-1.8,5.3-3.61,7.76-6.18,1.88-1.97,3.33-4.18,4.25-6.46l6.4,.72c-.68,1.2-.91,1.61-1.33,2.27l7.13-.64c1.34-.12,2.15-.23,3.03-.47l3.37,2.95q-.46,.71-1.28,2.04c-2.23,3.49-5.72,7.68-9.14,10.89l10.11-.91c1.71-.15,2.63-.28,3.52-.43-.05,1.1,.02,2.27,.17,4.02l.95,10.65c.17,1.91,.35,3.06,.6,4.22l-5.83,.52-.18-2.02-12.89,1.16,.18,2.02-5.83,.52c.04-1.26,0-2.47-.16-4.26l-.69-7.74Zm2.69-16.74c-.54,.64-.64,.76-1.12,1.28q2.83,1.94,4.86,3.68c2.17-2.11,3.26-3.35,4.95-5.73l-8.7,.78Zm3.31,21.02l12.97-1.16-.56-6.22-12.97,1.16,.56,6.22Z"/><path class="cls-14" d="M86.68,130.25c2.73-.44,3.64-.72,6.02-1.79,2.42,2.72,3.58,5.24,3.86,8.43,.26,2.95-.89,6-3.1,8.04-2.14,2.04-5.14,3.24-8.78,3.57-3.83,.34-6.93-.44-9.23-2.27-1.94-1.59-2.96-3.81-3.25-7-.08-.85-.12-1.71-.15-2.89-1.16,.02-2.74-.11-4.86-.35-.76-.09-.98-.11-1.62-.09l-.11-6.26c1.77,.51,3.17,.66,6.59,.78,0-.39,.07-1.73,.17-3.93-1.5-.02-2.75-.15-5.21-.43-.57-.07-.79-.08-1.36-.15l-.13-6.06c1.69,.44,3.88,.67,6.84,.72,.18-2.6,.18-4.29,.06-5.61-.01-.12-.03-.31-.05-.54l6.93-.03c-.3,1.28-.37,2.15-.57,5.77,3.63-.44,5.76-.91,7.98-1.69l.36,6.47q-.85,.15-2.65,.47c-2.43,.45-3.58,.59-6.07,.82q0,.51-.09,1.93c-.03,.51-.04,.83-.07,2.12,.33-.03,.67-.06,.78-.07,2.9-.26,5.51-.81,7.61-1.58l.11,1.64Zm.3,4.64c-.37,.07-.41,.08-1.18,.26-1.69,.39-3.94,.75-5.8,.91-.37,.03-.63,.06-1.68,.11,0,.51,.04,1.25,.09,1.87,.14,1.56,.6,2.57,1.45,3.24,.97,.77,2.38,1.08,4.13,.92,4.05-.36,6.3-2.45,6.02-5.56-.18-1.98-1.29-4-3.3-5.93l.26,4.17Z"/><path class="cls-14" d="M113.42,110.97c-.16,.72-.2,.72-.43,3.17-.1,.95-.15,1.31-.25,2.22,2.35-.49,3.93-.9,5.08-1.4l.68,6.29q-.88,.16-2.72,.56c-.99,.21-3.02,.58-3.94,.75-.93,4.71-1.65,7.48-3.04,11.64-.62,1.86-.89,2.59-2.07,5.75q-.4,1.02-.57,1.58l-6.37-2.92c2.31-3.93,4.38-9.68,5.56-15.31q-.71,.06-2.08,.19-.85,.08-1.71,.12c-.15,.01-.3,.03-1.45,.13l-.56-6.22c1.44,.15,3.16,.11,5.46-.1,.41-.04,.59-.05,1.33-.16q0-.31,.19-1.66c.18-1.35,.23-3.27,.14-4.68l6.75,.06Zm18.92,31.34c-1.52-1.55-3.05-2.67-5.17-3.81,.05,1.84-.29,3-1.2,4.18-1.31,1.65-3.83,2.77-6.81,3.04-2.97,.27-5.58-.44-7.25-1.94-1.34-1.21-2.13-2.83-2.29-4.65-.4-4.51,2.92-7.98,8.08-8.44,.78-.07,1.38-.08,2.62,0-.24-1.47-.35-2.2-.43-3.1-.14-1.59-.18-2.84-.19-4.61l6.16-.28c-.18,1.39-.18,2.56-.01,4.43,.13,1.4,.3,2.56,.7,4.48,2.36,.85,4.2,1.74,6.03,2.95,.12,.07,.76,.52,1.96,1.36l-2.2,6.39Zm-13.96-6.12c-1.75,.16-2.79,1.03-2.68,2.24,.1,1.13,1.21,1.77,2.8,1.63,1.86-.17,2.75-1.11,2.6-2.74-.02-.27-.11-.81-.15-.85-1.04-.3-1.68-.36-2.57-.28Zm12.69-12.15c-3.7-1.98-7.5-3.4-12.06-4.56l2.6-5.64c4.84,1.33,8.01,2.46,11.65,4.25l-2.2,5.96Z"/><path class="cls-14" d="M137.52,113.15c1.31,.04,2.54-.03,4.25-.18,2.12-.19,4.97-.56,6.63-.87-.97-2.07-1.51-3.08-1.91-3.75l6.43-1.4c.3,1.23,.64,2.1,1.51,3.94,3.52-.83,7.79-2.15,9.87-3.08l1.03,5.63q-.69,.22-2.7,.83c-2.11,.66-2.15,.7-5.81,1.66,.36,.71,.86,1.68,1.04,1.94,5.08-1.43,6.82-2.02,8.47-2.84l1.07,5.66q-.84,.19-4.49,1.34s-1.72,.47-2.19,.63c1.77,2.66,2.95,4.12,5.4,6.73l-5.2,3.44c-2.3-1.01-4.72-1.3-7.96-1.01-4.12,.37-6.31,1.47-6.16,3.1,.13,1.44,2.12,1.96,6.06,1.61,4.27-.38,8.76-1.73,11.6-3.47l1.44,6.49q-.77,.19-2.55,.78c-3.46,1.13-6.84,1.83-10.3,2.14-5.65,.51-9.55-.4-11.59-2.68-.96-1.09-1.62-2.64-1.76-4.15-.24-2.72,1.24-5.36,3.85-6.81,2.11-1.17,4.59-1.86,7.82-2.15,1.97-.18,3.47-.19,5.17,0-.46-.55-1.1-1.43-1.96-2.61-3.12,.71-7.37,1.37-12.71,2-2.22,.28-2.33,.29-3.22,.48l-.78-5.73c1.09,.02,1.8,0,3.84-.19,3.57-.32,7.12-.83,10.1-1.45-.14-.3-.5-.97-1.04-1.98-3.24,.64-4.94,.87-9.66,1.3-1.67,.19-1.93,.21-2.78,.33l-.85-5.69Z"/><path class="cls-14" d="M173.7,106.42c1.39,3.36,2.04,5.15,2.83,8.13l-3.65,2.36c-.87-3.49-1.54-5.47-2.75-8.1l3.57-2.4Zm13.36,22c-.3,1.2-.43,1.84-.71,3.32-1.26-1.1-2.05-1.97-3.17-3.56,.26,1.66,.27,1.78,.38,3.02l.5,5.6c.16,1.83,.28,2.72,.52,3.75l-5.83,.52c.04-1.18,.02-2.27-.13-3.94l-.31-3.5c-.13-1.4-.2-2.25-.21-3.19-1.23,3.44-1.89,4.79-3.29,6.72-.87-2.23-1.69-3.81-2.94-5.65,2.1-2.42,3.78-5.51,4.77-9.01l-1.41,.13c-1.75,.16-2.49,.26-3.48,.51l-.51-5.72c.87,.08,1.65,.05,3.47-.12l2.08-.19-.83-9.21c-.15-1.63-.26-2.48-.46-3.45l5.76-.52c-.03,.9,0,1.76,.16,3.43l.51,5.64c.54-1.93,.95-4.44,1.25-7.4l4.04,1.6c-.64,3.74-1.21,6.18-2.14,8.7l-3.02-1.53,.2,2.25,1.75-.16c1.56-.14,2.12-.23,2.88-.46l.26,2.88,2.67-3.69c2.97,1.81,4.61,3,6.81,4.95l-3.03,4.7c-2.57-2.36-4.1-3.55-6.37-4.99l.17,1.87c-.94-.07-1.61-.05-3.06,.08l-1.23,.11c1.26,1.53,2.72,2.77,4.75,4.08-.29,.89-.38,1.17-.59,1.82,.81-.11,2.17-.43,3.34-.77l7.03-2.2-1.24-13.84-2.56,3.99c-2.61-2.35-3.53-3.05-6.87-5.18l3.16-4.4c3.05,1.8,4.4,2.74,6.15,4.23l-.18-2.06c-.22-2.49-.35-3.53-.66-4.88l6.13-.55c-.06,1.38,0,2.43,.22,4.92l1.44,16.06c1.16-.38,1.85-.64,2.93-1.13l.92,6.03c-.84,.19-1.8,.43-3.33,.92l.44,4.86c.23,2.53,.35,3.5,.67,4.92l-6.13,.55c.05-1.49,0-2.43-.22-4.99l-.32-3.61-6.52,2.03c-2.08,.66-2.77,.88-3.52,1.22l-1.06-5.51Z"/><path class="cls-14" d="M210.1,108.37c-.89,.08-1.52,.18-2.59,.39l-.51-5.71c.98,.03,2.14,0,3.58-.13l4.91-.44c1.52-.14,2.56-.31,3.51-.51l.51,5.71c-.9-.04-1.72,0-2.58,.08l-.48,.04,.54,6.06,.22-.02c.89-.08,1.44-.17,2.25-.36l.49,5.44c-.86,0-1.46,.01-2.28,.09l-.22,.02,.49,5.44c1.18-.65,1.53-.84,2.81-1.66l.56,5.79c-2.83,1.82-4.93,3.03-9.86,5.7-.25,.14-.29,.14-.78,.46l-1.85-5.99c1.2-.38,1.67-.58,3.86-1.64l-.68-7.62-.45,.04c-1.08,.1-1.74,.2-2.59,.39l-.49-5.48c.86,.04,1.54,.02,2.73-.09l.33-.03-.54-6.06-.89,.08Zm19.54,19.45l-3.42,.31c-2.42,.22-3.08,.32-4.11,.53l-.49-5.48c.9,.04,1.65,0,4.1-.21l3.46-.31-.17-1.94-3.31,.3c-2.49,.22-3.27,.33-4.26,.5,.01-1.1-.08-2.54-.32-5.22l-.84-9.33c-.25-2.84-.41-4.12-.68-5.46,1.57,.02,2.77-.05,5.26-.28l10.63-.95c2.94-.26,4.01-.4,4.89-.63,0,1.21,.1,3.17,.33,5.77l.79,8.79c.27,2.99,.42,4.23,.67,5.43-1.12,.02-1.46,.05-3.65,.25l-4.27,.38,.18,1.94,3.94-.35c2.23-.2,3.19-.33,4.22-.57l.5,5.56c-1.17-.05-2.13,0-4.18,.18l-4.01,.36,.2,2.25,4.98-.45c2.19-.2,3.19-.33,4.22-.57l.51,5.71c-1.36-.07-2.44-.02-4.7,.19l-14.6,1.31c-2.23,.2-3.27,.33-4.74,.66l-.51-5.71c1.09,.06,1.95,.02,3.99-.16l5.61-.5-.2-2.25Zm-4.19-21.29l.21,2.29,2.27-.2-.21-2.29-2.27,.2Zm.61,6.84l.22,2.41,2.27-.2-.22-2.41-2.27,.2Zm7.1-5.22l2.27-.2-.21-2.29-2.27,.2,.21,2.29Zm.62,6.96l2.27-.2-.22-2.41-2.27,.2,.22,2.41Z"/><path class="cls-14" d="M254.89,99.5c-1.05,4.56-1.51,11.93-1.14,19.03l2.95,.76c-.65,3.58-.82,7.13-.47,11.01,.07,.74,.1,1.09,.28,1.89l-6.36,.89c-.1-.74-.13-1.05-.37-2.04-1.17-5.15-1.74-8.5-2.07-12.2-.4-4.47-.39-9.41,.07-15.09,.2-2.76,.21-3.04,.18-4.21l6.93-.03Zm3.24,2.69c1.78,.23,3.77,.25,6.67,0,4.94-.44,8.56-1.08,10.99-1.96l.86,6.62c-.33,.03-.7,.1-2.73,.52-2.54,.5-5.24,.9-7.8,1.13-2.27,.2-4.13,.29-6.42,.26-.3-.01-.56,.01-1.09,.02l-.48-6.58Zm8.54,13.38c-1.5,2.45-2.13,4.19-2.01,5.59,.16,1.79,1.92,2.61,5.08,2.33,3.31-.3,6.38-1.12,9.11-2.42l.99,6.85q-.96,.2-3.12,.75c-1.98,.49-4.26,.89-6.38,1.08-3.46,.31-5.8,.01-7.84-.94-2.19-1.06-3.75-3.35-3.97-5.87-.17-1.91,.27-4.1,1.24-6.23,.44-.94,.63-1.35,1.5-2.96l5.41,1.83Z"/></g></g><line class="cls-9" x1="308.85" y1="17.82" x2="309.9" y2="31.51"/><g><g><path class="cls-4" d="M32.01,139.23c-2.05,1.32-3.2,1.93-5.7,3.22-1.3-2.35-2.07-3.42-3.8-5.19,4.14-1.43,7.29-3.08,11.62-6.17-1.31-1.29-2.53-2.28-4.33-3.57-1.28,1.13-2.19,1.84-4.03,3.1-1.33-1.92-2.25-2.93-3.9-4.27,3.02-1.8,5.3-3.61,7.76-6.18,1.88-1.97,3.33-4.18,4.25-6.46l6.4,.72c-.68,1.2-.91,1.61-1.33,2.27l7.13-.64c1.34-.12,2.15-.23,3.03-.47l3.37,2.95q-.46,.71-1.28,2.04c-2.23,3.49-5.72,7.68-9.14,10.89l10.11-.91c1.71-.15,2.63-.28,3.52-.43-.05,1.1,.02,2.27,.17,4.02l.95,10.65c.17,1.91,.35,3.06,.6,4.22l-5.83,.52-.18-2.02-12.89,1.16,.18,2.02-5.83,.52c.04-1.26,0-2.47-.16-4.26l-.69-7.74Zm2.69-16.74c-.54,.64-.64,.76-1.12,1.28q2.83,1.94,4.86,3.68c2.17-2.11,3.26-3.35,4.95-5.73l-8.7,.78Zm3.31,21.02l12.97-1.16-.56-6.22-12.97,1.16,.56,6.22Z"/><path class="cls-4" d="M82.34,127.82c2.73-.44,3.64-.72,6.02-1.79,2.42,2.72,3.58,5.24,3.86,8.43,.26,2.95-.89,6-3.1,8.04-2.14,2.04-5.14,3.24-8.78,3.57-3.83,.34-6.93-.44-9.23-2.27-1.94-1.59-2.96-3.81-3.25-7-.08-.85-.12-1.71-.15-2.89-1.16,.02-2.74-.11-4.86-.35-.76-.09-.98-.11-1.62-.09l-.11-6.26c1.77,.51,3.17,.66,6.59,.78,0-.39,.07-1.73,.17-3.93-1.5-.02-2.75-.15-5.21-.43-.57-.07-.79-.08-1.36-.15l-.13-6.06c1.69,.44,3.88,.67,6.84,.72,.18-2.6,.18-4.29,.06-5.61-.01-.12-.03-.31-.05-.54l6.93-.03c-.3,1.28-.37,2.15-.57,5.77,3.63-.44,5.76-.91,7.98-1.69l.36,6.47q-.85,.15-2.65,.47c-2.43,.45-3.58,.59-6.07,.82q0,.51-.09,1.93c-.03,.51-.04,.83-.07,2.12,.33-.03,.67-.06,.78-.07,2.9-.26,5.51-.81,7.61-1.58l.11,1.64Zm.3,4.64c-.37,.07-.41,.08-1.18,.26-1.69,.39-3.94,.75-5.8,.91-.37,.03-.63,.06-1.68,.11,0,.51,.04,1.25,.09,1.87,.14,1.56,.6,2.57,1.45,3.24,.97,.77,2.38,1.08,4.13,.92,4.05-.36,6.3-2.45,6.02-5.56-.18-1.98-1.29-4-3.3-5.93l.26,4.17Z"/><path class="cls-4" d="M109.08,108.53c-.16,.72-.2,.72-.43,3.17-.1,.95-.15,1.31-.25,2.22,2.35-.49,3.93-.9,5.08-1.4l.68,6.29q-.88,.16-2.72,.56c-.99,.21-3.02,.58-3.94,.75-.93,4.71-1.65,7.48-3.04,11.64-.62,1.86-.89,2.59-2.07,5.75q-.4,1.02-.57,1.58l-6.37-2.92c2.31-3.93,4.38-9.68,5.56-15.31q-.71,.06-2.08,.19-.85,.08-1.71,.12c-.15,.01-.3,.03-1.45,.13l-.56-6.22c1.44,.15,3.16,.11,5.46-.1,.41-.04,.59-.05,1.33-.16q0-.31,.19-1.66c.18-1.35,.23-3.27,.14-4.68l6.75,.06Zm18.92,31.34c-1.52-1.55-3.05-2.67-5.17-3.81,.05,1.84-.29,3-1.2,4.18-1.31,1.65-3.83,2.77-6.81,3.04-2.97,.27-5.58-.44-7.25-1.94-1.34-1.21-2.13-2.83-2.29-4.65-.4-4.51,2.92-7.98,8.08-8.44,.78-.07,1.38-.08,2.62,0-.24-1.47-.35-2.2-.43-3.1-.14-1.59-.18-2.84-.19-4.61l6.16-.28c-.18,1.39-.18,2.56-.01,4.43,.13,1.4,.3,2.56,.7,4.48,2.36,.85,4.2,1.74,6.03,2.95,.12,.07,.76,.52,1.96,1.36l-2.2,6.39Zm-13.96-6.12c-1.75,.16-2.79,1.03-2.68,2.24,.1,1.13,1.21,1.77,2.8,1.63,1.86-.17,2.75-1.11,2.6-2.74-.02-.27-.11-.81-.15-.85-1.04-.3-1.68-.36-2.57-.28Zm12.69-12.15c-3.7-1.98-7.5-3.4-12.06-4.56l2.6-5.64c4.84,1.33,8.01,2.46,11.65,4.25l-2.2,5.96Z"/><path class="cls-4" d="M133.18,110.72c1.31,.04,2.54-.03,4.25-.18,2.12-.19,4.97-.56,6.63-.87-.97-2.07-1.51-3.08-1.91-3.75l6.43-1.4c.3,1.23,.64,2.1,1.51,3.94,3.52-.83,7.79-2.15,9.87-3.08l1.03,5.63q-.69,.22-2.7,.83c-2.11,.66-2.15,.7-5.81,1.66,.36,.71,.86,1.68,1.04,1.94,5.08-1.43,6.82-2.02,8.47-2.84l1.07,5.66q-.84,.19-4.49,1.34s-1.72,.47-2.19,.63c1.77,2.66,2.95,4.12,5.4,6.73l-5.2,3.44c-2.3-1.01-4.72-1.3-7.96-1.01-4.12,.37-6.31,1.47-6.16,3.1,.13,1.44,2.12,1.96,6.06,1.61,4.27-.38,8.76-1.73,11.6-3.47l1.44,6.49q-.77,.19-2.55,.78c-3.46,1.13-6.84,1.83-10.3,2.14-5.65,.51-9.55-.4-11.59-2.68-.96-1.09-1.62-2.64-1.76-4.15-.24-2.72,1.24-5.36,3.85-6.81,2.11-1.17,4.59-1.86,7.82-2.15,1.97-.18,3.47-.19,5.17,0-.46-.55-1.1-1.43-1.96-2.61-3.12,.71-7.37,1.37-12.71,2-2.22,.28-2.33,.29-3.22,.48l-.78-5.73c1.09,.02,1.8,0,3.84-.19,3.57-.32,7.12-.83,10.1-1.45-.14-.3-.5-.97-1.04-1.98-3.24,.64-4.94,.87-9.66,1.3-1.67,.19-1.93,.21-2.78,.33l-.85-5.69Z"/><path class="cls-4" d="M169.36,103.99c1.39,3.36,2.04,5.15,2.83,8.13l-3.65,2.36c-.87-3.49-1.54-5.47-2.75-8.1l3.57-2.4Zm13.36,22c-.3,1.2-.43,1.84-.71,3.32-1.26-1.1-2.05-1.97-3.17-3.56,.26,1.66,.27,1.78,.38,3.02l.5,5.6c.16,1.83,.28,2.72,.52,3.75l-5.83,.52c.04-1.18,.02-2.27-.13-3.94l-.31-3.5c-.13-1.4-.2-2.25-.21-3.19-1.23,3.44-1.89,4.79-3.29,6.72-.87-2.23-1.69-3.81-2.94-5.65,2.1-2.42,3.78-5.51,4.77-9.01l-1.41,.13c-1.75,.16-2.49,.26-3.48,.51l-.51-5.72c.87,.08,1.65,.05,3.47-.12l2.08-.19-.83-9.21c-.15-1.63-.26-2.48-.46-3.45l5.76-.52c-.03,.9,0,1.76,.16,3.43l.51,5.64c.54-1.93,.95-4.44,1.25-7.4l4.04,1.6c-.64,3.74-1.21,6.18-2.14,8.7l-3.02-1.53,.2,2.25,1.75-.16c1.56-.14,2.12-.23,2.88-.46l.26,2.88,2.67-3.69c2.97,1.81,4.61,3,6.81,4.95l-3.03,4.7c-2.57-2.36-4.1-3.55-6.37-4.99l.17,1.87c-.94-.07-1.61-.05-3.06,.08l-1.23,.11c1.26,1.53,2.72,2.77,4.75,4.08-.29,.89-.38,1.17-.59,1.82,.81-.11,2.17-.43,3.34-.77l7.03-2.2-1.24-13.84-2.56,3.99c-2.61-2.35-3.53-3.05-6.87-5.18l3.16-4.4c3.05,1.8,4.4,2.74,6.15,4.23l-.18-2.06c-.22-2.49-.35-3.53-.66-4.88l6.13-.55c-.06,1.38,0,2.43,.22,4.92l1.44,16.06c1.16-.38,1.85-.64,2.93-1.13l.92,6.03c-.84,.19-1.8,.43-3.33,.92l.44,4.86c.23,2.53,.35,3.5,.67,4.92l-6.13,.55c.05-1.49,0-2.43-.22-4.99l-.32-3.61-6.52,2.03c-2.08,.66-2.77,.88-3.52,1.22l-1.06-5.51Z"/><path class="cls-4" d="M205.76,105.94c-.89,.08-1.52,.18-2.59,.39l-.51-5.71c.98,.03,2.14,0,3.58-.13l4.91-.44c1.52-.14,2.56-.31,3.51-.51l.51,5.71c-.9-.04-1.72,0-2.58,.08l-.48,.04,.54,6.06,.22-.02c.89-.08,1.44-.17,2.25-.36l.49,5.44c-.86,0-1.46,.01-2.28,.09l-.22,.02,.49,5.44c1.18-.65,1.53-.84,2.81-1.66l.56,5.79c-2.83,1.82-4.93,3.03-9.86,5.7-.25,.14-.29,.14-.78,.46l-1.85-5.99c1.2-.38,1.67-.58,3.86-1.64l-.68-7.62-.45,.04c-1.08,.1-1.74,.2-2.59,.39l-.49-5.48c.86,.04,1.54,.02,2.73-.09l.33-.03-.54-6.06-.89,.08Zm19.54,19.45l-3.42,.31c-2.42,.22-3.08,.32-4.11,.53l-.49-5.48c.9,.04,1.65,0,4.1-.21l3.46-.31-.17-1.94-3.31,.3c-2.49,.22-3.27,.33-4.26,.5,.01-1.1-.08-2.54-.32-5.22l-.84-9.33c-.25-2.84-.41-4.12-.68-5.46,1.57,.02,2.77-.05,5.26-.28l10.63-.95c2.94-.26,4.01-.4,4.89-.63,0,1.21,.1,3.17,.33,5.77l.79,8.79c.27,2.99,.42,4.23,.67,5.43-1.12,.02-1.46,.05-3.65,.25l-4.27,.38,.18,1.94,3.94-.35c2.23-.2,3.19-.33,4.22-.57l.5,5.56c-1.17-.05-2.13,0-4.18,.18l-4.01,.36,.2,2.25,4.98-.45c2.19-.2,3.19-.33,4.22-.57l.51,5.71c-1.36-.07-2.44-.02-4.7,.19l-14.6,1.31c-2.23,.2-3.27,.33-4.74,.66l-.51-5.71c1.09,.06,1.95,.02,3.99-.16l5.61-.5-.2-2.25Zm-4.19-21.29l.21,2.29,2.27-.2-.21-2.29-2.27,.2Zm.61,6.84l.22,2.41,2.27-.2-.22-2.41-2.27,.2Zm7.1-5.22l2.27-.2-.21-2.29-2.27,.2,.21,2.29Zm.62,6.96l2.27-.2-.22-2.41-2.27,.2,.22,2.41Z"/><path class="cls-4" d="M250.55,97.06c-1.05,4.56-1.51,11.93-1.14,19.03l2.95,.76c-.65,3.58-.82,7.13-.47,11.01,.07,.74,.1,1.09,.28,1.89l-6.36,.89c-.1-.74-.13-1.05-.37-2.04-1.17-5.15-1.74-8.5-2.07-12.2-.4-4.47-.39-9.41,.07-15.09,.2-2.76,.21-3.04,.18-4.21l6.93-.03Zm3.24,2.69c1.78,.23,3.77,.25,6.67,0,4.94-.44,8.56-1.08,10.99-1.96l.86,6.62c-.33,.03-.7,.1-2.73,.52-2.54,.5-5.24,.9-7.8,1.13-2.27,.2-4.13,.29-6.42,.26-.3-.01-.56,.01-1.09,.02l-.48-6.58Zm8.54,13.38c-1.5,2.45-2.13,4.19-2.01,5.59,.16,1.79,1.92,2.61,5.08,2.33,3.31-.3,6.38-1.12,9.11-2.42l.99,6.85q-.96,.2-3.12,.75c-1.98,.49-4.26,.89-6.38,1.08-3.46,.31-5.8,.01-7.84-.94-2.19-1.06-3.75-3.35-3.97-5.87-.17-1.91,.27-4.1,1.24-6.23,.44-.94,.63-1.35,1.5-2.96l5.41,1.83Z"/></g><g><path class="cls-13" d="M32.01,139.23c-2.05,1.32-3.2,1.93-5.7,3.22-1.3-2.35-2.07-3.42-3.8-5.19,4.14-1.43,7.29-3.08,11.62-6.17-1.31-1.29-2.53-2.28-4.33-3.57-1.28,1.13-2.19,1.84-4.03,3.1-1.33-1.92-2.25-2.93-3.9-4.27,3.02-1.8,5.3-3.61,7.76-6.18,1.88-1.97,3.33-4.18,4.25-6.46l6.4,.72c-.68,1.2-.91,1.61-1.33,2.27l7.13-.64c1.34-.12,2.15-.23,3.03-.47l3.37,2.95q-.46,.71-1.28,2.04c-2.23,3.49-5.72,7.68-9.14,10.89l10.11-.91c1.71-.15,2.63-.28,3.52-.43-.05,1.1,.02,2.27,.17,4.02l.95,10.65c.17,1.91,.35,3.06,.6,4.22l-5.83,.52-.18-2.02-12.89,1.16,.18,2.02-5.83,.52c.04-1.26,0-2.47-.16-4.26l-.69-7.74Zm2.69-16.74c-.54,.64-.64,.76-1.12,1.28q2.83,1.94,4.86,3.68c2.17-2.11,3.26-3.35,4.95-5.73l-8.7,.78Zm3.31,21.02l12.97-1.16-.56-6.22-12.97,1.16,.56,6.22Z"/><path class="cls-13" d="M82.34,127.82c2.73-.44,3.64-.72,6.02-1.79,2.42,2.72,3.58,5.24,3.86,8.43,.26,2.95-.89,6-3.1,8.04-2.14,2.04-5.14,3.24-8.78,3.57-3.83,.34-6.93-.44-9.23-2.27-1.94-1.59-2.96-3.81-3.25-7-.08-.85-.12-1.71-.15-2.89-1.16,.02-2.74-.11-4.86-.35-.76-.09-.98-.11-1.62-.09l-.11-6.26c1.77,.51,3.17,.66,6.59,.78,0-.39,.07-1.73,.17-3.93-1.5-.02-2.75-.15-5.21-.43-.57-.07-.79-.08-1.36-.15l-.13-6.06c1.69,.44,3.88,.67,6.84,.72,.18-2.6,.18-4.29,.06-5.61-.01-.12-.03-.31-.05-.54l6.93-.03c-.3,1.28-.37,2.15-.57,5.77,3.63-.44,5.76-.91,7.98-1.69l.36,6.47q-.85,.15-2.65,.47c-2.43,.45-3.58,.59-6.07,.82q0,.51-.09,1.93c-.03,.51-.04,.83-.07,2.12,.33-.03,.67-.06,.78-.07,2.9-.26,5.51-.81,7.61-1.58l.11,1.64Zm.3,4.64c-.37,.07-.41,.08-1.18,.26-1.69,.39-3.94,.75-5.8,.91-.37,.03-.63,.06-1.68,.11,0,.51,.04,1.25,.09,1.87,.14,1.56,.6,2.57,1.45,3.24,.97,.77,2.38,1.08,4.13,.92,4.05-.36,6.3-2.45,6.02-5.56-.18-1.98-1.29-4-3.3-5.93l.26,4.17Z"/><path class="cls-13" d="M109.08,108.53c-.16,.72-.2,.72-.43,3.17-.1,.95-.15,1.31-.25,2.22,2.35-.49,3.93-.9,5.08-1.4l.68,6.29q-.88,.16-2.72,.56c-.99,.21-3.02,.58-3.94,.75-.93,4.71-1.65,7.48-3.04,11.64-.62,1.86-.89,2.59-2.07,5.75q-.4,1.02-.57,1.58l-6.37-2.92c2.31-3.93,4.38-9.68,5.56-15.31q-.71,.06-2.08,.19-.85,.08-1.71,.12c-.15,.01-.3,.03-1.45,.13l-.56-6.22c1.44,.15,3.16,.11,5.46-.1,.41-.04,.59-.05,1.33-.16q0-.31,.19-1.66c.18-1.35,.23-3.27,.14-4.68l6.75,.06Zm18.92,31.34c-1.52-1.55-3.05-2.67-5.17-3.81,.05,1.84-.29,3-1.2,4.18-1.31,1.65-3.83,2.77-6.81,3.04-2.97,.27-5.58-.44-7.25-1.94-1.34-1.21-2.13-2.83-2.29-4.65-.4-4.51,2.92-7.98,8.08-8.44,.78-.07,1.38-.08,2.62,0-.24-1.47-.35-2.2-.43-3.1-.14-1.59-.18-2.84-.19-4.61l6.16-.28c-.18,1.39-.18,2.56-.01,4.43,.13,1.4,.3,2.56,.7,4.48,2.36,.85,4.2,1.74,6.03,2.95,.12,.07,.76,.52,1.96,1.36l-2.2,6.39Zm-13.96-6.12c-1.75,.16-2.79,1.03-2.68,2.24,.1,1.13,1.21,1.77,2.8,1.63,1.86-.17,2.75-1.11,2.6-2.74-.02-.27-.11-.81-.15-.85-1.04-.3-1.68-.36-2.57-.28Zm12.69-12.15c-3.7-1.98-7.5-3.4-12.06-4.56l2.6-5.64c4.84,1.33,8.01,2.46,11.65,4.25l-2.2,5.96Z"/><path class="cls-13" d="M133.18,110.72c1.31,.04,2.54-.03,4.25-.18,2.12-.19,4.97-.56,6.63-.87-.97-2.07-1.51-3.08-1.91-3.75l6.43-1.4c.3,1.23,.64,2.1,1.51,3.94,3.52-.83,7.79-2.15,9.87-3.08l1.03,5.63q-.69,.22-2.7,.83c-2.11,.66-2.15,.7-5.81,1.66,.36,.71,.86,1.68,1.04,1.94,5.08-1.43,6.82-2.02,8.47-2.84l1.07,5.66q-.84,.19-4.49,1.34s-1.72,.47-2.19,.63c1.77,2.66,2.95,4.12,5.4,6.73l-5.2,3.44c-2.3-1.01-4.72-1.3-7.96-1.01-4.12,.37-6.31,1.47-6.16,3.1,.13,1.44,2.12,1.96,6.06,1.61,4.27-.38,8.76-1.73,11.6-3.47l1.44,6.49q-.77,.19-2.55,.78c-3.46,1.13-6.84,1.83-10.3,2.14-5.65,.51-9.55-.4-11.59-2.68-.96-1.09-1.62-2.64-1.76-4.15-.24-2.72,1.24-5.36,3.85-6.81,2.11-1.17,4.59-1.86,7.82-2.15,1.97-.18,3.47-.19,5.17,0-.46-.55-1.1-1.43-1.96-2.61-3.12,.71-7.37,1.37-12.71,2-2.22,.28-2.33,.29-3.22,.48l-.78-5.73c1.09,.02,1.8,0,3.84-.19,3.57-.32,7.12-.83,10.1-1.45-.14-.3-.5-.97-1.04-1.98-3.24,.64-4.94,.87-9.66,1.3-1.67,.19-1.93,.21-2.78,.33l-.85-5.69Z"/><path class="cls-13" d="M169.36,103.99c1.39,3.36,2.04,5.15,2.83,8.13l-3.65,2.36c-.87-3.49-1.54-5.47-2.75-8.1l3.57-2.4Zm13.36,22c-.3,1.2-.43,1.84-.71,3.32-1.26-1.1-2.05-1.97-3.17-3.56,.26,1.66,.27,1.78,.38,3.02l.5,5.6c.16,1.83,.28,2.72,.52,3.75l-5.83,.52c.04-1.18,.02-2.27-.13-3.94l-.31-3.5c-.13-1.4-.2-2.25-.21-3.19-1.23,3.44-1.89,4.79-3.29,6.72-.87-2.23-1.69-3.81-2.94-5.65,2.1-2.42,3.78-5.51,4.77-9.01l-1.41,.13c-1.75,.16-2.49,.26-3.48,.51l-.51-5.72c.87,.08,1.65,.05,3.47-.12l2.08-.19-.83-9.21c-.15-1.63-.26-2.48-.46-3.45l5.76-.52c-.03,.9,0,1.76,.16,3.43l.51,5.64c.54-1.93,.95-4.44,1.25-7.4l4.04,1.6c-.64,3.74-1.21,6.18-2.14,8.7l-3.02-1.53,.2,2.25,1.75-.16c1.56-.14,2.12-.23,2.88-.46l.26,2.88,2.67-3.69c2.97,1.81,4.61,3,6.81,4.95l-3.03,4.7c-2.57-2.36-4.1-3.55-6.37-4.99l.17,1.87c-.94-.07-1.61-.05-3.06,.08l-1.23,.11c1.26,1.53,2.72,2.77,4.75,4.08-.29,.89-.38,1.17-.59,1.82,.81-.11,2.17-.43,3.34-.77l7.03-2.2-1.24-13.84-2.56,3.99c-2.61-2.35-3.53-3.05-6.87-5.18l3.16-4.4c3.05,1.8,4.4,2.74,6.15,4.23l-.18-2.06c-.22-2.49-.35-3.53-.66-4.88l6.13-.55c-.06,1.38,0,2.43,.22,4.92l1.44,16.06c1.16-.38,1.85-.64,2.93-1.13l.92,6.03c-.84,.19-1.8,.43-3.33,.92l.44,4.86c.23,2.53,.35,3.5,.67,4.92l-6.13,.55c.05-1.49,0-2.43-.22-4.99l-.32-3.61-6.52,2.03c-2.08,.66-2.77,.88-3.52,1.22l-1.06-5.51Z"/><path class="cls-13" d="M205.76,105.94c-.89,.08-1.52,.18-2.59,.39l-.51-5.71c.98,.03,2.14,0,3.58-.13l4.91-.44c1.52-.14,2.56-.31,3.51-.51l.51,5.71c-.9-.04-1.72,0-2.58,.08l-.48,.04,.54,6.06,.22-.02c.89-.08,1.44-.17,2.25-.36l.49,5.44c-.86,0-1.46,.01-2.28,.09l-.22,.02,.49,5.44c1.18-.65,1.53-.84,2.81-1.66l.56,5.79c-2.83,1.82-4.93,3.03-9.86,5.7-.25,.14-.29,.14-.78,.46l-1.85-5.99c1.2-.38,1.67-.58,3.86-1.64l-.68-7.62-.45,.04c-1.08,.1-1.74,.2-2.59,.39l-.49-5.48c.86,.04,1.54,.02,2.73-.09l.33-.03-.54-6.06-.89,.08Zm19.54,19.45l-3.42,.31c-2.42,.22-3.08,.32-4.11,.53l-.49-5.48c.9,.04,1.65,0,4.1-.21l3.46-.31-.17-1.94-3.31,.3c-2.49,.22-3.27,.33-4.26,.5,.01-1.1-.08-2.54-.32-5.22l-.84-9.33c-.25-2.84-.41-4.12-.68-5.46,1.57,.02,2.77-.05,5.26-.28l10.63-.95c2.94-.26,4.01-.4,4.89-.63,0,1.21,.1,3.17,.33,5.77l.79,8.79c.27,2.99,.42,4.23,.67,5.43-1.12,.02-1.46,.05-3.65,.25l-4.27,.38,.18,1.94,3.94-.35c2.23-.2,3.19-.33,4.22-.57l.5,5.56c-1.17-.05-2.13,0-4.18,.18l-4.01,.36,.2,2.25,4.98-.45c2.19-.2,3.19-.33,4.22-.57l.51,5.71c-1.36-.07-2.44-.02-4.7,.19l-14.6,1.31c-2.23,.2-3.27,.33-4.74,.66l-.51-5.71c1.09,.06,1.95,.02,3.99-.16l5.61-.5-.2-2.25Zm-4.19-21.29l.21,2.29,2.27-.2-.21-2.29-2.27,.2Zm.61,6.84l.22,2.41,2.27-.2-.22-2.41-2.27,.2Zm7.1-5.22l2.27-.2-.21-2.29-2.27,.2,.21,2.29Zm.62,6.96l2.27-.2-.22-2.41-2.27,.2,.22,2.41Z"/><path class="cls-13" d="M250.55,97.06c-1.05,4.56-1.51,11.93-1.14,19.03l2.95,.76c-.65,3.58-.82,7.13-.47,11.01,.07,.74,.1,1.09,.28,1.89l-6.36,.89c-.1-.74-.13-1.05-.37-2.04-1.17-5.15-1.74-8.5-2.07-12.2-.4-4.47-.39-9.41,.07-15.09,.2-2.76,.21-3.04,.18-4.21l6.93-.03Zm3.24,2.69c1.78,.23,3.77,.25,6.67,0,4.94-.44,8.56-1.08,10.99-1.96l.86,6.62c-.33,.03-.7,.1-2.73,.52-2.54,.5-5.24,.9-7.8,1.13-2.27,.2-4.13,.29-6.42,.26-.3-.01-.56,.01-1.09,.02l-.48-6.58Zm8.54,13.38c-1.5,2.45-2.13,4.19-2.01,5.59,.16,1.79,1.92,2.61,5.08,2.33,3.31-.3,6.38-1.12,9.11-2.42l.99,6.85q-.96,.2-3.12,.75c-1.98,.49-4.26,.89-6.38,1.08-3.46,.31-5.8,.01-7.84-.94-2.19-1.06-3.75-3.35-3.97-5.87-.17-1.91,.27-4.1,1.24-6.23,.44-.94,.63-1.35,1.5-2.96l5.41,1.83Z"/></g></g><g><g><path d="M66.32,190.18c-2.05,1.32-3.2,1.93-5.7,3.22-1.3-2.35-2.07-3.42-3.8-5.18,4.14-1.43,7.29-3.08,11.62-6.17-1.31-1.29-2.53-2.28-4.33-3.57-1.28,1.13-2.19,1.84-4.03,3.1-1.33-1.92-2.25-2.93-3.91-4.27,3.02-1.8,5.3-3.61,7.76-6.18,1.88-1.97,3.33-4.18,4.25-6.46l6.39,.72c-.68,1.2-.9,1.61-1.33,2.27l7.13-.64c1.34-.12,2.15-.23,3.03-.47l3.37,2.95q-.46,.71-1.28,2.03c-2.23,3.49-5.72,7.68-9.14,10.89l10.11-.91c1.71-.15,2.64-.28,3.52-.43-.05,1.1,.02,2.27,.17,4.02l.96,10.65c.17,1.9,.35,3.06,.6,4.22l-5.83,.52-.18-2.02-12.89,1.16,.18,2.02-5.83,.52c.04-1.26,0-2.47-.16-4.26l-.69-7.74Zm2.69-16.74c-.54,.63-.64,.76-1.12,1.27q2.83,1.94,4.86,3.68c2.17-2.11,3.26-3.35,4.95-5.73l-8.7,.78Zm3.31,21.02l12.97-1.16-.56-6.22-12.97,1.16,.56,6.22Z"/><path d="M101.66,166.6c-.78-1.18-1.16-1.66-2.32-2.93l5.7-2.04c1.27,1.61,2.3,3.09,3.05,4.39l4.64-.42c.91-1.57,1.37-2.71,1.93-4.76l6.19,.89c-.63,1.35-1.04,2.17-1.73,3.29l3.9-.35c2.04-.18,2.97-.31,4.18-.61l.52,5.75c-1.13-.06-2.1,0-4.22,.18l-25.16,2.25c-2.04,.18-3.08,.32-4.22,.58l-.52-5.75c1.36,.08,2.32,.03,4.26-.15l3.79-.34Zm1.46,27.97c.18,2.02,.29,2.83,.57,4.22l-5.83,.52c.02-1.41-.02-2.74-.2-4.69l-1.54-17.18c-.17-1.87-.27-2.6-.47-3.52,1.01-.01,1.94-.06,3.39-.19l8.77-.79c1.75-.16,2.41-.25,3.22-.4,.01,.98,.05,1.8,.22,3.7l1.52,16.91c.33,3.65-.6,4.64-4.87,5.02-.41,.04-1,.09-1.79,.12-.6-2.49-.8-3.06-1.68-4.98,1.09,.02,1.46,.03,2.1-.03,.67-.06,.8-.23,.74-.89l-.15-1.71-4.31,.39,.31,3.5Zm3.02-14.73l-.16-1.75-4.31,.39,.16,1.75,4.31-.39Zm.56,6.3l-.16-1.75-4.31,.39,.16,1.75,4.31-.39Zm12.02-13.38c-.02,1.06,.04,2.07,.19,3.75l.78,8.75c.18,1.98,.29,2.8,.51,3.99l-5.69,.51c-.01-1.37-.04-2.07-.2-3.94l-.79-8.86c-.15-1.63-.26-2.45-.48-3.68l5.69-.51Zm7.68-1.67c-.04,1.22,.02,2.27,.18,4.06l1.42,15.86c.22,2.41,.02,3.53-.77,4.34-1,.99-2.09,1.32-5.58,1.64q-.41,.04-3.09,.24c-.58-2.3-1.02-3.4-2.06-5.46,2.02,.02,3.15,0,4.48-.13,1.26-.11,1.47-.29,1.39-1.22l-1.34-14.93c-.18-2.02-.28-2.76-.5-3.87l5.87-.53Z"/><path d="M131.56,163.64c1.63,.25,3.88,.2,7.74-.15,.22-.02,.59-.05,1.04-.09,.58-1.93,.74-3,.77-4.42l6.85-.06c-.24,.61-.28,.65-.62,1.9-.38,1.17-.55,1.81-.58,1.89q.37-.07,2.25-.36c3.62-.52,7.37-1.37,9.29-2.09l.78,6.16c-1.14,.22-2.25,.44-3.31,.65-2.61,.51-7.23,1.2-11.01,1.65-.53,1.22-.75,1.71-1.53,3.04,1.53-.92,3.02-1.45,4.62-1.59,3.08-.28,5.05,.8,6.02,3.26q.61-.29,2.52-1.17c.11-.05,1.08-.49,2.23-.98,2.05-.93,2.31-1.03,2.87-1.43l2.82,5.94c-1.91,.44-5.79,1.89-9.24,3.49,.13,1.05,.13,1.09,.29,2.8,.16,1.75,.25,2.33,.45,3.33l-6.04,.74c.06-.59-.01-1.8-.18-4.14l-.32,.19c-1.63,1.01-1.84,1.18-2.46,1.87-.58,.64-.85,1.37-.79,2.07,.13,1.48,1.56,1.94,5.16,1.61,4.46-.4,8.67-1.48,11.72-3.01l1.04,6.96q-1.07,.13-3.28,.65c-2.94,.66-6,1.13-8.9,1.39-4.2,.38-6.89,.07-9-1-1.96-.96-3.22-2.92-3.43-5.26-.16-1.83,.26-3.35,1.38-5.06,1.22-1.79,2.78-3.23,4.98-4.64,.85-.55,1.21-.73,2.63-1.57-.39-.63-.87-.9-1.57-.84-1.9,.17-4.34,1.76-6.73,4.37-1.43,1.58-2.34,2.76-3.22,4.25l-5.16-4.48c1.11-1.04,2.52-2.77,3.58-4.4,.72-1.12,2.01-3.51,2.48-4.49q.47-1.02,.59-1.31c-.52,.05-.93,.08-1.19,.11q-1.6,.14-3.2,.25c-.52,0-.78,.03-1.3,.08-.07,0-.3,.03-.56,.05l-.48-6.15Z"/><path d="M165.8,164.61c1.47-.29,2.39-.53,4.82-1.33,7.43-2.31,10.26-3,14.01-3.33,3.9-.35,7.06,.19,9.43,1.62,3.09,1.88,5.08,5.23,5.44,9.23,.51,5.71-2.24,10.94-7.49,14.19-3.59,2.2-7.15,3.42-13.63,4.63-1.21-3.42-1.57-4.13-3.27-6.8,4.57-.45,7.72-1.16,10.47-2.31,2.86-1.16,4.81-2.78,6-4.93,.71-1.24,.97-2.52,.84-3.99-.14-1.56-.7-2.76-1.71-3.65-1.3-1.18-3.07-1.61-5.67-1.37-3.94,.35-8.36,1.61-14.06,4.04-1.34,.55-2.27,1.03-3.08,1.53l-2.1-7.53Z"/><path d="M211.77,154.57c-.63,3.43-.94,7.1-.98,11.22-.04,2.43,.11,5.36,.43,8.97,0,0,.03,.35,.17,1.44,.37-1.76,.79-3.25,1.47-4.95l4.55,1.87c-2.05,4.3-3.6,10.36-3.53,13.68l-5.96,.77q-.18-.81-.8-3.02c-1-3.63-1.78-8.11-2.14-12.23-.38-4.28-.4-6.12-.03-14.58,.05-1.49,.04-2.08-.05-3.09l6.89-.07Zm2.2,6.62c1.93,.18,4.06,.19,6.74-.05,1.37-.12,2.3-.25,3.37-.46-.85-6.58-.86-6.66-1.28-8.03l6.61-.67c0,.75-.02,1.06,.02,1.49,.01,.16,.03,.39,.1,.73,.1,.73,.31,2.56,.63,5.35,2.13-.5,3.62-1.03,5.08-1.79l.92,6.46c-.62,.13-.84,.19-2.12,.54-1.31,.39-1.38,.44-3.15,.79,.21,1.86,.24,2.25,.32,3.15,.45,4.98,.05,8.97-1.16,11.7-1.37,3.14-3.06,5.13-6.65,7.77-1.91-2.1-3.25-3.24-5.55-4.71,3.71-2.1,5.95-4.65,6.78-7.54,.54-1.93,.59-4.25,.19-8.79,0-.04-.02-.23-.04-.47-1.44,.25-2.36,.37-3.96,.51-1.41,.13-2.61,.19-3.91,.23q-1.23,.03-2.38,.13l-.53-6.34Z"/><path d="M237.38,154.86c.63-.02,1.12-.06,1.41-.09,.97-.09,2.3-.28,6.32-.92,5.76-.91,8.46-1.31,19.76-2.75,3.07-.39,3.4-.46,4.06-.68l.97,7.01c-.53-.03-.68-.02-1.05,.02-2.6,.23-5.85,1.58-8.27,3.48-3.5,2.7-5.4,6.2-5.11,9.39,.2,2.21,1.34,3.64,3.55,4.5,1.59,.64,4.81,.98,7.22,.76,.37-.03,.59-.05,1.11-.18l-.19,7.5c-.53-.07-.72-.05-1.39-.07-4.27-.05-7.12-.42-9.6-1.33-4.58-1.75-7.16-5.12-7.61-10.06-.29-3.23,.49-6.24,2.37-9.07,.85-1.33,1.68-2.19,3.35-3.63l-12.75,2.36c-1.44,.29-1.8,.36-3.15,.79l-1.01-7.04Z"/><path d="M282.71,169.17c1.17-3.28,1.28-5.76,.55-14.39-.74,.11-1.29,.2-1.77,.28l-2.49,3.12c-2.47-2.95-4.4-4.78-7.17-6.8l3.86-4.62c2.29,1.75,3.55,2.82,5.36,4.61l-.17-1.94c1.02,.06,1.69,.04,3.73-.14l.19-.02-.04-.47c-.12-1.32-.22-2.02-.48-2.9l5.91-.53c-.11,.91-.08,1.58,.04,2.9l.05,.5c1.67-.19,2.19-.24,3-.42l.27,2.99c.95-2.36,1.64-5.12,1.67-6.85l5.77,.39c-.33,1.36-.43,1.84-.66,2.64l3.42-.31c1.49-.13,2.19-.23,2.99-.46l.5,5.64c-.93,0-1.79,.04-3.02,.15l-5.61,.5c-.31,.77-.34,.82-.62,1.47l5.61-.5c1-.09,1.37-.12,1.78-.24l2.32,2.49c-.24,.3-.4,.55-.73,1.05-.86,1.29-1.9,2.68-2.98,3.91l.04,.47,1.67-.15c1.11-.1,1.71-.19,2.36-.37l.48,5.4c-.49-.04-1.16-.01-2.02,.06l-2.04,.18,.28,3.07c.14,1.56-.24,2.72-1.12,3.39-.7,.53-2.02,.85-4.7,1.09-.33,.03-.82,.07-1.67,.11-.22-1.59-.62-2.73-1.54-4.68,.94,.07,1.95,.06,3.1-.04,.41-.04,.54-.21,.5-.71l-.16-1.75-1.04,.09c-.97,.09-1.89,.21-2.51,.38l-.49-5.44c.75,.05,1.61,.01,2.54-.07l1.04-.09c-.09-.62-.12-.93-.28-1.43l1.15-.1c.42-.39,.78-.89,1.11-1.43l-2.68,.24c-.89,.08-1.63,.19-2.4,.37l-.29-3.19c-.51-.31-.71-.45-1.3-.75,0,.86,.05,1.76,.14,2.81,.68,7.62,.82,12.43,.39,13.91-.46,1.53-1.67,2.27-4.2,2.49-.48,.04-.82,.03-1.57,.02-.38-1.77-.61-2.65-1.15-4.05-.51,1.85-.74,2.57-1.6,4.34-.95-1.37-1.92-2.57-3.08-3.8l.21,2.33c2.31,2.34,3.79,2.6,11.11,1.94,5.76-.52,10.94-1.26,15.57-2.22-.52,2.12-.73,3.55-.79,6.26-2.37,.33-8.53,.96-14.88,1.53-7.69,.69-10.09,.24-12.96-2.48-1.09,1.23-1.64,1.75-2.96,2.97-.69,.61-.76,.66-1.08,.92q-.32,.22-.59,.48l-2.98-6.08c1.29-.62,2.84-1.78,4.17-3.2l-.67-7.5-1.37,.12c-.82,.07-1.37,.16-2.32,.4l-.53-5.87c1.09,.06,1.69,.04,3.14-.09l3.23-.29c1.15-.1,2-.22,2.85-.41,0,1.22,.04,2.11,.25,4.41l.39,4.31Zm5.75-7.69c.08,3.44-.12,6.16-.62,8.56,.56,.03,.94,.03,1.24,0,.78-.07,.98-.4,1.05-1.62,.07-1.26-.07-4.11-.3-7.07l-1.37,.12Zm-.27-5.07l2.49-.22c1.37-.12,2.22-.24,3.15-.4-.82-.4-1.17-.52-2.21-.82q.26-.42,.62-1l-4.2,.38,.15,2.06Z"/><path d="M314.53,178.98c-.09-.54-.1-.74-.18-1.2-.06-.23-.13-.62-.26-1.19l-.25-1.15c-.73-3.19-1.37-7.32-1.7-10.98-.21-2.37-.35-5.14-.39-8.08q0-1.33,.37-8.77c.09-1.46,.1-2.24,.06-2.63,0-.08-.02-.19-.03-.31l6.77-.1c-.3,.81-.81,4.7-1,8.08-.24,4.06-.22,5.9-.03,11.41l2.99,.79c-.71,3.39-.85,6.82-.44,11.36,.07,.74,.14,1.16,.29,1.93l-6.22,.83Zm24.84-29.54c-.48,.04-1.29,.19-2.44,.42,.03,.74,.05,.93,.24,3.46,2.43-.45,4.74-1.05,5.63-1.48l.7,5.74c-.48,.08-.7,.1-1.07,.18l-.88,.23-.77,.15c-.81,.19-1.1,.26-1.61,.38-.15,.01-.4,.08-.78,.11l-.7,.14c.3,2.48,.4,3.26,.77,5.3,2.21,.78,3.89,1.61,6.03,2.87,.6,.38,.64,.41,1.06,.57l-1.57,6.68c-.99-1.01-2.95-2.44-4.84-3.49,.07,1.25,.06,1.52-.21,2.29-.45,1.25-1.16,2.1-2.44,2.85-1.32,.74-3.25,1.31-5.11,1.48-5.31,.48-8.82-1.91-9.21-6.23-.25-2.84,1.12-5.43,3.49-6.62,1.4-.71,2.86-1.12,4.72-1.28,.74-.07,1.27-.07,2.13-.04-.08-.5-.1-.66-.21-1.55l-.11-.81-.14-1.2c-2.08,.23-2.26,.24-2.93,.3-.85,.08-2.08,.15-3.76,.26-1.53,.06-2.09,.11-2.87,.18-.04,0-.26,.02-.48,.04l-.37-5.81c1.48,.18,4.1,.14,7.25-.14,.74-.07,1.04-.09,2.52-.27-.06-.62-.18-1.98-.2-2.25-.03-.31-.03-.35-.11-1.17-1.11,.14-2.34,.25-3.23,.33-1.97,.18-2.12,.19-5.1,.34-.49,0-.56,.01-1.01,.05-.07,0-.26,.02-.45,.04l-.3-5.85c1.47,.14,3.79,.09,7.25-.22,2.93-.26,3.41-.35,7.33-.97-.54-1.01-.77-1.46-1.34-2.39l3.31-1.12c1.13,1.7,2.14,3.81,2.8,5.78l-1.26,.55,.27,2.17Zm-8.85,19.13c-1.45,.13-2.43,.92-2.34,1.93,.09,1.01,1.08,1.55,2.6,1.41,1.78-.16,2.54-.93,2.4-2.45-.02-.27-.1-.7-.1-.7-1.03-.22-1.67-.28-2.56-.2Zm11.89-29.01c1.07,1.51,1.9,3.2,2.69,5.4l-3.15,1.26c-.76-2.2-1.58-3.89-2.67-5.6l3.13-1.06Z"/><path d="M348.16,153.31q1.15-.1,4.85-1.1c5.16-1.36,8.51-1.98,12.38-2.32,4.87-.44,8.15,.64,10.16,3.4,1.07,1.47,1.71,3.18,1.88,5.12,.43,4.78-2.1,9.55-6.7,12.63-3.07,2.08-6.33,3.31-12.36,4.64-.92-2.78-1.61-4.17-3.16-6.46,4.29-.58,7.55-1.46,10.16-2.83,2.4-1.2,3.96-2.67,4.66-4.38,.37-.89,.54-1.89,.47-2.71-.21-2.33-1.95-3.39-5.04-3.12-4.35,.39-11.55,2.37-15.21,4.18l-2.09-7.06Zm4.95-13.26c4.63,1.04,9.78,1.28,15.58,.76,.67-.06,1.3-.12,2.56-.27l-.22,6.68c-7.56,.44-13.24,.25-19.28-.66l1.36-6.51Z"/></g><g><path class="cls-14" d="M66.32,190.18c-2.05,1.32-3.2,1.93-5.7,3.22-1.3-2.35-2.07-3.42-3.8-5.18,4.14-1.43,7.29-3.08,11.62-6.17-1.31-1.29-2.53-2.28-4.33-3.57-1.28,1.13-2.19,1.84-4.03,3.1-1.33-1.92-2.25-2.93-3.91-4.27,3.02-1.8,5.3-3.61,7.76-6.18,1.88-1.97,3.33-4.18,4.25-6.46l6.39,.72c-.68,1.2-.9,1.61-1.33,2.27l7.13-.64c1.34-.12,2.15-.23,3.03-.47l3.37,2.95q-.46,.71-1.28,2.03c-2.23,3.49-5.72,7.68-9.14,10.89l10.11-.91c1.71-.15,2.64-.28,3.52-.43-.05,1.1,.02,2.27,.17,4.02l.96,10.65c.17,1.9,.35,3.06,.6,4.22l-5.83,.52-.18-2.02-12.89,1.16,.18,2.02-5.83,.52c.04-1.26,0-2.47-.16-4.26l-.69-7.74Zm2.69-16.74c-.54,.63-.64,.76-1.12,1.27q2.83,1.94,4.86,3.68c2.17-2.11,3.26-3.35,4.95-5.73l-8.7,.78Zm3.31,21.02l12.97-1.16-.56-6.22-12.97,1.16,.56,6.22Z"/><path class="cls-14" d="M101.66,166.6c-.78-1.18-1.16-1.66-2.32-2.93l5.7-2.04c1.27,1.61,2.3,3.09,3.05,4.39l4.64-.42c.91-1.57,1.37-2.71,1.93-4.76l6.19,.89c-.63,1.35-1.04,2.17-1.73,3.29l3.9-.35c2.04-.18,2.97-.31,4.18-.61l.52,5.75c-1.13-.06-2.1,0-4.22,.18l-25.16,2.25c-2.04,.18-3.08,.32-4.22,.58l-.52-5.75c1.36,.08,2.32,.03,4.26-.15l3.79-.34Zm1.46,27.97c.18,2.02,.29,2.83,.57,4.22l-5.83,.52c.02-1.41-.02-2.74-.2-4.69l-1.54-17.18c-.17-1.87-.27-2.6-.47-3.52,1.01-.01,1.94-.06,3.39-.19l8.77-.79c1.75-.16,2.41-.25,3.22-.4,.01,.98,.05,1.8,.22,3.7l1.52,16.91c.33,3.65-.6,4.64-4.87,5.02-.41,.04-1,.09-1.79,.12-.6-2.49-.8-3.06-1.68-4.98,1.09,.02,1.46,.03,2.1-.03,.67-.06,.8-.23,.74-.89l-.15-1.71-4.31,.39,.31,3.5Zm3.02-14.73l-.16-1.75-4.31,.39,.16,1.75,4.31-.39Zm.56,6.3l-.16-1.75-4.31,.39,.16,1.75,4.31-.39Zm12.02-13.38c-.02,1.06,.04,2.07,.19,3.75l.78,8.75c.18,1.98,.29,2.8,.51,3.99l-5.69,.51c-.01-1.37-.04-2.07-.2-3.94l-.79-8.86c-.15-1.63-.26-2.45-.48-3.68l5.69-.51Zm7.68-1.67c-.04,1.22,.02,2.27,.18,4.06l1.42,15.86c.22,2.41,.02,3.53-.77,4.34-1,.99-2.09,1.32-5.58,1.64q-.41,.04-3.09,.24c-.58-2.3-1.02-3.4-2.06-5.46,2.02,.02,3.15,0,4.48-.13,1.26-.11,1.47-.29,1.39-1.22l-1.34-14.93c-.18-2.02-.28-2.76-.5-3.87l5.87-.53Z"/><path class="cls-14" d="M131.56,163.64c1.63,.25,3.88,.2,7.74-.15,.22-.02,.59-.05,1.04-.09,.58-1.93,.74-3,.77-4.42l6.85-.06c-.24,.61-.28,.65-.62,1.9-.38,1.17-.55,1.81-.58,1.89q.37-.07,2.25-.36c3.62-.52,7.37-1.37,9.29-2.09l.78,6.16c-1.14,.22-2.25,.44-3.31,.65-2.61,.51-7.23,1.2-11.01,1.65-.53,1.22-.75,1.71-1.53,3.04,1.53-.92,3.02-1.45,4.62-1.59,3.08-.28,5.05,.8,6.02,3.26q.61-.29,2.52-1.17c.11-.05,1.08-.49,2.23-.98,2.05-.93,2.31-1.03,2.87-1.43l2.82,5.94c-1.91,.44-5.79,1.89-9.24,3.49,.13,1.05,.13,1.09,.29,2.8,.16,1.75,.25,2.33,.45,3.33l-6.04,.74c.06-.59-.01-1.8-.18-4.14l-.32,.19c-1.63,1.01-1.84,1.18-2.46,1.87-.58,.64-.85,1.37-.79,2.07,.13,1.48,1.56,1.94,5.16,1.61,4.46-.4,8.67-1.48,11.72-3.01l1.04,6.96q-1.07,.13-3.28,.65c-2.94,.66-6,1.13-8.9,1.39-4.2,.38-6.89,.07-9-1-1.96-.96-3.22-2.92-3.43-5.26-.16-1.83,.26-3.35,1.38-5.06,1.22-1.79,2.78-3.23,4.98-4.64,.85-.55,1.21-.73,2.63-1.57-.39-.63-.87-.9-1.57-.84-1.9,.17-4.34,1.76-6.73,4.37-1.43,1.58-2.34,2.76-3.22,4.25l-5.16-4.48c1.11-1.04,2.52-2.77,3.58-4.4,.72-1.12,2.01-3.51,2.48-4.49q.47-1.02,.59-1.31c-.52,.05-.93,.08-1.19,.11q-1.6,.14-3.2,.25c-.52,0-.78,.03-1.3,.08-.07,0-.3,.03-.56,.05l-.48-6.15Z"/><path class="cls-14" d="M165.8,164.61c1.47-.29,2.39-.53,4.82-1.33,7.43-2.31,10.26-3,14.01-3.33,3.9-.35,7.06,.19,9.43,1.62,3.09,1.88,5.08,5.23,5.44,9.23,.51,5.71-2.24,10.94-7.49,14.19-3.59,2.2-7.15,3.42-13.63,4.63-1.21-3.42-1.57-4.13-3.27-6.8,4.57-.45,7.72-1.16,10.47-2.31,2.86-1.16,4.81-2.78,6-4.93,.71-1.24,.97-2.52,.84-3.99-.14-1.56-.7-2.76-1.71-3.65-1.3-1.18-3.07-1.61-5.67-1.37-3.94,.35-8.36,1.61-14.06,4.04-1.34,.55-2.27,1.03-3.08,1.53l-2.1-7.53Z"/><path class="cls-14" d="M211.77,154.57c-.63,3.43-.94,7.1-.98,11.22-.04,2.43,.11,5.36,.43,8.97,0,0,.03,.35,.17,1.44,.37-1.76,.79-3.25,1.47-4.95l4.55,1.87c-2.05,4.3-3.6,10.36-3.53,13.68l-5.96,.77q-.18-.81-.8-3.02c-1-3.63-1.78-8.11-2.14-12.23-.38-4.28-.4-6.12-.03-14.58,.05-1.49,.04-2.08-.05-3.09l6.89-.07Zm2.2,6.62c1.93,.18,4.06,.19,6.74-.05,1.37-.12,2.3-.25,3.37-.46-.85-6.58-.86-6.66-1.28-8.03l6.61-.67c0,.75-.02,1.06,.02,1.49,.01,.16,.03,.39,.1,.73,.1,.73,.31,2.56,.63,5.35,2.13-.5,3.62-1.03,5.08-1.79l.92,6.46c-.62,.13-.84,.19-2.12,.54-1.31,.39-1.38,.44-3.15,.79,.21,1.86,.24,2.25,.32,3.15,.45,4.98,.05,8.97-1.16,11.7-1.37,3.14-3.06,5.13-6.65,7.77-1.91-2.1-3.25-3.24-5.55-4.71,3.71-2.1,5.95-4.65,6.78-7.54,.54-1.93,.59-4.25,.19-8.79,0-.04-.02-.23-.04-.47-1.44,.25-2.36,.37-3.96,.51-1.41,.13-2.61,.19-3.91,.23q-1.23,.03-2.38,.13l-.53-6.34Z"/><path class="cls-14" d="M237.38,154.86c.63-.02,1.12-.06,1.41-.09,.97-.09,2.3-.28,6.32-.92,5.76-.91,8.46-1.31,19.76-2.75,3.07-.39,3.4-.46,4.06-.68l.97,7.01c-.53-.03-.68-.02-1.05,.02-2.6,.23-5.85,1.58-8.27,3.48-3.5,2.7-5.4,6.2-5.11,9.39,.2,2.21,1.34,3.64,3.55,4.5,1.59,.64,4.81,.98,7.22,.76,.37-.03,.59-.05,1.11-.18l-.19,7.5c-.53-.07-.72-.05-1.39-.07-4.27-.05-7.12-.42-9.6-1.33-4.58-1.75-7.16-5.12-7.61-10.06-.29-3.23,.49-6.24,2.37-9.07,.85-1.33,1.68-2.19,3.35-3.63l-12.75,2.36c-1.44,.29-1.8,.36-3.15,.79l-1.01-7.04Z"/><path class="cls-14" d="M282.71,169.17c1.17-3.28,1.28-5.76,.55-14.39-.74,.11-1.29,.2-1.77,.28l-2.49,3.12c-2.47-2.95-4.4-4.78-7.17-6.8l3.86-4.62c2.29,1.75,3.55,2.82,5.36,4.61l-.17-1.94c1.02,.06,1.69,.04,3.73-.14l.19-.02-.04-.47c-.12-1.32-.22-2.02-.48-2.9l5.91-.53c-.11,.91-.08,1.58,.04,2.9l.05,.5c1.67-.19,2.19-.24,3-.42l.27,2.99c.95-2.36,1.64-5.12,1.67-6.85l5.77,.39c-.33,1.36-.43,1.84-.66,2.64l3.42-.31c1.49-.13,2.19-.23,2.99-.46l.5,5.64c-.93,0-1.79,.04-3.02,.15l-5.61,.5c-.31,.77-.34,.82-.62,1.47l5.61-.5c1-.09,1.37-.12,1.78-.24l2.32,2.49c-.24,.3-.4,.55-.73,1.05-.86,1.29-1.9,2.68-2.98,3.91l.04,.47,1.67-.15c1.11-.1,1.71-.19,2.36-.37l.48,5.4c-.49-.04-1.16-.01-2.02,.06l-2.04,.18,.28,3.07c.14,1.56-.24,2.72-1.12,3.39-.7,.53-2.02,.85-4.7,1.09-.33,.03-.82,.07-1.67,.11-.22-1.59-.62-2.73-1.54-4.68,.94,.07,1.95,.06,3.1-.04,.41-.04,.54-.21,.5-.71l-.16-1.75-1.04,.09c-.97,.09-1.89,.21-2.51,.38l-.49-5.44c.75,.05,1.61,.01,2.54-.07l1.04-.09c-.09-.62-.12-.93-.28-1.43l1.15-.1c.42-.39,.78-.89,1.11-1.43l-2.68,.24c-.89,.08-1.63,.19-2.4,.37l-.29-3.19c-.51-.31-.71-.45-1.3-.75,0,.86,.05,1.76,.14,2.81,.68,7.62,.82,12.43,.39,13.91-.46,1.53-1.67,2.27-4.2,2.49-.48,.04-.82,.03-1.57,.02-.38-1.77-.61-2.65-1.15-4.05-.51,1.85-.74,2.57-1.6,4.34-.95-1.37-1.92-2.57-3.08-3.8l.21,2.33c2.31,2.34,3.79,2.6,11.11,1.94,5.76-.52,10.94-1.26,15.57-2.22-.52,2.12-.73,3.55-.79,6.26-2.37,.33-8.53,.96-14.88,1.53-7.69,.69-10.09,.24-12.96-2.48-1.09,1.23-1.64,1.75-2.96,2.97-.69,.61-.76,.66-1.08,.92q-.32,.22-.59,.48l-2.98-6.08c1.29-.62,2.84-1.78,4.17-3.2l-.67-7.5-1.37,.12c-.82,.07-1.37,.16-2.32,.4l-.53-5.87c1.09,.06,1.69,.04,3.14-.09l3.23-.29c1.15-.1,2-.22,2.85-.41,0,1.22,.04,2.11,.25,4.41l.39,4.31Zm5.75-7.69c.08,3.44-.12,6.16-.62,8.56,.56,.03,.94,.03,1.24,0,.78-.07,.98-.4,1.05-1.62,.07-1.26-.07-4.11-.3-7.07l-1.37,.12Zm-.27-5.07l2.49-.22c1.37-.12,2.22-.24,3.15-.4-.82-.4-1.17-.52-2.21-.82q.26-.42,.62-1l-4.2,.38,.15,2.06Z"/><path class="cls-14" d="M314.53,178.98c-.09-.54-.1-.74-.18-1.2-.06-.23-.13-.62-.26-1.19l-.25-1.15c-.73-3.19-1.37-7.32-1.7-10.98-.21-2.37-.35-5.14-.39-8.08q0-1.33,.37-8.77c.09-1.46,.1-2.24,.06-2.63,0-.08-.02-.19-.03-.31l6.77-.1c-.3,.81-.81,4.7-1,8.08-.24,4.06-.22,5.9-.03,11.41l2.99,.79c-.71,3.39-.85,6.82-.44,11.36,.07,.74,.14,1.16,.29,1.93l-6.22,.83Zm24.84-29.54c-.48,.04-1.29,.19-2.44,.42,.03,.74,.05,.93,.24,3.46,2.43-.45,4.74-1.05,5.63-1.48l.7,5.74c-.48,.08-.7,.1-1.07,.18l-.88,.23-.77,.15c-.81,.19-1.1,.26-1.61,.38-.15,.01-.4,.08-.78,.11l-.7,.14c.3,2.48,.4,3.26,.77,5.3,2.21,.78,3.89,1.61,6.03,2.87,.6,.38,.64,.41,1.06,.57l-1.57,6.68c-.99-1.01-2.95-2.44-4.84-3.49,.07,1.25,.06,1.52-.21,2.29-.45,1.25-1.16,2.1-2.44,2.85-1.32,.74-3.25,1.31-5.11,1.48-5.31,.48-8.82-1.91-9.21-6.23-.25-2.84,1.12-5.43,3.49-6.62,1.4-.71,2.86-1.12,4.72-1.28,.74-.07,1.27-.07,2.13-.04-.08-.5-.1-.66-.21-1.55l-.11-.81-.14-1.2c-2.08,.23-2.26,.24-2.93,.3-.85,.08-2.08,.15-3.76,.26-1.53,.06-2.09,.11-2.87,.18-.04,0-.26,.02-.48,.04l-.37-5.81c1.48,.18,4.1,.14,7.25-.14,.74-.07,1.04-.09,2.52-.27-.06-.62-.18-1.98-.2-2.25-.03-.31-.03-.35-.11-1.17-1.11,.14-2.34,.25-3.23,.33-1.97,.18-2.12,.19-5.1,.34-.49,0-.56,.01-1.01,.05-.07,0-.26,.02-.45,.04l-.3-5.85c1.47,.14,3.79,.09,7.25-.22,2.93-.26,3.41-.35,7.33-.97-.54-1.01-.77-1.46-1.34-2.39l3.31-1.12c1.13,1.7,2.14,3.81,2.8,5.78l-1.26,.55,.27,2.17Zm-8.85,19.13c-1.45,.13-2.43,.92-2.34,1.93,.09,1.01,1.08,1.55,2.6,1.41,1.78-.16,2.54-.93,2.4-2.45-.02-.27-.1-.7-.1-.7-1.03-.22-1.67-.28-2.56-.2Zm11.89-29.01c1.07,1.51,1.9,3.2,2.69,5.4l-3.15,1.26c-.76-2.2-1.58-3.89-2.67-5.6l3.13-1.06Z"/><path class="cls-14" d="M348.16,153.31q1.15-.1,4.85-1.1c5.16-1.36,8.51-1.98,12.38-2.32,4.87-.44,8.15,.64,10.16,3.4,1.07,1.47,1.71,3.18,1.88,5.12,.43,4.78-2.1,9.55-6.7,12.63-3.07,2.08-6.33,3.31-12.36,4.64-.92-2.78-1.61-4.17-3.16-6.46,4.29-.58,7.55-1.46,10.16-2.83,2.4-1.2,3.96-2.67,4.66-4.38,.37-.89,.54-1.89,.47-2.71-.21-2.33-1.95-3.39-5.04-3.12-4.35,.39-11.55,2.37-15.21,4.18l-2.09-7.06Zm4.95-13.26c4.63,1.04,9.78,1.28,15.58,.76,.67-.06,1.3-.12,2.56-.27l-.22,6.68c-7.56,.44-13.24,.25-19.28-.66l1.36-6.51Z"/></g></g><g><g><path class="cls-4" d="M61.91,187.39c-2.05,1.32-3.2,1.93-5.7,3.22-1.3-2.35-2.07-3.42-3.8-5.18,4.14-1.43,7.29-3.08,11.62-6.17-1.31-1.29-2.53-2.28-4.33-3.57-1.28,1.13-2.19,1.84-4.03,3.1-1.33-1.92-2.25-2.93-3.91-4.27,3.02-1.8,5.3-3.61,7.76-6.18,1.88-1.97,3.33-4.18,4.25-6.46l6.39,.72c-.68,1.2-.9,1.61-1.33,2.27l7.13-.64c1.34-.12,2.15-.23,3.03-.47l3.37,2.95q-.46,.71-1.28,2.03c-2.23,3.49-5.72,7.68-9.14,10.89l10.11-.91c1.71-.15,2.64-.28,3.52-.43-.05,1.1,.02,2.27,.17,4.02l.96,10.65c.17,1.9,.35,3.06,.6,4.22l-5.83,.52-.18-2.02-12.89,1.16,.18,2.02-5.83,.52c.04-1.26,0-2.47-.16-4.26l-.69-7.74Zm2.69-16.74c-.54,.63-.64,.76-1.12,1.27q2.83,1.94,4.86,3.68c2.17-2.11,3.26-3.35,4.95-5.73l-8.7,.78Zm3.31,21.02l12.97-1.16-.56-6.22-12.97,1.16,.56,6.22Z"/><path class="cls-4" d="M97.26,163.81c-.78-1.18-1.16-1.66-2.32-2.93l5.7-2.04c1.27,1.61,2.3,3.09,3.05,4.39l4.64-.42c.91-1.57,1.37-2.71,1.93-4.76l6.19,.89c-.63,1.35-1.04,2.17-1.73,3.29l3.9-.35c2.04-.18,2.97-.31,4.18-.61l.52,5.75c-1.13-.06-2.1,0-4.22,.18l-25.16,2.25c-2.04,.18-3.08,.32-4.22,.58l-.52-5.75c1.36,.08,2.32,.03,4.26-.15l3.79-.34Zm1.46,27.97c.18,2.02,.29,2.83,.57,4.22l-5.83,.52c.02-1.41-.02-2.74-.2-4.69l-1.54-17.18c-.17-1.87-.27-2.6-.47-3.52,1.01-.01,1.94-.06,3.39-.19l8.77-.79c1.75-.16,2.41-.25,3.22-.4,.01,.98,.05,1.8,.22,3.7l1.52,16.91c.33,3.65-.6,4.64-4.87,5.02-.41,.04-1,.09-1.79,.12-.6-2.49-.8-3.06-1.68-4.98,1.09,.02,1.46,.03,2.1-.03,.67-.06,.8-.23,.74-.89l-.15-1.71-4.31,.39,.31,3.5Zm3.02-14.73l-.16-1.75-4.31,.39,.16,1.75,4.31-.39Zm.56,6.3l-.16-1.75-4.31,.39,.16,1.75,4.31-.39Zm12.02-13.38c-.02,1.06,.04,2.07,.19,3.75l.78,8.75c.18,1.98,.29,2.8,.51,3.99l-5.69,.51c-.01-1.37-.04-2.07-.2-3.94l-.79-8.86c-.15-1.63-.26-2.45-.48-3.68l5.69-.51Zm7.68-1.67c-.04,1.22,.02,2.27,.18,4.06l1.42,15.86c.22,2.41,.02,3.53-.77,4.34-1,.99-2.09,1.32-5.58,1.64q-.41,.04-3.09,.24c-.58-2.3-1.02-3.4-2.06-5.46,2.02,.02,3.15,0,4.48-.13,1.26-.11,1.47-.29,1.39-1.22l-1.34-14.93c-.18-2.02-.28-2.76-.5-3.87l5.87-.53Z"/><path class="cls-4" d="M127.15,160.85c1.63,.25,3.88,.2,7.74-.15,.22-.02,.59-.05,1.04-.09,.58-1.93,.74-3,.77-4.42l6.85-.06c-.24,.61-.28,.65-.62,1.9-.38,1.17-.55,1.81-.58,1.89q.37-.07,2.25-.36c3.62-.52,7.37-1.37,9.29-2.09l.78,6.16c-1.14,.22-2.25,.44-3.31,.65-2.61,.51-7.23,1.2-11.01,1.65-.53,1.22-.75,1.71-1.53,3.04,1.53-.92,3.02-1.45,4.62-1.59,3.08-.28,5.05,.8,6.02,3.26q.61-.29,2.52-1.17c.11-.05,1.08-.49,2.23-.98,2.05-.93,2.31-1.03,2.87-1.43l2.82,5.94c-1.91,.44-5.79,1.89-9.24,3.49,.13,1.05,.13,1.09,.29,2.8,.16,1.75,.25,2.33,.45,3.33l-6.04,.74c.06-.59-.01-1.8-.18-4.14l-.32,.19c-1.63,1.01-1.84,1.18-2.46,1.87-.58,.64-.85,1.37-.79,2.07,.13,1.48,1.56,1.94,5.16,1.61,4.46-.4,8.67-1.48,11.72-3.01l1.04,6.96q-1.07,.13-3.28,.65c-2.94,.66-6,1.13-8.9,1.39-4.2,.38-6.89,.07-9-1-1.96-.96-3.22-2.92-3.43-5.26-.16-1.83,.26-3.35,1.38-5.06,1.22-1.79,2.78-3.23,4.98-4.64,.85-.55,1.21-.73,2.63-1.57-.39-.63-.87-.9-1.57-.84-1.9,.17-4.34,1.76-6.73,4.37-1.43,1.58-2.34,2.76-3.22,4.25l-5.16-4.48c1.11-1.04,2.52-2.77,3.58-4.4,.72-1.12,2.01-3.51,2.48-4.49q.47-1.02,.59-1.31c-.52,.05-.93,.08-1.19,.11q-1.6,.14-3.2,.25c-.52,0-.78,.03-1.3,.08-.07,0-.3,.03-.56,.05l-.48-6.15Z"/><path class="cls-4" d="M161.4,161.82c1.47-.29,2.39-.53,4.82-1.33,7.43-2.31,10.26-3,14.01-3.33,3.9-.35,7.06,.19,9.43,1.62,3.09,1.88,5.08,5.23,5.44,9.23,.51,5.71-2.24,10.94-7.49,14.19-3.59,2.2-7.15,3.42-13.63,4.63-1.21-3.42-1.57-4.13-3.27-6.8,4.57-.45,7.72-1.16,10.47-2.31,2.86-1.16,4.81-2.78,6-4.93,.71-1.24,.97-2.52,.84-3.99-.14-1.56-.7-2.76-1.71-3.65-1.3-1.18-3.07-1.61-5.67-1.37-3.94,.35-8.36,1.61-14.06,4.04-1.34,.55-2.27,1.03-3.08,1.53l-2.1-7.53Z"/><path class="cls-4" d="M207.36,151.78c-.63,3.43-.94,7.1-.98,11.22-.04,2.43,.11,5.36,.43,8.97,0,0,.03,.35,.17,1.44,.37-1.76,.79-3.25,1.47-4.95l4.55,1.87c-2.05,4.3-3.6,10.36-3.53,13.68l-5.96,.77q-.18-.81-.8-3.02c-1-3.63-1.78-8.11-2.14-12.23-.38-4.28-.4-6.12-.03-14.58,.05-1.49,.04-2.08-.05-3.09l6.89-.07Zm2.2,6.62c1.93,.18,4.06,.19,6.74-.05,1.37-.12,2.3-.25,3.37-.46-.85-6.58-.86-6.66-1.28-8.03l6.61-.67c0,.75-.02,1.06,.02,1.49,.01,.16,.03,.39,.1,.73,.1,.73,.31,2.56,.63,5.35,2.13-.5,3.62-1.03,5.08-1.79l.92,6.46c-.62,.13-.84,.19-2.12,.54-1.31,.39-1.38,.44-3.15,.79,.21,1.86,.24,2.25,.32,3.15,.45,4.98,.05,8.97-1.16,11.7-1.37,3.14-3.06,5.13-6.65,7.77-1.91-2.1-3.25-3.24-5.55-4.71,3.71-2.1,5.95-4.65,6.78-7.54,.54-1.93,.59-4.25,.19-8.79,0-.04-.02-.23-.04-.47-1.44,.25-2.36,.37-3.96,.51-1.41,.13-2.61,.19-3.91,.23q-1.23,.03-2.38,.13l-.53-6.34Z"/><path class="cls-4" d="M232.97,152.07c.63-.02,1.12-.06,1.41-.09,.97-.09,2.3-.28,6.32-.92,5.76-.91,8.46-1.31,19.76-2.75,3.07-.39,3.4-.46,4.06-.68l.97,7.01c-.53-.03-.68-.02-1.05,.02-2.6,.23-5.85,1.58-8.27,3.48-3.5,2.7-5.4,6.2-5.11,9.39,.2,2.21,1.34,3.64,3.55,4.5,1.59,.64,4.81,.98,7.22,.76,.37-.03,.59-.05,1.11-.18l-.19,7.5c-.53-.07-.72-.05-1.39-.07-4.27-.05-7.12-.42-9.6-1.33-4.58-1.75-7.16-5.12-7.61-10.06-.29-3.23,.49-6.24,2.37-9.07,.85-1.33,1.68-2.19,3.35-3.63l-12.75,2.36c-1.44,.29-1.8,.36-3.15,.79l-1.01-7.04Z"/><path class="cls-4" d="M278.3,166.38c1.17-3.28,1.28-5.76,.55-14.39-.74,.11-1.29,.2-1.77,.28l-2.49,3.12c-2.47-2.95-4.4-4.78-7.17-6.8l3.86-4.62c2.29,1.75,3.55,2.82,5.36,4.61l-.17-1.94c1.02,.06,1.69,.04,3.73-.14l.19-.02-.04-.47c-.12-1.32-.22-2.02-.48-2.9l5.91-.53c-.11,.91-.08,1.58,.04,2.9l.05,.5c1.67-.19,2.19-.24,3-.42l.27,2.99c.95-2.36,1.64-5.12,1.67-6.85l5.77,.39c-.33,1.36-.43,1.84-.66,2.64l3.42-.31c1.49-.13,2.19-.23,2.99-.46l.5,5.64c-.93,0-1.79,.04-3.02,.15l-5.61,.5c-.31,.77-.34,.82-.62,1.47l5.61-.5c1-.09,1.37-.12,1.78-.24l2.32,2.49c-.24,.3-.4,.55-.73,1.05-.86,1.29-1.9,2.68-2.98,3.91l.04,.47,1.67-.15c1.11-.1,1.71-.19,2.36-.37l.48,5.4c-.49-.04-1.16-.01-2.02,.06l-2.04,.18,.28,3.07c.14,1.56-.24,2.72-1.12,3.39-.7,.53-2.02,.85-4.7,1.09-.33,.03-.82,.07-1.67,.11-.22-1.59-.62-2.73-1.54-4.68,.94,.07,1.95,.06,3.1-.04,.41-.04,.54-.21,.5-.71l-.16-1.75-1.04,.09c-.97,.09-1.89,.21-2.51,.38l-.49-5.44c.75,.05,1.61,.01,2.54-.07l1.04-.09c-.09-.62-.12-.93-.28-1.43l1.15-.1c.42-.39,.78-.89,1.11-1.43l-2.68,.24c-.89,.08-1.63,.19-2.4,.37l-.29-3.19c-.51-.31-.71-.45-1.3-.75,0,.86,.05,1.76,.14,2.81,.68,7.62,.82,12.43,.39,13.91-.46,1.53-1.67,2.27-4.2,2.49-.48,.04-.82,.03-1.57,.02-.38-1.77-.61-2.65-1.15-4.05-.51,1.85-.74,2.57-1.6,4.34-.95-1.37-1.92-2.57-3.08-3.8l.21,2.33c2.31,2.34,3.79,2.6,11.11,1.94,5.76-.52,10.94-1.26,15.57-2.22-.52,2.12-.73,3.55-.79,6.26-2.37,.33-8.53,.96-14.88,1.53-7.69,.69-10.09,.24-12.96-2.48-1.09,1.23-1.64,1.75-2.96,2.97-.69,.61-.76,.66-1.08,.92q-.32,.22-.59,.48l-2.98-6.08c1.29-.62,2.84-1.78,4.17-3.2l-.67-7.5-1.37,.12c-.82,.07-1.37,.16-2.32,.4l-.53-5.87c1.09,.06,1.69,.04,3.14-.09l3.23-.29c1.15-.1,2-.22,2.85-.41,0,1.22,.04,2.11,.25,4.41l.39,4.31Zm5.75-7.69c.08,3.44-.12,6.16-.62,8.56,.56,.03,.94,.03,1.24,0,.78-.07,.98-.4,1.05-1.62,.07-1.26-.07-4.11-.3-7.07l-1.37,.12Zm-.27-5.07l2.49-.22c1.37-.12,2.22-.24,3.15-.4-.82-.4-1.17-.52-2.21-.82q.26-.42,.62-1l-4.2,.38,.15,2.06Z"/><path class="cls-4" d="M310.12,176.19c-.09-.54-.1-.74-.18-1.2-.06-.23-.13-.62-.26-1.19l-.25-1.15c-.73-3.19-1.37-7.32-1.7-10.98-.21-2.37-.35-5.14-.39-8.08q0-1.33,.37-8.77c.09-1.46,.1-2.24,.06-2.63,0-.08-.02-.19-.03-.31l6.77-.1c-.3,.81-.81,4.7-1,8.08-.24,4.06-.22,5.9-.03,11.41l2.99,.79c-.71,3.39-.85,6.82-.44,11.36,.07,.74,.14,1.16,.29,1.93l-6.22,.83Zm24.84-29.54c-.48,.04-1.29,.19-2.44,.42,.03,.74,.05,.93,.24,3.46,2.43-.45,4.74-1.05,5.63-1.48l.7,5.74c-.48,.08-.7,.1-1.07,.18l-.88,.23-.77,.15c-.81,.19-1.1,.26-1.61,.38-.15,.01-.4,.08-.78,.11l-.7,.14c.3,2.48,.4,3.26,.77,5.3,2.21,.78,3.89,1.61,6.03,2.87,.6,.38,.64,.41,1.06,.57l-1.57,6.68c-.99-1.01-2.95-2.44-4.84-3.49,.07,1.25,.06,1.52-.21,2.29-.45,1.25-1.16,2.1-2.44,2.85-1.32,.74-3.25,1.31-5.11,1.48-5.31,.48-8.82-1.91-9.21-6.23-.25-2.84,1.12-5.43,3.49-6.62,1.4-.71,2.86-1.12,4.72-1.28,.74-.07,1.27-.07,2.13-.04-.08-.5-.1-.66-.21-1.55l-.11-.81-.14-1.2c-2.08,.23-2.26,.24-2.93,.3-.85,.08-2.08,.15-3.76,.26-1.53,.06-2.09,.11-2.87,.18-.04,0-.26,.02-.48,.04l-.37-5.81c1.48,.18,4.1,.14,7.25-.14,.74-.07,1.04-.09,2.52-.27-.06-.62-.18-1.98-.2-2.25-.03-.31-.03-.35-.11-1.17-1.11,.14-2.34,.25-3.23,.33-1.97,.18-2.12,.19-5.1,.34-.49,0-.56,.01-1.01,.05-.07,0-.26,.02-.45,.04l-.3-5.85c1.47,.14,3.79,.09,7.25-.22,2.93-.26,3.41-.35,7.33-.97-.54-1.01-.77-1.46-1.34-2.39l3.31-1.12c1.13,1.7,2.14,3.81,2.8,5.78l-1.26,.55,.27,2.17Zm-8.85,19.13c-1.45,.13-2.43,.92-2.34,1.93,.09,1.01,1.08,1.55,2.6,1.41,1.78-.16,2.54-.93,2.4-2.45-.02-.27-.1-.7-.1-.7-1.03-.22-1.67-.28-2.56-.2Zm11.89-29.01c1.07,1.51,1.9,3.2,2.69,5.4l-3.15,1.26c-.76-2.2-1.58-3.89-2.67-5.6l3.13-1.06Z"/><path class="cls-4" d="M343.75,150.52q1.15-.1,4.85-1.1c5.16-1.36,8.51-1.98,12.38-2.32,4.87-.44,8.15,.64,10.16,3.4,1.07,1.47,1.71,3.18,1.88,5.12,.43,4.78-2.1,9.55-6.7,12.63-3.07,2.08-6.33,3.31-12.36,4.64-.92-2.78-1.61-4.17-3.16-6.46,4.29-.58,7.55-1.46,10.16-2.83,2.4-1.2,3.96-2.67,4.66-4.38,.37-.89,.54-1.89,.47-2.71-.21-2.33-1.95-3.39-5.04-3.12-4.35,.39-11.55,2.37-15.21,4.18l-2.09-7.06Zm4.95-13.26c4.63,1.04,9.78,1.28,15.58,.76,.67-.06,1.3-.12,2.56-.27l-.22,6.68c-7.56,.44-13.24,.25-19.28-.66l1.36-6.51Z"/></g><g><path class="cls-13" d="M61.91,187.39c-2.05,1.32-3.2,1.93-5.7,3.22-1.3-2.35-2.07-3.42-3.8-5.18,4.14-1.43,7.29-3.08,11.62-6.17-1.31-1.29-2.53-2.28-4.33-3.57-1.28,1.13-2.19,1.84-4.03,3.1-1.33-1.92-2.25-2.93-3.91-4.27,3.02-1.8,5.3-3.61,7.76-6.18,1.88-1.97,3.33-4.18,4.25-6.46l6.39,.72c-.68,1.2-.9,1.61-1.33,2.27l7.13-.64c1.34-.12,2.15-.23,3.03-.47l3.37,2.95q-.46,.71-1.28,2.03c-2.23,3.49-5.72,7.68-9.14,10.89l10.11-.91c1.71-.15,2.64-.28,3.52-.43-.05,1.1,.02,2.27,.17,4.02l.96,10.65c.17,1.9,.35,3.06,.6,4.22l-5.83,.52-.18-2.02-12.89,1.16,.18,2.02-5.83,.52c.04-1.26,0-2.47-.16-4.26l-.69-7.74Zm2.69-16.74c-.54,.63-.64,.76-1.12,1.27q2.83,1.94,4.86,3.68c2.17-2.11,3.26-3.35,4.95-5.73l-8.7,.78Zm3.31,21.02l12.97-1.16-.56-6.22-12.97,1.16,.56,6.22Z"/><path class="cls-13" d="M97.26,163.81c-.78-1.18-1.16-1.66-2.32-2.93l5.7-2.04c1.27,1.61,2.3,3.09,3.05,4.39l4.64-.42c.91-1.57,1.37-2.71,1.93-4.76l6.19,.89c-.63,1.35-1.04,2.17-1.73,3.29l3.9-.35c2.04-.18,2.97-.31,4.18-.61l.52,5.75c-1.13-.06-2.1,0-4.22,.18l-25.16,2.25c-2.04,.18-3.08,.32-4.22,.58l-.52-5.75c1.36,.08,2.32,.03,4.26-.15l3.79-.34Zm1.46,27.97c.18,2.02,.29,2.83,.57,4.22l-5.83,.52c.02-1.41-.02-2.74-.2-4.69l-1.54-17.18c-.17-1.87-.27-2.6-.47-3.52,1.01-.01,1.94-.06,3.39-.19l8.77-.79c1.75-.16,2.41-.25,3.22-.4,.01,.98,.05,1.8,.22,3.7l1.52,16.91c.33,3.65-.6,4.64-4.87,5.02-.41,.04-1,.09-1.79,.12-.6-2.49-.8-3.06-1.68-4.98,1.09,.02,1.46,.03,2.1-.03,.67-.06,.8-.23,.74-.89l-.15-1.71-4.31,.39,.31,3.5Zm3.02-14.73l-.16-1.75-4.31,.39,.16,1.75,4.31-.39Zm.56,6.3l-.16-1.75-4.31,.39,.16,1.75,4.31-.39Zm12.02-13.38c-.02,1.06,.04,2.07,.19,3.75l.78,8.75c.18,1.98,.29,2.8,.51,3.99l-5.69,.51c-.01-1.37-.04-2.07-.2-3.94l-.79-8.86c-.15-1.63-.26-2.45-.48-3.68l5.69-.51Zm7.68-1.67c-.04,1.22,.02,2.27,.18,4.06l1.42,15.86c.22,2.41,.02,3.53-.77,4.34-1,.99-2.09,1.32-5.58,1.64q-.41,.04-3.09,.24c-.58-2.3-1.02-3.4-2.06-5.46,2.02,.02,3.15,0,4.48-.13,1.26-.11,1.47-.29,1.39-1.22l-1.34-14.93c-.18-2.02-.28-2.76-.5-3.87l5.87-.53Z"/><path class="cls-13" d="M127.15,160.85c1.63,.25,3.88,.2,7.74-.15,.22-.02,.59-.05,1.04-.09,.58-1.93,.74-3,.77-4.42l6.85-.06c-.24,.61-.28,.65-.62,1.9-.38,1.17-.55,1.81-.58,1.89q.37-.07,2.25-.36c3.62-.52,7.37-1.37,9.29-2.09l.78,6.16c-1.14,.22-2.25,.44-3.31,.65-2.61,.51-7.23,1.2-11.01,1.65-.53,1.22-.75,1.71-1.53,3.04,1.53-.92,3.02-1.45,4.62-1.59,3.08-.28,5.05,.8,6.02,3.26q.61-.29,2.52-1.17c.11-.05,1.08-.49,2.23-.98,2.05-.93,2.31-1.03,2.87-1.43l2.82,5.94c-1.91,.44-5.79,1.89-9.24,3.49,.13,1.05,.13,1.09,.29,2.8,.16,1.75,.25,2.33,.45,3.33l-6.04,.74c.06-.59-.01-1.8-.18-4.14l-.32,.19c-1.63,1.01-1.84,1.18-2.46,1.87-.58,.64-.85,1.37-.79,2.07,.13,1.48,1.56,1.94,5.16,1.61,4.46-.4,8.67-1.48,11.72-3.01l1.04,6.96q-1.07,.13-3.28,.65c-2.94,.66-6,1.13-8.9,1.39-4.2,.38-6.89,.07-9-1-1.96-.96-3.22-2.92-3.43-5.26-.16-1.83,.26-3.35,1.38-5.06,1.22-1.79,2.78-3.23,4.98-4.64,.85-.55,1.21-.73,2.63-1.57-.39-.63-.87-.9-1.57-.84-1.9,.17-4.34,1.76-6.73,4.37-1.43,1.58-2.34,2.76-3.22,4.25l-5.16-4.48c1.11-1.04,2.52-2.77,3.58-4.4,.72-1.12,2.01-3.51,2.48-4.49q.47-1.02,.59-1.31c-.52,.05-.93,.08-1.19,.11q-1.6,.14-3.2,.25c-.52,0-.78,.03-1.3,.08-.07,0-.3,.03-.56,.05l-.48-6.15Z"/><path class="cls-13" d="M161.4,161.82c1.47-.29,2.39-.53,4.82-1.33,7.43-2.31,10.26-3,14.01-3.33,3.9-.35,7.06,.19,9.43,1.62,3.09,1.88,5.08,5.23,5.44,9.23,.51,5.71-2.24,10.94-7.49,14.19-3.59,2.2-7.15,3.42-13.63,4.63-1.21-3.42-1.57-4.13-3.27-6.8,4.57-.45,7.72-1.16,10.47-2.31,2.86-1.16,4.81-2.78,6-4.93,.71-1.24,.97-2.52,.84-3.99-.14-1.56-.7-2.76-1.71-3.65-1.3-1.18-3.07-1.61-5.67-1.37-3.94,.35-8.36,1.61-14.06,4.04-1.34,.55-2.27,1.03-3.08,1.53l-2.1-7.53Z"/><path class="cls-13" d="M207.36,151.78c-.63,3.43-.94,7.1-.98,11.22-.04,2.43,.11,5.36,.43,8.97,0,0,.03,.35,.17,1.44,.37-1.76,.79-3.25,1.47-4.95l4.55,1.87c-2.05,4.3-3.6,10.36-3.53,13.68l-5.96,.77q-.18-.81-.8-3.02c-1-3.63-1.78-8.11-2.14-12.23-.38-4.28-.4-6.12-.03-14.58,.05-1.49,.04-2.08-.05-3.09l6.89-.07Zm2.2,6.62c1.93,.18,4.06,.19,6.74-.05,1.37-.12,2.3-.25,3.37-.46-.85-6.58-.86-6.66-1.28-8.03l6.61-.67c0,.75-.02,1.06,.02,1.49,.01,.16,.03,.39,.1,.73,.1,.73,.31,2.56,.63,5.35,2.13-.5,3.62-1.03,5.08-1.79l.92,6.46c-.62,.13-.84,.19-2.12,.54-1.31,.39-1.38,.44-3.15,.79,.21,1.86,.24,2.25,.32,3.15,.45,4.98,.05,8.97-1.16,11.7-1.37,3.14-3.06,5.13-6.65,7.77-1.91-2.1-3.25-3.24-5.55-4.71,3.71-2.1,5.95-4.65,6.78-7.54,.54-1.93,.59-4.25,.19-8.79,0-.04-.02-.23-.04-.47-1.44,.25-2.36,.37-3.96,.51-1.41,.13-2.61,.19-3.91,.23q-1.23,.03-2.38,.13l-.53-6.34Z"/><path class="cls-13" d="M232.97,152.07c.63-.02,1.12-.06,1.41-.09,.97-.09,2.3-.28,6.32-.92,5.76-.91,8.46-1.31,19.76-2.75,3.07-.39,3.4-.46,4.06-.68l.97,7.01c-.53-.03-.68-.02-1.05,.02-2.6,.23-5.85,1.58-8.27,3.48-3.5,2.7-5.4,6.2-5.11,9.39,.2,2.21,1.34,3.64,3.55,4.5,1.59,.64,4.81,.98,7.22,.76,.37-.03,.59-.05,1.11-.18l-.19,7.5c-.53-.07-.72-.05-1.39-.07-4.27-.05-7.12-.42-9.6-1.33-4.58-1.75-7.16-5.12-7.61-10.06-.29-3.23,.49-6.24,2.37-9.07,.85-1.33,1.68-2.19,3.35-3.63l-12.75,2.36c-1.44,.29-1.8,.36-3.15,.79l-1.01-7.04Z"/><path class="cls-13" d="M278.3,166.38c1.17-3.28,1.28-5.76,.55-14.39-.74,.11-1.29,.2-1.77,.28l-2.49,3.12c-2.47-2.95-4.4-4.78-7.17-6.8l3.86-4.62c2.29,1.75,3.55,2.82,5.36,4.61l-.17-1.94c1.02,.06,1.69,.04,3.73-.14l.19-.02-.04-.47c-.12-1.32-.22-2.02-.48-2.9l5.91-.53c-.11,.91-.08,1.58,.04,2.9l.05,.5c1.67-.19,2.19-.24,3-.42l.27,2.99c.95-2.36,1.64-5.12,1.67-6.85l5.77,.39c-.33,1.36-.43,1.84-.66,2.64l3.42-.31c1.49-.13,2.19-.23,2.99-.46l.5,5.64c-.93,0-1.79,.04-3.02,.15l-5.61,.5c-.31,.77-.34,.82-.62,1.47l5.61-.5c1-.09,1.37-.12,1.78-.24l2.32,2.49c-.24,.3-.4,.55-.73,1.05-.86,1.29-1.9,2.68-2.98,3.91l.04,.47,1.67-.15c1.11-.1,1.71-.19,2.36-.37l.48,5.4c-.49-.04-1.16-.01-2.02,.06l-2.04,.18,.28,3.07c.14,1.56-.24,2.72-1.12,3.39-.7,.53-2.02,.85-4.7,1.09-.33,.03-.82,.07-1.67,.11-.22-1.59-.62-2.73-1.54-4.68,.94,.07,1.95,.06,3.1-.04,.41-.04,.54-.21,.5-.71l-.16-1.75-1.04,.09c-.97,.09-1.89,.21-2.51,.38l-.49-5.44c.75,.05,1.61,.01,2.54-.07l1.04-.09c-.09-.62-.12-.93-.28-1.43l1.15-.1c.42-.39,.78-.89,1.11-1.43l-2.68,.24c-.89,.08-1.63,.19-2.4,.37l-.29-3.19c-.51-.31-.71-.45-1.3-.75,0,.86,.05,1.76,.14,2.81,.68,7.62,.82,12.43,.39,13.91-.46,1.53-1.67,2.27-4.2,2.49-.48,.04-.82,.03-1.57,.02-.38-1.77-.61-2.65-1.15-4.05-.51,1.85-.74,2.57-1.6,4.34-.95-1.37-1.92-2.57-3.08-3.8l.21,2.33c2.31,2.34,3.79,2.6,11.11,1.94,5.76-.52,10.94-1.26,15.57-2.22-.52,2.12-.73,3.55-.79,6.26-2.37,.33-8.53,.96-14.88,1.53-7.69,.69-10.09,.24-12.96-2.48-1.09,1.23-1.64,1.75-2.96,2.97-.69,.61-.76,.66-1.08,.92q-.32,.22-.59,.48l-2.98-6.08c1.29-.62,2.84-1.78,4.17-3.2l-.67-7.5-1.37,.12c-.82,.07-1.37,.16-2.32,.4l-.53-5.87c1.09,.06,1.69,.04,3.14-.09l3.23-.29c1.15-.1,2-.22,2.85-.41,0,1.22,.04,2.11,.25,4.41l.39,4.31Zm5.75-7.69c.08,3.44-.12,6.16-.62,8.56,.56,.03,.94,.03,1.24,0,.78-.07,.98-.4,1.05-1.62,.07-1.26-.07-4.11-.3-7.07l-1.37,.12Zm-.27-5.07l2.49-.22c1.37-.12,2.22-.24,3.15-.4-.82-.4-1.17-.52-2.21-.82q.26-.42,.62-1l-4.2,.38,.15,2.06Z"/><path class="cls-13" d="M310.12,176.19c-.09-.54-.1-.74-.18-1.2-.06-.23-.13-.62-.26-1.19l-.25-1.15c-.73-3.19-1.37-7.32-1.7-10.98-.21-2.37-.35-5.14-.39-8.08q0-1.33,.37-8.77c.09-1.46,.1-2.24,.06-2.63,0-.08-.02-.19-.03-.31l6.77-.1c-.3,.81-.81,4.7-1,8.08-.24,4.06-.22,5.9-.03,11.41l2.99,.79c-.71,3.39-.85,6.82-.44,11.36,.07,.74,.14,1.16,.29,1.93l-6.22,.83Zm24.84-29.54c-.48,.04-1.29,.19-2.44,.42,.03,.74,.05,.93,.24,3.46,2.43-.45,4.74-1.05,5.63-1.48l.7,5.74c-.48,.08-.7,.1-1.07,.18l-.88,.23-.77,.15c-.81,.19-1.1,.26-1.61,.38-.15,.01-.4,.08-.78,.11l-.7,.14c.3,2.48,.4,3.26,.77,5.3,2.21,.78,3.89,1.61,6.03,2.87,.6,.38,.64,.41,1.06,.57l-1.57,6.68c-.99-1.01-2.95-2.44-4.84-3.49,.07,1.25,.06,1.52-.21,2.29-.45,1.25-1.16,2.1-2.44,2.85-1.32,.74-3.25,1.31-5.11,1.48-5.31,.48-8.82-1.91-9.21-6.23-.25-2.84,1.12-5.43,3.49-6.62,1.4-.71,2.86-1.12,4.72-1.28,.74-.07,1.27-.07,2.13-.04-.08-.5-.1-.66-.21-1.55l-.11-.81-.14-1.2c-2.08,.23-2.26,.24-2.93,.3-.85,.08-2.08,.15-3.76,.26-1.53,.06-2.09,.11-2.87,.18-.04,0-.26,.02-.48,.04l-.37-5.81c1.48,.18,4.1,.14,7.25-.14,.74-.07,1.04-.09,2.52-.27-.06-.62-.18-1.98-.2-2.25-.03-.31-.03-.35-.11-1.17-1.11,.14-2.34,.25-3.23,.33-1.97,.18-2.12,.19-5.1,.34-.49,0-.56,.01-1.01,.05-.07,0-.26,.02-.45,.04l-.3-5.85c1.47,.14,3.79,.09,7.25-.22,2.93-.26,3.41-.35,7.33-.97-.54-1.01-.77-1.46-1.34-2.39l3.31-1.12c1.13,1.7,2.14,3.81,2.8,5.78l-1.26,.55,.27,2.17Zm-8.85,19.13c-1.45,.13-2.43,.92-2.34,1.93,.09,1.01,1.08,1.55,2.6,1.41,1.78-.16,2.54-.93,2.4-2.45-.02-.27-.1-.7-.1-.7-1.03-.22-1.67-.28-2.56-.2Zm11.89-29.01c1.07,1.51,1.9,3.2,2.69,5.4l-3.15,1.26c-.76-2.2-1.58-3.89-2.67-5.6l3.13-1.06Z"/><path class="cls-13" d="M343.75,150.52q1.15-.1,4.85-1.1c5.16-1.36,8.51-1.98,12.38-2.32,4.87-.44,8.15,.64,10.16,3.4,1.07,1.47,1.71,3.18,1.88,5.12,.43,4.78-2.1,9.55-6.7,12.63-3.07,2.08-6.33,3.31-12.36,4.64-.92-2.78-1.61-4.17-3.16-6.46,4.29-.58,7.55-1.46,10.16-2.83,2.4-1.2,3.96-2.67,4.66-4.38,.37-.89,.54-1.89,.47-2.71-.21-2.33-1.95-3.39-5.04-3.12-4.35,.39-11.55,2.37-15.21,4.18l-2.09-7.06Zm4.95-13.26c4.63,1.04,9.78,1.28,15.58,.76,.67-.06,1.3-.12,2.56-.27l-.22,6.68c-7.56,.44-13.24,.25-19.28-.66l1.36-6.51Z"/></g></g><g class="cls-15"><g><path class="cls-8" d="M361.47,105.7c3.75-17.53-9.71-35.34-30.1-39.71s-39.97,6.38-43.72,23.91c-.17,.81-.23,1.53-.4,2.34l2.93,.63h0l67.97,14.55h0l2.74,.59c.17-.81,.42-1.49,.59-2.3Z"/><path class="cls-6" d="M318.34,127.31c18.03,3.86,35.22-4.97,39.82-20.01l-67.97-14.55c-1.96,15.61,10.21,30.71,28.15,34.55Z"/><path class="cls-6" d="M290.2,92.76s-.02,.12,0,0l67.97,14.55h0l-67.97-14.55Z"/></g><g><ellipse cx="312.25" cy="86.11" rx="4.87" ry="2.03" transform="translate(162.7 373.43) rotate(-77.92)"/><path d="M313.07,82.28c.38,.08,.93,1.66,.41,4.09s-1.67,3.65-2.05,3.57-.93-1.66-.41-4.09,1.67-3.65,2.05-3.57m.4-1.86c-1.51-.32-3.28,1.97-3.95,5.1-.67,3.13,0,5.95,1.52,6.27s3.28-1.97,3.95-5.1c.67-3.13,0-5.95-1.52-6.27h0Z"/></g><path class="cls-7" d="M358.11,52.22c1.47-6.85-2.7-13.69-9.31-15.1-.94-.2-1.82-.27-2.72-.22-1.53-3.48-4.34-6.03-7.83-6.77s-7.01,.44-9.8,2.88c-.54-.24-1.2-.38-1.86-.52-6.61-1.41-13.18,3.01-14.67,9.97-1.14,5.34,1.17,10.69,5.33,13.4l-3.08,14.39,29.55,6.32,3.06-14.28c5.42-.42,10.12-4.39,11.34-10.08Z"/><path class="cls-3" d="M325.3,56.97c-2.24-3.39-3.16-7.84-2.19-12.37"/><path class="cls-2" d="M347.06,49.85c-.97,4.53-3.63,8.21-7.06,10.39"/><line class="cls-10" x1="322.13" y1="57.51" x2="343.08" y2="61.99"/><path class="cls-1" d="M360.69,115.54l-1.32-.28c-1.7-.36-2.67-2.27-2.23-4.36l4.25-19.85c.45-2.09,2.12-3.43,3.82-3.07l1.32,.28c1.7,.36,2.67,2.27,2.23,4.36l-4.25,19.85c-.42,1.97-2.21,3.41-3.82,3.07Z"/><path class="cls-1" d="M285.85,99.52l-1.32-.28c-1.7-.36-2.67-2.27-2.23-4.36l4.25-19.85c.45-2.09,2.12-3.43,3.82-3.07l1.32,.28c1.7,.36,2.67,2.27,2.23,4.36l-4.25,19.85c-.33,1.99-2.12,3.43-3.82,3.07Z"/><path class="cls-5" d="M321.63,111.85c17.55,3.76,32.9,1.64,35.6-4.71l-66.16-14.16c-.13,6.9,13.1,15.13,30.56,18.86Z"/><polyline class="cls-11" points="344.15 87.49 338.35 91.88 343.61 96.72"/></g></svg>