<?xml version="1.0" encoding="utf-8"?>
<!-- Generator: Adobe Illustrator 26.5.3, SVG Export Plug-In . SVG Version: 6.00 Build 0)  -->
<svg version="1.1" id="レイヤー_1" xmlns="http://www.w3.org/2000/svg" xmlns:xlink="http://www.w3.org/1999/xlink" x="0px"
	 y="0px" viewBox="0 0 592 310" style="enable-background:new 0 0 592 310;" xml:space="preserve">
<style type="text/css">
	.st0{fill:#FFFFFF;}
	.st1{fill:#FFCE67;}
	.st2{fill:#FFFFFF;stroke:#000000;stroke-width:3.5885;stroke-linecap:round;stroke-linejoin:round;stroke-miterlimit:10;}
	.st3{fill:#FFFFFF;stroke:#000000;stroke-width:3.3125;stroke-linecap:round;stroke-linejoin:round;stroke-miterlimit:10;}
	.st4{fill:#FFFFFF;stroke:#000000;stroke-width:3.7337;stroke-linecap:round;stroke-linejoin:round;stroke-miterlimit:10;}
	.st5{fill:#FFFFFF;stroke:#000000;stroke-width:4.3756;stroke-linecap:round;stroke-linejoin:round;stroke-miterlimit:10;}
	.st6{fill:#FFFFFF;stroke:#000000;stroke-width:4.3752;stroke-linecap:round;stroke-linejoin:round;stroke-miterlimit:10;}
	.st7{fill:none;stroke:#000000;stroke-width:4.4942;stroke-linecap:round;stroke-linejoin:round;stroke-miterlimit:10;}
	.st8{fill:none;stroke:#000000;stroke-width:3.6938;stroke-miterlimit:10;}
	.st9{fill:#FFFFFF;stroke:#000000;stroke-width:2.9851;stroke-linecap:round;stroke-miterlimit:10;}
	.st10{fill:none;stroke:#000000;stroke-width:3.0518;stroke-linecap:round;stroke-linejoin:round;stroke-miterlimit:10;}
	.st11{fill:#FFFFFF;stroke:#000000;stroke-width:2.8615;stroke-miterlimit:10;}
	.st12{fill:#FFFFFF;stroke:#000000;stroke-width:2.879;stroke-miterlimit:10;}
</style>
<rect x="0.5" class="st0" width="591" height="310"/>
<path class="st1" d="M436.5,310h-281c-85.6,0-155-69.4-155-155v0c0-85.6,69.4-155,155-155h281c85.6,0,155,69.4,155,155v0
	C591.5,240.6,522.1,310,436.5,310z"/>
<g>
	<path d="M115.6,107.8c0-1.2,0.4-2.1,1.2-2.9c0.8-0.8,1.8-1.2,2.9-1.2h9.5l-1.6-4.6c-0.7-1.7-1.3-3.3-2-4.8
		c-0.6-1.5-1.4-2.9-2.2-4.1c-0.7-1.2-1.6-1.9-2.5-2c-1,0.1-1.9,0.7-2.7,2c-0.8,1.3-1.5,2.6-2.1,4.1c-0.6,1.5-1.3,3.1-2,4.8
		l-5.9,16.2c-0.4,0.9-0.9,1.6-1.6,2.1c-0.6,0.6-1.6,0.8-2.9,0.8c-1.2,0-2.2-0.4-2.9-1.2c-0.8-0.8-1.1-1.8-1-3c0-0.5,0.2-1,0.4-1.5
		l6.8-17.6c1.9-4.6,3.8-8.4,5.7-11.3c1.9-2.8,4.6-4.2,8.2-4.3c3.6,0,6.3,1.5,8.2,4.3c1.9,2.8,3.8,6.6,5.7,11.3l6.8,17.6
		c0.2,0.5,0.3,1,0.4,1.5c0.1,1.2-0.3,2.2-1,3c-0.8,0.8-1.7,1.2-2.9,1.2c-1.4,0-2.4-0.3-3-0.8c-0.6-0.6-1.2-1.3-1.6-2.1l-1.2-3.2
		h-12.5c-1.2,0-2.1-0.4-2.9-1.2C116,109.9,115.6,109,115.6,107.8z"/>
	<path d="M146.9,113.3c0-1.2,0.4-2.1,1.2-2.9s1.8-1.2,2.9-1.2H163v-20h-11.9c-1.2,0-2.1-0.4-2.9-1.2c-0.8-0.8-1.3-1.8-1.3-2.9
		c0-1.2,0.4-2.1,1.2-2.9c0.8-0.8,1.8-1.2,2.9-1.2h32.2c1.2,0,2.2,0.4,3,1.2c0.8,0.8,1.2,1.8,1.2,3c0,1.2-0.4,2.1-1.2,2.9
		c-0.8,0.8-1.8,1.2-2.9,1.2h-11.9v20h11.9c1.2,0,2.2,0.4,3,1.2c0.8,0.8,1.2,1.8,1.2,3s-0.4,2.1-1.2,2.9c-0.8,0.8-1.8,1.2-2.9,1.2
		h-32.2c-1.2,0-2.1-0.4-2.9-1.2C147.3,115.4,146.9,114.4,146.9,113.3z"/>
</g>
<g>
	<path d="M100.5,137.3c0-1.1,0.4-2,1.2-2.8c0.8-0.8,1.7-1.1,2.9-1.1h10.6c0-1.1,0.4-2,1.2-2.7c0.7-0.7,1.5-1.1,2.5-1.1
		c1,0,1.8,0.4,2.4,1.1c0.7,0.7,1,1.6,1.1,2.6h9.2c1.1,0,2.1,0.4,2.9,1.1c0.7,0.7,1.1,1.7,1.1,2.8c0,1.1-0.4,2-1.2,2.8
		c-0.8,0.8-1.7,1.1-2.9,1.1h-9.1c0,1.2,0,2.5,0,3.7h7.8c3.1,0.1,5.6,0.8,7.4,1.9s3.2,2.6,4.2,4.4c1,1.8,1.5,3.6,1.5,5.4
		c0,2.3-0.4,4.3-1.2,5.9c-0.8,1.6-2.2,3.1-4.1,4.3s-4.3,1.9-7.2,1.9H128c-1.2,0-2.1-0.4-2.9-1.2c-0.8-0.7-1.2-1.7-1.2-2.7
		c0-1.1,0.4-2.1,1.2-2.8c0.8-0.8,1.8-1.1,2.9-1.1h3.2c0.8,0,1.5-0.2,2.2-0.7c0.7-0.4,1.2-1.3,1.5-2.5s0.3-2.3-0.2-3.2
		c-0.2-0.6-0.6-1.2-1.1-1.7c-0.5-0.5-1.1-0.8-1.9-0.8h-9.3c0,1.6,0,3.2,0,4.8c0,3.4-1,6.2-2.9,8.2c-1.9,2.1-4.6,3.1-8.2,3
		c-2.4,0.1-4.5-0.5-6.3-1.7c-1.8-1.2-3.2-2.6-3.9-4.4c-0.8-1.8-1.2-3.6-1.2-5.5c0-1.8,0.4-3.6,1.2-5.3c0.8-1.8,2.1-3.2,3.8-4.4
		c1.7-1.2,4.2-1.8,7.3-1.9h3v-3.7h-10.6c-1.1,0-2.1-0.4-2.9-1.2C100.9,139.3,100.5,138.4,100.5,137.3z M112.4,152
		c-1.2,0-2.2,0.3-3,0.8c-0.8,0.5-1.3,1.1-1.5,1.7c-0.3,0.6-0.4,1.3-0.4,1.9c0,0.7,0.1,1.3,0.4,2s0.6,1.2,1.1,1.7
		c0.5,0.5,1.1,0.7,1.9,0.7c1.5,0,2.6-0.4,3.2-1.1c0.7-0.7,1-1.7,1-2.9V152H112.4z M137.3,137.2c0-1.2,0.4-2.2,1.3-3.1
		c0.9-0.8,2-1.3,3.3-1.3s2.4,0.4,3.3,1.3c0.9,0.8,1.3,1.9,1.3,3.1s-0.4,2.2-1.3,3.1c-0.9,0.8-2,1.3-3.3,1.3s-2.4-0.4-3.3-1.3
		S137.3,138.5,137.3,137.2z"/>
	<path d="M159,167.2v-10.3c-1,2.4-2.3,4.6-3.9,6.6c-0.6,0.7-1.2,1-1.7,1c-0.4,0-0.7-0.2-1.1-0.5c-0.4-0.3-0.7-0.7-0.9-1.3l-1.5-3.7
		c-0.2-0.4-0.2-0.8-0.2-1.3c0-0.9,0.4-1.7,1.1-2.4c2.5-2.5,4.5-5.1,6-7.8h-2.9c-1,0-1.8-0.4-2.5-1.1c-0.7-0.7-1.1-1.5-1.1-2.5
		c0-1,0.3-1.8,1.1-2.5c0.7-0.7,1.5-1,2.5-1h5.4v-2.6L156,139c-0.4,0.2-0.8,0.3-1.2,0.3c-1,0-1.8-0.6-2.2-1.9
		c-0.6-1.9-1.2-3.7-1.9-5.5c-0.1-0.4-0.2-0.7-0.2-1.1c0-1,0.3-1.7,1-2.4c0.6-0.6,1.4-0.9,2.3-0.9c0.7,0,1.4,0.2,2,0.6
		c0.6,0.4,0.9,0.9,1.1,1.5c0.9,2.6,1.7,5,2.3,7.2v-9.3c0-0.9,0.2-1.5,0.7-2c0.5-0.5,1.1-0.7,2-0.7h2.5c0.9,0,1.5,0.2,2,0.7
		c0.5,0.5,0.7,1.1,0.7,2v8.6c1-2.3,1.8-4.6,2.4-6.8c0.2-0.7,0.6-1.3,1.2-1.7c0.6-0.5,1.2-0.7,2-0.7c1,0,1.8,0.3,2.4,1
		c0.7,0.6,1,1.4,1,2.4c0,0-0.1,0.4-0.2,1c-1,3.1-1.7,5.2-2.2,6.3c-0.5,1.2-1.2,1.7-2.2,1.7c-0.5,0-0.9-0.1-1.3-0.2l-3-1.2v2.7h4.9
		c0.8,0,1.5,0.1,2,0.4c0.5,0.3,0.7,0.7,0.7,1.1v1.7l4-3.6c0.7-0.6,1.3-0.9,1.9-0.9c0.5,0,1.1,0.2,1.8,0.7c3.2,2.2,6,4.4,8.6,6.6
		c0.7,0.6,1.1,1.2,1.1,1.9c0,0.6-0.3,1.2-1.1,1.9l-2.1,2c-0.7,0.6-1.3,0.9-1.9,0.9c-0.6,0-1.2-0.3-1.9-0.8
		c-2.9-2.4-6.4-5.2-10.6-8.3v0.9c0,0.9-0.2,1.5-0.6,2c-0.4,0.5-1,0.7-1.8,0.7h-2.4l2.1,3l3.8,5.7l20.3-2.9v-26c0-0.9,0.2-1.5,0.7-2
		c0.5-0.5,1.1-0.7,2-0.7h3.6c0.9,0,1.5,0.2,2,0.7c0.5,0.5,0.7,1.1,0.7,2v24.7l2.4-0.3l0.6-0.1c0.7,0,1.2,0.2,1.6,0.6
		c0.4,0.4,0.6,1,0.7,1.8l0.3,2.2c0.1,0.8-0.1,1.5-0.5,2c-0.4,0.5-1,0.9-1.9,1l-3.3,0.4v7.3c0,0.8-0.2,1.5-0.7,2
		c-0.5,0.5-1.1,0.7-2,0.7h-3.6c-0.8,0-1.5-0.2-2-0.7c-0.5-0.5-0.7-1.1-0.7-2v-6.1l-19.1,2.7l-0.6,0.1c-0.7,0-1.3-0.2-1.6-0.6
		c-0.4-0.4-0.6-1-0.7-1.8l-0.3-2.7l-0.7,0.6c-0.6,0.5-1.2,0.7-1.7,0.7c-0.8,0-1.4-0.5-1.9-1.4l-2.1-3.6v12.1c0,0.8-0.2,1.5-0.7,2
		c-0.5,0.5-1.1,0.7-2,0.7h-2.9c-0.8,0-1.5-0.2-2-0.7C159.2,168.7,159,168,159,167.2z M183.1,128.1c0.6-0.5,1.3-0.8,2-0.8
		c0.6,0,1.2,0.2,1.7,0.6c2,1.5,4.3,3.2,7,5.2c0.7,0.6,1.1,1.2,1.1,1.9c0,0.6-0.3,1.3-1.1,1.9l-2.1,1.9c-0.7,0.6-1.3,0.9-1.9,0.9
		c-0.6,0-1.1-0.2-1.7-0.6c-2.6-2.1-4.9-3.8-6.9-5.3c-0.8-0.5-1.2-1.2-1.2-2c0-0.6,0.3-1.2,1-1.8L183.1,128.1z"/>
	<path d="M230.2,166.2V163c-4.9,1-9.2,1.9-12.9,2.5l-0.6,0.1c-1.4,0-2.2-0.8-2.4-2.4l-0.2-2.2c-0.1-0.8,0.1-1.5,0.4-2s1-0.8,1.9-0.9
		l2.5-0.4v-9.3h-1.5c-0.8,0-1.5-0.2-2-0.7c-0.5-0.5-0.7-1.1-0.7-2v-2.3c0-0.9,0.2-1.5,0.6-2s0.9-0.7,1.5-0.7h2v-5.9h-2.1
		c-0.9,0-1.5-0.2-2-0.7c-0.5-0.5-0.7-1.1-0.7-2v-2.4c0-0.9,0.2-1.5,0.7-2c0.5-0.5,1.1-0.7,2-0.7h12.8c0.8,0,1.5,0.2,2,0.7
		c0.5,0.5,0.7,1.1,0.7,2v2.4c0,0.9-0.2,1.5-0.6,2c-0.4,0.5-1,0.7-1.7,0.7h-2.4v5.9h1.7c0.8,0,1.5,0.2,2,0.7c0.5,0.5,0.7,1.1,0.7,2
		v2.3c0,0.8-0.2,1.5-0.6,2s-0.9,0.7-1.6,0.7h-2.2v7.7l1.8-0.4c0.2,0,0.4-0.1,0.8-0.1c1.3,0,2,0.8,2.1,2.4l0.1,3.7h15.7v-2.4h-11.4
		c-0.9,0-1.6-0.3-2.3-1c-0.7-0.6-1-1.4-1-2.4c0-0.9,0.3-1.7,1-2.3c0.7-0.6,1.4-1,2.3-1h11.4v-2.5h-11.5c-0.8,0-1.5-0.2-2-0.7
		c-0.5-0.5-0.7-1.1-0.7-2V128c0-0.9,0.2-1.5,0.7-2c0.5-0.5,1.1-0.7,2-0.7h32.1c0.9,0,1.5,0.2,2,0.7c0.5,0.5,0.7,1.1,0.7,2v19.6
		c0,0.9-0.2,1.5-0.7,2s-1.1,0.7-2,0.7h-11.6v2.5h12.1c0.9,0,1.6,0.3,2.3,1c0.7,0.6,1,1.4,1,2.3c0,1-0.3,1.7-1,2.4
		c-0.7,0.6-1.4,1-2.3,1h-12.1v2.4h12.6c1,0,1.8,0.3,2.5,1c0.7,0.7,1.1,1.5,1.1,2.5c0,1-0.4,1.8-1.1,2.5c-0.7,0.7-1.5,1.1-2.5,1.1
		h-36.8c-0.9,0-1.5-0.2-2-0.7C230.4,167.8,230.2,167.1,230.2,166.2z M248.1,135.6v-3.5h-6.2v3.5
		C241.9,135.6,248.1,135.6,248.1,135.6z M248.1,144.1v-3.4h-6.2v3.4C241.9,144.1,248.1,144.1,248.1,144.1z M263.3,135.6v-3.5h-6.2
		v3.5C257.1,135.6,263.3,135.6,263.3,135.6z M263.3,144.1v-3.4h-6.2v3.4C257.1,144.1,263.3,144.1,263.3,144.1z"/>
</g>
<g>
	<path d="M122.1,175.4c1.1,0,2.1,0.4,2.9,1.2c0.7,0.7,1.2,1.6,1.2,2.7h5.9c0.2,0,0.5,0,0.7,0.1h0.4c2.9,0.1,5.3,0.7,7.1,1.9
		c1.9,1.2,3.2,2.5,4,4s1.2,3,1.2,4.6c0,1.6-0.4,3.1-1.2,4.6c-0.8,1.5-2.1,2.9-4,4c-0.2,0.2-0.5,0.3-0.7,0.4l3,3.8
		c0.7,0.9,1,1.9,0.8,3s-0.7,2.1-1.5,2.8c-0.9,0.7-2,1-3.1,0.8c-1.1,0-2-0.5-2.8-1.5l-6-7.6h-4v10.4c0,1.1-0.5,2.1-1.2,2.8
		c-0.8,0.8-1.7,1.2-2.9,1.2c-1.2,0-2.2-0.4-3-1.1s-1.3-1.7-1.3-2.9v-10.4H117c-2.3,0-4.1,0.7-5.5,2s-2.4,2.5-3,3.7l-1.1,1.5
		c-0.5,0.7-1.1,1.3-1.8,1.7s-1.6,0.4-2.7,0.1c-1.1-0.3-1.9-1-2.4-2c-0.5-1-0.6-2.1-0.3-3.2c0.1-0.5,0.3-1,0.6-1.4l1.4-1.9
		c2.7-3.7,4.9-6,6.7-7.1c1.8-1,3.9-1.6,6.3-1.8h19.3c0.6,0,1.1-0.1,1.5-0.4c0.4-0.2,0.7-0.5,0.9-0.8c0.2-0.3,0.3-0.6,0.3-1
		c0-0.3-0.1-0.6-0.3-0.9c-0.2-0.3-0.5-0.6-0.9-0.8s-0.9-0.4-1.5-0.4h-30.3c-1.2,0-2.1-0.4-2.9-1.2c-0.8-0.8-1.2-1.8-1.2-2.9
		c0-1.2,0.4-2.1,1.2-2.9c0.8-0.8,1.8-1.2,2.9-1.2h13.7c0.1-1.1,0.5-2,1.3-2.7C120,175.8,121,175.4,122.1,175.4z"/>
	<path d="M152.9,195.3c0-1.2,0.4-2.1,1.2-2.9c0.8-0.8,1.8-1.2,2.9-1.2h31.2c1.2,0,2.2,0.4,3,1.2c0.8,0.8,1.2,1.8,1.2,3
		s-0.4,2.1-1.2,2.9c-0.8,0.8-1.8,1.2-2.9,1.2h-31.2c-1.2,0-2.1-0.4-2.9-1.2C153.3,197.4,152.9,196.4,152.9,195.3z"/>
	<path d="M200,181.3c0-1.2,0.4-2.1,1.2-2.9c0.8-0.8,1.8-1.2,2.9-1.2h31.2c1.2,0,2.2,0.4,3,1.2c0.8,0.8,1.2,1.8,1.2,3
		s-0.4,2.1-1.2,2.9c-0.8,0.8-1.8,1.2-3,1.2h-31.2c-1.2,0-2.1-0.4-2.9-1.2C200.4,183.5,200,182.5,200,181.3z M200,209.7
		c0-1.2,0.4-2.1,1.2-2.9c0.8-0.8,1.8-1.2,2.9-1.2h31.2c1.2,0,2.2,0.4,3,1.2c0.8,0.8,1.2,1.8,1.2,3s-0.4,2.1-1.2,2.9
		c-0.8,0.8-1.8,1.2-3,1.2h-31.2c-1.2,0-2.1-0.4-2.9-1.2C200.4,211.8,200,210.8,200,209.7z M200.3,195.3c0-1.2,0.4-2.1,1.2-2.9
		c0.8-0.8,1.8-1.2,2.9-1.2h31.2c1.2,0,2.2,0.4,3,1.2c0.8,0.8,1.2,1.8,1.2,3s-0.4,2.1-1.2,2.9c-0.8,0.8-1.8,1.2-3,1.2h-31.2
		c-1.2,0-2.1-0.4-2.9-1.2C200.7,197.4,200.3,196.4,200.3,195.3z"/>
	<path d="M247,181.3c0-1.2,0.4-2.1,1.2-2.9c0.8-0.8,1.8-1.2,2.9-1.2h16c1.2,0,2.2,0.4,3,1.2c0.8,0.8,1.2,1.8,1.2,3s-0.4,2.1-1.2,2.9
		c-0.8,0.8-1.8,1.2-2.9,1.2h-16c-1.2,0-2.1-0.4-2.9-1.2C247.5,183.5,247,182.5,247,181.3z M288.6,181.6l-5.7,17.6
		c-1.7,4.7-3.7,8.3-6.2,10.7s-5.2,3.7-8.1,3.8h-11.7c-1.1,0-2.1-0.4-2.8-1.2c-0.8-0.8-1.2-1.7-1.2-2.8c0-1.2,0.4-2.2,1.1-3
		c0.8-0.8,1.7-1.3,2.9-1.3h9.6c1.6-0.1,3.1-0.7,4.4-1.8c1.4-1.1,2.4-2.4,3.1-3.8c0.7-1.4,1.3-3,1.8-4.7l5.1-16.3
		c0.3-0.9,0.7-1.6,1.3-2.1c0.6-0.6,1.4-0.8,2.6-0.8c1.1,0,2.1,0.4,2.9,1.2c0.8,0.8,1.2,1.8,1.2,3
		C288.8,180.7,288.7,181.2,288.6,181.6z"/>
	<path d="M311.2,177.2h26.4c1.2,0,2.2,0.4,3,1.2c0.9,0.9,1.3,1.9,1.2,3l-2,14.6c-0.4,2.9-1.2,5.7-2.3,8.3c-1.2,2.6-2.9,4.8-5,6.6
		c-2.1,1.8-4.6,2.8-7.6,2.9h-5.7c-1.1,0-2.1-0.4-2.8-1.2c-0.8-0.8-1.2-1.7-1.2-2.8c0-1.2,0.4-2.2,1.1-3s1.7-1.3,2.9-1.3h4.7
		c1.6-0.1,2.9-0.7,4.1-1.8c1.2-1.1,2-2.4,2.4-3.8c0.5-1.4,0.8-3,1-4.7l1.1-8.1c0.1-1-0.2-1.5-1.1-1.5H314c-0.4,1.8-1,3.5-1.7,5.1
		c-1.2,2.6-2.9,4.8-5,6.6s-4.6,2.8-7.6,2.9h-1.4c-1.1,0-2.1-0.4-2.8-1.2c-0.8-0.8-1.2-1.7-1.2-2.8c0-1.2,0.4-2.2,1.1-3
		c0.8-0.8,1.7-1.3,2.9-1.3h0.4c1.6-0.1,2.9-0.7,4.1-1.8c1.2-1.1,2-2.4,2.4-3.8c0.5-1.4,0.8-3,1-4.7v-0.3c0.2-1.2,0.8-2.1,1.7-2.9
		C309,177.6,310,177.2,311.2,177.2z M323.4,170.2c0-1.2,0.4-2.3,1.3-3.2c0.9-0.9,1.9-1.3,3.2-1.3s2.3,0.4,3.2,1.3
		c0.9,0.9,1.3,1.9,1.3,3.2s-0.4,2.3-1.3,3.2c-0.9,0.9-1.9,1.3-3.2,1.3s-2.3-0.4-3.2-1.3C323.8,172.5,323.4,171.5,323.4,170.2z
		 M334,170.2c0-1.2,0.4-2.3,1.3-3.2c0.9-0.9,1.9-1.3,3.2-1.3s2.3,0.4,3.2,1.3c0.9,0.9,1.3,1.9,1.3,3.2s-0.4,2.3-1.3,3.2
		c-0.9,0.9-1.9,1.3-3.2,1.3s-2.3-0.4-3.2-1.3C334.5,172.5,334,171.5,334,170.2z"/>
</g>
<path class="st0" d="M82.6,117.4H72c-5.9,0-10.6-4.7-10.6-10.6V96.2c0-5.9,4.7-10.6,10.6-10.6h10.6c5.9,0,10.6,4.7,10.6,10.6v10.6
	C93.2,112.7,88.4,117.4,82.6,117.4z"/>
<path class="st0" d="M82.6,165.2H72c-5.8,0-10.6-4.7-10.6-10.6v-10.6c0-5.8,4.7-10.6,10.6-10.6h10.6c5.8,0,10.6,4.7,10.6,10.6v10.6
	C93.2,160.4,88.4,165.2,82.6,165.2z"/>
<path class="st0" d="M82.6,212.9H72c-5.9,0-10.6-4.8-10.6-10.6v-10.6c0-5.9,4.8-10.6,10.6-10.6h10.6c5.9,0,10.6,4.8,10.6,10.6v10.6
	C93.2,208.1,88.4,212.9,82.6,212.9z"/>
<g>
	<g>
		<path class="st2" d="M507.7,159.2c-5.6-30.1-38.6-49.4-73.7-42.8s-58.8,36.4-53.2,66.6c0.3,1.4,0.6,2.6,0.9,4l5-0.9l0,0
			l116.8-21.9l0,0l4.7-0.9C508.1,161.8,508,160.6,507.7,159.2z"/>
		<path class="st3" d="M454,221.8c31-5.8,52.3-31.1,49.6-57.8l-116.8,21.9C394,211.8,423.1,227.6,454,221.8z"/>
		<path class="st3" d="M386.7,185.8C386.7,185.8,386.8,186,386.7,185.8l116.8-21.9l0,0L386.7,185.8z"/>
	</g>
	<g>
		<ellipse transform="matrix(0.9829 -0.1843 0.1843 0.9829 -22.4843 79.6158)" cx="417.2" cy="160.8" rx="3.5" ry="8.3"/>
		<path d="M415.9,154.2c0.6-0.1,2.6,2,3.3,6.2c0.8,4.2-0.2,6.9-0.9,7c-0.6,0.1-2.6-2-3.3-6.2C414.3,157,415.3,154.3,415.9,154.2
			 M415.3,151c-2.6,0.5-3.9,5.3-2.9,10.7c1,5.4,3.9,9.4,6.5,8.9c2.6-0.5,3.9-5.3,2.9-10.7C420.9,154.5,417.9,150.5,415.3,151
			L415.3,151z"/>
	</g>
	<path class="st4" d="M467.1,77.1c-2.2-11.8-13.3-19.8-24.6-17.7c-1.6,0.3-3,0.8-4.4,1.5c-4.7-4.5-10.8-6.6-16.8-5.5
		c-6,1.1-10.8,5.3-13.6,11c-1,0-2.1,0.2-3.3,0.4c-11.4,2.1-18.8,13.4-16.6,25.4c1.7,9.2,8.9,16.1,17.2,17.6l4.6,24.7l50.8-9.5
		l-4.6-24.5C464.2,96.2,469,86.8,467.1,77.1z"/>
	<path class="st5" d="M418.5,106.2c-5.8-3.9-10.2-10.3-11.6-18.1"/>
	<path class="st6" d="M448.1,80.6c1.5,7.8-0.3,15.3-4.3,21"/>
	<line class="st7" x1="413.9" y1="109.1" x2="449.9" y2="102.4"/>
	<g>
		<path class="st8" d="M410.1,152"/>
	</g>
	<path class="st9" d="M513,175.3l-2.3,0.4c-2.9,0.5-5.7-1.8-6.4-5.4l-6.4-34.1c-0.7-3.6,1.1-6.8,4-7.4l2.3-0.4
		c2.9-0.5,5.7,1.8,6.4,5.4l6.4,34.1C517.6,171.3,515.7,174.7,513,175.3z"/>
	<path class="st9" d="M384.3,199.4l-2.3,0.4c-2.9,0.5-5.7-1.8-6.4-5.4l-6.4-34.1c-0.7-3.6,1.1-6.8,4-7.4l2.3-0.4
		c2.9-0.5,5.7,1.8,6.4,5.4l6.4,34.1C389.1,195.4,387.3,198.8,384.3,199.4z"/>
	<g>
		<ellipse transform="matrix(0.9829 -0.1843 0.1843 0.9829 -19.9163 88.3127)" cx="465.2" cy="151.3" rx="3.5" ry="8.3"/>
		<path d="M464,144.7c0.6-0.1,2.6,2,3.3,6.2c0.8,4.2-0.2,6.9-0.9,7c-0.6,0.1-2.6-2-3.3-6.2C462.3,147.5,463.4,144.9,464,144.7
			 M463.4,141.5c-2.6,0.5-3.9,5.3-2.9,10.7s3.9,9.4,6.5,8.9c2.6-0.5,3.9-5.3,2.9-10.7C468.9,145.1,466,141.1,463.4,141.5
			L463.4,141.5z"/>
	</g>
	<path class="st10" d="M477.1,204.7"/>
	<g>
		<ellipse class="st11" cx="509.9" cy="171.4" rx="11.5" ry="17.2"/>
		<ellipse class="st12" cx="508.4" cy="195" rx="24" ry="26.8"/>
	</g>
</g>
<g>
	<path d="M150.1,256.5c-0.1-0.9-0.3-1.3-0.4-1.9l-0.5-1.5h-5.1l-0.5,1.5c-0.2,0.7-0.4,1.3-0.5,1.9H139c0.3-0.5,0.4-1,0.9-2.2
		l3.9-10.8c0.3-0.9,0.5-1.4,0.6-1.9h4.7c0.1,0.5,0.3,1,0.6,1.9l3.9,10.8c0.3,1,0.6,1.7,0.9,2.2H150.1z M146.6,244.6L145,250h3.4
		L146.6,244.6z"/>
	<path d="M159.6,241.6c-0.1,0.7-0.1,1.3-0.1,2.7v9.7c0,1.2,0,1.9,0.1,2.7h-4c0.1-0.7,0.1-1.5,0.1-2.7v-9.7c0-1.3,0-1.9-0.1-2.7
		H159.6z"/>
	<path d="M165.9,245.2c0.1,0,0.1,0,0.2,0c0.6,0,2.3-0.1,3.5-0.3c0.3-1.9,0.4-2.9,0.4-3.5c0-0.1,0-0.2,0-0.3l3.3,0.3
		c-0.1,0.2-0.1,0.3-0.1,0.4c0,0.1,0,0.2-0.1,0.3l-0.1,0.6c-0.2,0.9-0.3,1.7-0.3,1.9c0.3,0,0.5,0,0.8,0c1.1,0,1.9,0.2,2.6,0.7
		c0.9,0.7,1.3,1.8,1.3,3.9c0,2.8-0.4,5.1-1.1,6.4c-0.3,0.4-0.7,0.8-1.2,1.1c-0.4,0.2-0.8,0.3-1.4,0.3c-0.8,0-1.6-0.1-2.9-0.5
		c0.1-0.5,0.1-0.7,0.1-1c0-0.8-0.1-1.3-0.3-2.2c1,0.4,1.9,0.6,2.5,0.6c0.4,0,0.6-0.2,0.8-0.8c0.3-0.8,0.5-2.6,0.5-4
		c0-0.8-0.1-1.2-0.3-1.4c-0.2-0.2-0.5-0.3-1.1-0.3c-0.2,0-0.3,0-0.7,0c-0.6,3-1.7,6.1-3.2,9.1c-0.1,0.3-0.2,0.4-0.3,0.7l-3-1.6
		c1.1-1.5,2.6-5.1,3.4-8c-1.1,0.2-2.3,0.4-2.8,0.5L165.9,245.2z M177.8,241.5c0.7,0.8,1.3,1.6,1.8,2.6l-1.7,0.8
		c-0.6-1.1-1-1.8-1.8-2.6L177.8,241.5z M180.2,244.6c1.2,1.6,2.2,3.9,2.8,6.4l-3,1.4c-0.4-2.3-1.4-5.2-2.4-6.6L180.2,244.6z
		 M180.2,240.4c0.7,0.7,1.2,1.4,1.8,2.5l-1.7,0.8c-0.6-1.1-1.1-1.9-1.8-2.6L180.2,240.4z"/>
	<path d="M191.2,252.2c-0.2,0.5-0.3,0.8-0.5,1.5c-0.6-0.6-0.9-1-1.4-1.8c0.1,0.8,0.1,0.8,0.1,1.4v2.6c0,0.8,0,1.3,0.1,1.7h-2.8
		c0.1-0.5,0.1-1,0.1-1.8v-1.6c0-0.6,0-1,0-1.5c-0.7,1.5-1.1,2.1-1.9,3c-0.3-1.1-0.6-1.8-1.2-2.7c1.1-1,2.1-2.4,2.7-3.9h-0.7
		c-0.8,0-1.2,0-1.7,0.1v-2.6c0.4,0.1,0.8,0.1,1.7,0.1h1v-4.3c0-0.8,0-1.2-0.1-1.6h2.8c-0.1,0.4-0.1,0.8-0.1,1.6v2.6
		c0.3-0.9,0.6-2,0.9-3.3l1.9,0.9c-0.5,1.7-0.8,2.8-1.4,3.9l-1.4-0.8v1h0.8c0.8,0,1,0,1.4-0.1v1.3l1.4-1.6c1.4,1,2.1,1.6,3.1,2.6
		l-1.7,2c-1.1-1.2-1.8-1.8-2.8-2.6v0.9c-0.5-0.1-0.8-0.1-1.5-0.1h-0.6c0.5,0.8,1.2,1.4,2.1,2.1c-0.2,0.4-0.2,0.5-0.4,0.8
		c0.4,0,1.1-0.1,1.6-0.2l3.5-0.7v-6.4l-1.4,1.7c-1.2-1.2-1.6-1.5-3.1-2.7l1.7-1.9c1.4,1,2,1.4,2.8,2.2v-1c0-1.2,0-1.6-0.1-2.3h3
		c-0.1,0.6-0.1,1.1-0.1,2.3v7.4c0.6-0.1,0.9-0.2,1.5-0.4l0.2,2.8c-0.4,0.1-0.9,0.1-1.6,0.3v2.2c0,1.2,0,1.6,0.1,2.3h-3
		c0.1-0.7,0.1-1.1,0.1-2.3v-1.7l-3.2,0.7c-1,0.2-1.4,0.3-1.7,0.4L191.2,252.2z M185.7,241.5c0.5,1.6,0.8,2.4,1,3.9l-1.9,0.9
		c-0.3-1.6-0.5-2.6-1-3.8L185.7,241.5z"/>
	<path d="M203.1,243.9c-0.4,0-0.7,0-1.3,0.1v-2.6c0.5,0.1,1,0.1,1.7,0.1h2.4c0.7,0,1.2,0,1.7-0.1v2.6c-0.4-0.1-0.8-0.1-1.2-0.1h-0.2
		v2.8h0.1c0.4,0,0.7,0,1.1-0.1v2.5c-0.4,0-0.7-0.1-1.1-0.1h-0.1v2.5c0.6-0.3,0.8-0.3,1.4-0.6l0,2.7c-1.4,0.7-2.5,1.2-5,2.2
		c-0.1,0.1-0.1,0.1-0.4,0.2l-0.6-2.8c0.6-0.1,0.8-0.2,1.9-0.6v-3.5h-0.2c-0.5,0-0.8,0-1.3,0.1v-2.5c0.4,0.1,0.7,0.1,1.3,0.1h0.2
		v-2.8H203.1z M211.6,253.7H210c-1.2,0-1.5,0-2,0.1v-2.5c0.4,0.1,0.8,0.1,2,0.1h1.7v-0.9H210c-1.2,0-1.6,0-2.1,0.1
		c0.1-0.5,0.1-1.2,0.1-2.4v-4.3c0-1.3,0-1.9-0.1-2.5c0.8,0.1,1.3,0.1,2.5,0.1h5.2c1.4,0,1.9,0,2.4-0.1c-0.1,0.6-0.1,1.5-0.1,2.7v4.1
		c0,1.4,0,2,0.1,2.5c-0.5,0-0.7,0-1.8,0h-2.1v0.9h1.9c1.1,0,1.5,0,2.1-0.1v2.6c-0.6-0.1-1-0.1-2-0.1h-1.9v1h2.4c1.1,0,1.5,0,2.1-0.1
		v2.6c-0.6-0.1-1.2-0.1-2.3-0.1h-7.1c-1.1,0-1.6,0-2.3,0.1v-2.6c0.5,0.1,0.9,0.1,1.9,0.1h2.7V253.7z M210.5,243.7v1.1h1.1v-1.1
		H210.5z M210.5,246.9v1.1h1.1v-1.1H210.5z M214.2,244.8h1.1v-1.1h-1.1V244.8z M214.2,248h1.1v-1.1h-1.1V248z"/>
	<path d="M225.2,241.7c-0.7,2.1-1.2,5.4-1.4,8.7l1.4,0.5c-0.5,1.6-0.7,3.2-0.7,5c0,0.3,0,0.5,0.1,0.9l-3.1,0.1c0-0.3,0-0.5-0.1-1
		c-0.3-2.4-0.5-4-0.5-5.7c0-2.1,0.2-4.3,0.7-6.9c0.2-1.3,0.2-1.4,0.3-1.9L225.2,241.7z M230.1,249.6c-0.8,1.1-1.2,1.8-1.2,2.5
		c0,0.8,0.8,1.3,2.3,1.3c1.6,0,3.1-0.3,4.5-0.7l0.2,3.2c-0.5,0.1-0.5,0.1-1.5,0.2c-1,0.1-2.1,0.2-3.1,0.2c-1.7,0-2.8-0.2-3.7-0.8
		c-1-0.6-1.7-1.7-1.7-2.9c0-0.9,0.3-1.9,0.9-2.8c0.3-0.4,0.4-0.6,0.8-1.3L230.1,249.6z M226.6,243.1c0.8,0.2,1.8,0.3,3.2,0.3
		c2.4,0,4.2-0.1,5.4-0.4l0.1,3.1c-0.2,0-0.3,0-1.3,0.1c-1.2,0.1-2.6,0.2-3.8,0.2c-1.1,0-2,0-3.1-0.1c-0.1,0-0.3,0-0.5,0L226.6,243.1
		z"/>
	<path d="M243.9,244.8c0.2-0.3,0.4-0.7,0.5-1.1h-4c-1,0-1.8,0-2.5,0.1v-2.7c0.8,0.1,1.5,0.1,2.5,0.1H252c0.9,0,1.7,0,2.5-0.1v2.7
		c-0.8-0.1-1.5-0.1-2.5-0.1h-4.5c-0.1,0.3-0.3,0.7-0.5,1.1h4.9c1,0,1.5,0,2.1-0.1c-0.1,0.7-0.1,1.2-0.1,2.4v7.9c0,1,0,1.9,0.1,2.7
		h-2.8V257h-10v0.7h-2.8c0.1-0.8,0.1-1.5,0.1-2.7v-7.9c0-0.9,0-1.6-0.1-2.4c0.6,0.1,1.2,0.1,2.1,0.1H243.9z M242.4,247.2h-1.2v7.4
		h1.2V247.2z M244.9,247.2v1h2.5v-1H244.9z M244.9,251.3h2.5v-1h-2.5V251.3z M247.4,253.5h-2.5v1.1h2.5V253.5z M250,254.5h1.3v-7.4
		H250V254.5z"/>
	<path d="M261.7,242.8c0.5-0.8,0.8-1.7,1-2.3l3.2,0.3c-0.1,0.1-0.2,0.4-0.4,0.8c-0.2,0.3-0.3,0.6-0.6,1.1h4.5c0.8,0,1.4,0,2-0.1
		c-0.1,0.6-0.1,1.4-0.1,2.2v9.9c0,1.1,0,1.8,0.1,2.6h-3v-0.8h-8.5v0.8h-3c0.1-0.7,0.1-1.6,0.1-2.6V245c0-0.8,0-1.6-0.1-2.2
		c0.6,0.1,1.2,0.1,1.9,0.1H261.7z M259.9,248.4h8.5v-3h-8.5V248.4z M259.9,254.1h8.5v-3.2h-8.5V254.1z"/>
	<path d="M278.1,242.3c-0.1,0.8-0.2,1.9-0.2,3.3c0,4,0.6,7.1,1.3,7.1c0.2,0,0.4-0.2,0.6-0.7c0.4-1,0.7-2,0.9-3.1
		c0.8,1,1.3,1.4,2.5,2.3c-0.4,1.4-0.8,2.5-1.4,3.5c-0.7,1.2-1.6,1.8-2.7,1.8c-1,0-1.9-0.5-2.6-1.5c-0.9-1.3-1.4-3.1-1.7-6
		c-0.1-1.3-0.2-2.8-0.2-5.3c0-0.6,0-0.8-0.1-1.3H278.1z M286.4,243c2.3,2.8,3.7,6.1,4.2,10.5l-3.2,1.2c-0.2-4-1.4-7.6-3.7-10.4
		L286.4,243z"/>
	<path d="M296,252.1c-1,0.5-1.6,0.8-2.9,1.2c-0.5-1.1-0.8-1.7-1.6-2.5c2.1-0.5,3.6-1.1,5.9-2.4c-0.6-0.6-1.1-1.2-1.9-1.8
		c-0.7,0.5-1.1,0.8-2.1,1.3c-0.6-0.9-1-1.4-1.7-2.1c1.5-0.7,2.7-1.4,4-2.5c1-0.8,1.8-1.8,2.3-2.8l3,0.6c-0.4,0.5-0.5,0.7-0.7,1h3.5
		c0.6,0,1,0,1.5-0.1l1.5,1.5c-0.3,0.3-0.3,0.3-0.7,0.9c-1.2,1.5-3.1,3.3-4.9,4.6h4.9c0.8,0,1.3,0,1.7-0.1c-0.1,0.5-0.1,1-0.1,1.9
		v4.9c0,0.9,0,1.4,0.1,2H305v-0.9h-6.2v0.9h-2.8c0.1-0.6,0.1-1.1,0.1-2V252.1z M298,244.5c-0.3,0.3-0.3,0.3-0.6,0.5
		c1.3,1,1.3,1,2.2,1.9c1.1-0.9,1.7-1.4,2.6-2.4H298z M298.7,254.3h6.3v-2.9h-6.3V254.3z"/>
	<path d="M314,242.7c-0.3-0.6-0.5-0.8-1-1.4l2.8-0.7c0.5,0.8,1,1.5,1.3,2.1h2.3c0.5-0.7,0.8-1.2,1.1-2.1l2.9,0.7
		c-0.4,0.6-0.6,1-1,1.4h1.9c1,0,1.4,0,2-0.1v2.7c-0.5-0.1-1-0.1-2-0.1h-12.2c-1,0-1.5,0-2.1,0.1v-2.7c0.6,0.1,1.1,0.1,2.1,0.1H314z
		 M313.5,255.6c0,0.9,0,1.3,0.1,2h-2.8c0.1-0.6,0.1-1.3,0.1-2.2v-8c0-0.9,0-1.2-0.1-1.6c0.5,0,0.9,0.1,1.6,0.1h4.2
		c0.8,0,1.2,0,1.6-0.1c0,0.4-0.1,0.8-0.1,1.7v7.8c0,1.7-0.5,2.1-2.6,2.1c-0.2,0-0.5,0-0.9,0c-0.2-1.2-0.3-1.4-0.6-2.4
		c0.5,0.1,0.7,0.1,1,0.1c0.3,0,0.4-0.1,0.4-0.4V254h-2.1V255.6z M315.6,248.9v-0.8h-2.1v0.8H315.6z M315.6,251.9v-0.8h-2.1v0.8
		H315.6z M321.9,246.2c-0.1,0.5-0.1,1-0.1,1.7v4.1c0,0.9,0,1.3,0.1,1.9h-2.8c0.1-0.6,0.1-1,0.1-1.8v-4.1c0-0.8,0-1.1-0.1-1.7H321.9z
		 M325.7,245.8c-0.1,0.6-0.1,1-0.1,1.9v7.3c0,1.1-0.1,1.6-0.6,2c-0.5,0.4-1.1,0.5-2.8,0.5c-0.2,0-0.2,0-1.5,0
		c-0.2-1.1-0.3-1.6-0.8-2.6c1,0.1,1.5,0.1,2.2,0.1c0.6,0,0.7-0.1,0.7-0.5v-6.9c0-0.9,0-1.3-0.1-1.8H325.7z"/>
	<path d="M328.9,242.6c0.8,0.2,1.9,0.3,3.7,0.3c0.1,0,0.3,0,0.5,0c0.4-0.9,0.5-1.4,0.6-2l3.3,0.3c-0.1,0.3-0.2,0.3-0.4,0.8
		c-0.2,0.5-0.3,0.8-0.4,0.8c0.2,0,0.2,0,1.1-0.1c1.8-0.1,3.6-0.3,4.6-0.6l0.1,2.9c-0.6,0.1-1.1,0.1-1.6,0.2
		c-1.3,0.1-3.5,0.3-5.4,0.3c-0.3,0.5-0.4,0.8-0.9,1.3c0.8-0.4,1.5-0.5,2.3-0.5c1.5,0,2.4,0.6,2.8,1.7c0.3-0.1,0.3-0.1,1.3-0.4
		c0.1,0,0.5-0.2,1.1-0.4c1-0.3,1.2-0.4,1.4-0.5l1.1,2.8c-0.9,0.1-2.9,0.6-4.6,1.2c0,0.5,0,0.5,0,1.3c0,0.8,0,1.1,0.1,1.5l-2.9,0.1
		c0.1-0.3,0.1-0.8,0.1-1.9l-0.2,0.1c-0.8,0.4-0.9,0.5-1.3,0.8c-0.3,0.3-0.5,0.6-0.5,0.9c0,0.7,0.7,1,2.4,1c2.2,0,4.2-0.3,5.8-0.9
		l0.2,3.2c-0.5,0-0.5,0-1.6,0.2c-1.4,0.2-2.9,0.3-4.3,0.3c-2,0-3.3-0.3-4.3-0.8c-0.9-0.5-1.4-1.5-1.4-2.6c0-0.8,0.3-1.5,0.9-2.3
		c0.7-0.8,1.5-1.4,2.6-1.9c0.4-0.2,0.6-0.3,1.3-0.6c-0.2-0.3-0.4-0.4-0.7-0.4c-0.9,0-2.2,0.6-3.4,1.7c-0.8,0.7-1.2,1.2-1.7,1.8
		l-2.3-2.3c0.6-0.4,1.3-1.2,1.9-1.9c0.4-0.5,1.1-1.5,1.4-2c0.3-0.5,0.3-0.5,0.3-0.6c-0.3,0-0.5,0-0.6,0c-0.8,0-0.8,0-1.5,0
		c-0.3,0-0.4,0-0.6,0c0,0-0.1,0-0.3,0L328.9,242.6z"/>
	<path d="M346,244.4c0.7-0.1,1.2-0.1,2.4-0.4c3.7-0.8,5.1-1,6.9-1c1.9,0,3.4,0.4,4.5,1.1c1.4,1,2.2,2.6,2.2,4.5
		c0,2.6-1.5,4.9-4.2,6.2c-1.8,0.9-3.6,1.3-6.8,1.6c-0.4-1.6-0.6-2-1.3-3.3c2.2,0,3.8-0.2,5.1-0.6c1.4-0.4,2.4-1.1,3.1-2
		c0.4-0.5,0.6-1.1,0.6-1.8c0-0.7-0.2-1.3-0.7-1.7c-0.6-0.6-1.4-0.9-2.7-0.9c-1.9,0-4.1,0.4-6.9,1.3c-0.7,0.2-1.1,0.4-1.5,0.6
		L346,244.4z"/>
	<path d="M369,241.7c-0.5,1.5-0.8,3.2-1,5.1c-0.1,1.1-0.2,2.5-0.2,4.1c0,0,0,0.2,0,0.7c0.3-0.8,0.5-1.5,0.9-2.2l2.1,1
		c-1.2,1.9-2.2,4.6-2.3,6.1l-2.9,0.1c-0.1-0.4-0.1-0.4-0.3-1.4c-0.3-1.7-0.5-3.8-0.5-5.7c0-2,0.1-2.8,0.6-6.7c0.1-0.7,0.1-1,0.1-1.4
		L369,241.7z M369.7,244.8c0.9,0.2,1.9,0.3,3.2,0.3c0.7,0,1.1,0,1.6-0.1c-0.1-3.1-0.1-3.1-0.3-3.7l3.2,0c0,0.3-0.1,0.5-0.1,0.7
		c0,0.1,0,0.2,0,0.3c0,0.3,0,1.2,0.1,2.5c1-0.1,1.8-0.3,2.5-0.6l0.2,3c-0.3,0-0.4,0.1-1,0.2c-0.6,0.1-0.7,0.1-1.5,0.2
		c0,0.9,0,1,0,1.5c0,2.3-0.4,4.1-1.1,5.3c-0.8,1.4-1.7,2.2-3.5,3.3c-0.8-1-1.4-1.6-2.5-2.4c1.9-0.8,3.1-1.9,3.6-3.2
		c0.3-0.9,0.5-1.9,0.5-4c0,0,0-0.1,0-0.2c-0.7,0.1-1.2,0.1-1.9,0.1c-0.7,0-1.3,0-1.9-0.1c-0.6,0-0.6,0-1.2,0L369.7,244.8z"/>
	<path d="M384.4,241.7c0.8,0.1,1.4,0.1,2.6,0.1c1.6,0,3.6-0.1,5.4-0.2c0.8-0.1,1-0.1,1.4-0.3l1.5,2.2c-0.5,0.3-0.5,0.3-2.9,2.4
		c-1,0.8-1.3,1.1-2.5,2c1-0.3,1.5-0.3,2.5-0.3c1.7,0,2.9,0.4,3.9,1.2c0.9,0.8,1.3,1.8,1.3,3.1c0,1.8-0.8,3.3-2.5,4.2
		c-1.2,0.7-3,1.1-4.8,1.1c-3,0-4.9-1.2-4.9-3.2c0-1.7,1.5-2.9,3.6-2.9c1.3,0,2.4,0.5,3.2,1.4c0.4,0.4,0.6,0.8,0.8,1.4
		c1-0.4,1.4-1,1.4-2c0-1.3-1.2-2-3.2-2c-1.9,0-3.9,0.6-5.5,1.7c-0.6,0.4-1.1,0.8-1.7,1.3l-1.7-2.7c1.7-0.8,5.5-3.7,7.7-5.9
		c-1,0.1-1.7,0.1-4.2,0.3c-0.5,0-0.8,0.1-1.2,0.1L384.4,241.7z M388.9,253.4c-0.4,0-0.7,0.2-0.7,0.6c0,0.5,0.6,0.8,1.5,0.8
		c0.2,0,0.3,0,0.6-0.1C390.1,253.9,389.6,253.4,388.9,253.4z"/>
	<path d="M409.8,241c-0.1,0.8-0.1,2.1-0.1,3.4c0,0,0,0.1,0,0.3c2.1,0,4.1-0.2,5.3-0.5l0.2,3c-0.4,0-0.5,0-1.3,0.1
		c-1.8,0.2-2.5,0.2-4.1,0.3c0,0.8,0,0.8,0.2,3.3c1.8,0.6,3.1,1.3,5.1,2.7c0.3,0.2,0.4,0.3,0.6,0.4l-1.9,2.8c-0.8-1-2.1-2-3.7-2.8
		c0,0.1,0,0.2,0,0.3c0,0.8-0.3,1.5-0.8,2c-0.8,0.8-2.1,1.2-3.8,1.2c-1.5,0-2.7-0.3-3.5-0.9c-0.8-0.6-1.2-1.6-1.2-2.7
		c0-1.1,0.5-2,1.4-2.7c0.9-0.6,2-1,3.5-1c0.5,0,0.7,0,1.3,0.1c-0.1-1.4-0.2-5.1-0.2-7.6c0-0.9,0-1.1-0.1-1.7L409.8,241z
		 M405.6,252.9c-1.1,0-1.8,0.4-1.8,0.9c0,0.6,0.6,1,1.5,1c0.7,0,1.3-0.3,1.5-0.7c0.1-0.2,0.1-0.3,0.1-0.8c0-0.1,0-0.2,0-0.2
		C406.4,252.9,406.1,252.9,405.6,252.9z"/>
	<path d="M424.7,252c0-0.4,0-0.5,0-0.8c0-0.3,0-0.3-0.1-1.4l-0.4-5.7c0-0.7-0.1-1.5-0.2-2.4h4.2c-0.1,0.4-0.2,1.7-0.2,2.4l-0.4,5.7
		c0,0.8-0.1,1.1-0.1,1.4c0,0.2,0,0.4,0,0.8H424.7z M424.4,256.6v-3.4h3.6v3.4H424.4z"/>
	<path d="M442.7,252c0-0.4,0-0.5,0-0.8c0-0.3,0-0.3-0.1-1.4l-0.4-5.7c0-0.7-0.1-1.5-0.2-2.4h4.2c-0.1,0.4-0.2,1.7-0.2,2.4l-0.4,5.7
		c0,0.8-0.1,1.1-0.1,1.4c0,0.2,0,0.4,0,0.8H442.7z M442.4,256.6v-3.4h3.6v3.4H442.4z"/>
</g>
</svg>
