<?xml version="1.0" encoding="UTF-8"?><svg id="_レイヤー_1" xmlns="http://www.w3.org/2000/svg" viewBox="0 0 320 240"><defs><style>.cls-1{stroke-width:6.52px;}.cls-1,.cls-2,.cls-3{stroke:#000;stroke-linecap:round;stroke-linejoin:round;}.cls-1,.cls-3{fill:#fff;}.cls-2{fill:none;stroke-width:7.86px;}.cls-3{stroke-width:7.65px;}</style></defs><g><path class="cls-1" d="M230.4,77.29c0-20.86-16.48-38.38-36.71-38.17-2.92,0-5.42,.42-8.14,1.04-6.68-9.18-16.48-14.81-27.12-14.81s-20.23,5.63-26.91,14.6c-1.46-.63-3.55-.63-5.42-.63-20.23,0-36.71,17.1-36.5,38.38,0,16.27,10.22,30.46,23.99,35.88v44.01h90.32v-43.6c15.23-4.8,26.49-19.4,26.49-36.71h0Z"/><path class="cls-3" d="M137.58,111.7c-8.55-8.55-14.18-20.86-14.18-34.84"/><path class="cls-3" d="M196.82,77.29c0,13.77-5.42,26.28-14.18,34.84"/><line class="cls-2" x1="128.61" y1="115.25" x2="192.65" y2="115.25"/></g><g><path d="M67.3,181.22c0-.38,.13-.71,.4-.97,.27-.27,.59-.4,.97-.4h8.62c.08,0,.16,0,.25,.02h.12c.96,.03,1.75,.28,2.36,.77,.62,.49,1.06,1.04,1.33,1.65,.27,.62,.41,1.24,.41,1.87s-.13,1.29-.4,1.91c-.27,.62-.71,1.17-1.33,1.65-.62,.49-1.41,.72-2.37,.71h-1.15c-.38,0-.71-.14-.96-.41-.27-.26-.41-.58-.41-.96s.13-.71,.4-.98,.59-.4,.98-.4h1.27c.26,0,.48-.08,.65-.26,.17-.17,.3-.37,.38-.59,.08-.23,.12-.46,.12-.69,0-.22-.04-.44-.12-.67s-.21-.42-.38-.6c-.17-.17-.39-.26-.65-.28h-9.12c-.38,0-.71-.14-.96-.41-.27-.26-.41-.58-.41-.96Zm6.16,2.4c.37,.01,.67,.15,.89,.4s.33,.56,.3,.93l-.12,1.09c-.14,.97-.39,1.89-.76,2.75-.4,.86-.95,1.59-1.65,2.19-.71,.6-1.54,.92-2.49,.98h-.9c-.37-.01-.68-.15-.93-.4-.25-.25-.39-.56-.4-.93,0-.38,.13-.71,.38-.99,.25-.27,.57-.42,.95-.43h.58c.52-.03,.97-.23,1.37-.6,.39-.37,.66-.79,.81-1.26,.15-.47,.26-.99,.33-1.55l.08-.84c.07-.38,.25-.7,.55-.95s.64-.38,1.03-.38Z"/><path d="M85.63,182.29c.3,0,.55,.1,.76,.31,.21,.21,.31,.46,.33,.76v3.35c-.07,.66-.43,1.01-1.09,1.07-.3,0-.56-.1-.79-.31-.23-.21-.34-.46-.34-.76v-3.35c.01-.31,.13-.57,.35-.77s.48-.3,.78-.3Zm9.5,1.44l-1.4,4.39c-.44,1.26-.99,2.2-1.64,2.83s-1.37,.97-2.13,1.03h-1.31c-.3-.01-.55-.12-.76-.33-.21-.21-.31-.45-.31-.74,0-.31,.1-.58,.3-.8s.46-.33,.77-.35h.74c.42-.01,.82-.17,1.18-.46,.36-.29,.64-.63,.83-1.02s.35-.79,.47-1.23l1.21-4.04c.08-.23,.2-.42,.35-.58s.38-.23,.68-.23,.56,.11,.77,.33c.21,.22,.32,.49,.32,.8,0,.14-.02,.27-.06,.39Zm-6.22-1.44c.3,0,.55,.1,.76,.31,.21,.21,.32,.46,.33,.76v3.35c-.07,.66-.43,1.01-1.09,1.07-.3,0-.57-.1-.79-.31s-.34-.46-.34-.76v-3.35c.01-.31,.13-.57,.35-.77,.22-.2,.48-.3,.78-.3Z"/><path d="M97.64,181.22c0-.38,.13-.71,.4-.97,.27-.27,.59-.4,.98-.4h9.28c-.23-.37-.35-.79-.35-1.25,0-.63,.22-1.17,.67-1.61s.99-.67,1.63-.67,1.17,.22,1.61,.67,.67,.98,.67,1.61-.22,1.18-.66,1.62c-.14,.14-.27,.25-.41,.35,.11,.21,.16,.42,.14,.66l-.66,4.82c-.14,.97-.39,1.89-.76,2.75-.4,.86-.95,1.59-1.65,2.19-.71,.6-1.54,.92-2.5,.98h-3.86c-.37-.01-.68-.15-.93-.4-.25-.25-.39-.56-.4-.93,0-.38,.13-.71,.38-.99,.25-.27,.57-.42,.95-.43h3.53c.52-.03,.98-.23,1.37-.6,.39-.37,.66-.79,.81-1.26,.15-.47,.26-.99,.33-1.55l.37-2.69c.04-.33-.08-.5-.35-.51h-9.22c-.38,0-.71-.14-.96-.41-.27-.26-.41-.58-.41-.96Zm11.42-2.63c0,.33,.12,.61,.35,.84,.23,.23,.51,.35,.84,.35s.59-.12,.82-.35,.35-.51,.35-.84-.12-.59-.35-.82c-.23-.23-.51-.35-.82-.35s-.61,.12-.84,.35c-.23,.23-.35,.51-.35,.82Z"/><path d="M125.17,179.85c.7,.01,1.32,.23,1.87,.66,.55,.42,.99,.93,1.32,1.52,.33,.59,.58,1.21,.75,1.87,.17,.66,.25,1.33,.25,2.01,0,.9-.14,1.79-.42,2.66-.28,.87-.74,1.64-1.38,2.31-.64,.67-1.43,1.03-2.39,1.09h-6.55c-.96-.04-1.76-.4-2.4-1.07s-1.1-1.44-1.37-2.32c-.27-.88-.4-1.77-.4-2.67s.14-1.79,.41-2.66c.27-.87,.73-1.64,1.37-2.32,.64-.68,1.43-1.04,2.39-1.08h6.55Zm-.7,9.36c.52-.03,.96-.22,1.3-.58,.35-.36,.6-.78,.75-1.26,.15-.48,.23-.96,.23-1.46s-.08-.97-.24-1.45c-.16-.47-.41-.89-.75-1.26-.34-.37-.77-.57-1.29-.59h-5.21c-.52,.03-.95,.23-1.29,.59-.34,.37-.59,.79-.75,1.26-.16,.47-.24,.96-.24,1.45s.08,.98,.23,1.46,.4,.9,.75,1.26c.35,.36,.78,.56,1.3,.58h5.21Z"/><path d="M132.13,185.82c0-.38,.13-.71,.4-.97,.27-.27,.59-.4,.97-.4h10.31c.38,0,.71,.13,.99,.39,.26,.27,.39,.6,.39,.99s-.13,.71-.4,.98c-.27,.27-.59,.4-.97,.4h-10.31c-.38,0-.71-.14-.96-.41-.27-.26-.41-.58-.41-.96Z"/><path d="M149.46,179.52c.37,.01,.68,.15,.94,.4,.26,.25,.4,.56,.41,.93v3.59h8.23c.38,0,.71,.13,.98,.39,.26,.27,.39,.6,.39,.99s-.13,.71-.4,.98c-.27,.27-.59,.4-.97,.4h-8.23v3.72c-.08,.82-.54,1.27-1.36,1.33-.38,0-.71-.13-1-.38-.28-.25-.42-.57-.42-.95v-10.06c.01-.38,.16-.7,.43-.96,.27-.25,.6-.38,.99-.38Zm4.39,1.48c0-.41,.14-.76,.43-1.05,.29-.29,.64-.43,1.05-.43s.76,.14,1.05,.43c.29,.29,.43,.64,.43,1.05s-.14,.76-.43,1.05-.64,.43-1.05,.43-.76-.14-1.05-.43-.43-.64-.43-1.05Zm3.53,0c0-.41,.14-.76,.43-1.05,.29-.29,.64-.43,1.05-.43s.76,.14,1.05,.43c.29,.29,.43,.64,.43,1.05s-.14,.76-.43,1.05-.64,.43-1.05,.43-.76-.14-1.05-.43-.43-.64-.43-1.05Z"/><path d="M169.78,192.43c-.71,0-1.41-.08-2.1-.25s-1.35-.41-1.98-.73c-.63-.32-1.19-.75-1.67-1.28-.49-.53-.75-1.17-.79-1.91v-7.41c.08-.82,.53-1.27,1.35-1.33,.38,0,.71,.13,1,.38,.28,.25,.42,.57,.42,.96v6.77c.03,.42,.19,.78,.48,1.06,.29,.28,.62,.5,.99,.67,.36,.16,.74,.29,1.13,.37,.39,.08,.78,.12,1.18,.12s.79-.04,1.18-.12c.39-.08,.77-.21,1.13-.37,.36-.16,.69-.39,.99-.67s.46-.63,.48-1.06v-.53c.07-.82,.51-1.27,1.33-1.33,.38,0,.71,.13,1,.38,.28,.25,.42,.57,.42,.96v1.17c-.04,.74-.3,1.38-.78,1.91-.48,.53-1.03,.96-1.66,1.28-.63,.32-1.29,.56-1.98,.73-.69,.16-1.39,.25-2.1,.25Z"/><path d="M183.31,179.13c.37,.08,.66,.27,.87,.56,.21,.29,.29,.62,.24,.98l-.02,.08h2.85c.38,0,.71,.12,.99,.37,.26,.27,.39,.59,.39,.94s-.13,.66-.39,.92h4.02c.38,0,.71,.12,.99,.37,.26,.27,.39,.59,.39,.95s-.13,.68-.4,.93c-.27,.25-.59,.38-.98,.38h-4.48c-.38,0-.71-.12-.96-.37-.27-.26-.41-.58-.41-.94,0-.34,.12-.64,.37-.9h-2.83l-1.33,7.68c-.22,.79-.74,1.16-1.56,1.09-.38-.07-.69-.25-.92-.55-.23-.3-.32-.64-.25-1.01l1.25-7.21h-1.07c-.38,0-.71-.13-.96-.39-.27-.27-.41-.59-.41-.94s.13-.66,.4-.92,.59-.39,.98-.39h1.52l.1-.55c.08-.37,.28-.66,.6-.86s.66-.27,1.03-.21Zm.96,9.94c-.05-.15-.08-.31-.08-.49,0-.37,.13-.69,.4-.95,.27-.27,.58-.4,.96-.4s.65,.09,.8,.28c.15,.18,.31,.41,.47,.69,.21,.3,.5,.55,.88,.76,.38,.21,.83,.32,1.36,.35h3.41c.38,.01,.7,.15,.96,.42,.25,.27,.38,.58,.38,.96-.01,.36-.15,.66-.4,.9-.25,.25-.56,.38-.93,.39h-4.11c-.97-.05-1.79-.36-2.44-.9-.66-.55-1.09-1.03-1.31-1.44l-.33-.55Z"/><path d="M202.42,192.41c-.56-.01-.86-.31-.88-.88l-.02-.64c-.01-.29,.05-.51,.19-.66,.14-.15,.35-.23,.64-.23,.82,0,1.79,.01,2.92,.04,.36,.01,.75,.02,1.17,.02,.34,0,.6-.01,.76-.04s.3-.1,.42-.22c.12-.12,.22-.3,.32-.56h-11.39c-.32,0-.59-.12-.82-.35-.23-.23-.35-.51-.35-.82s.12-.59,.35-.82,.51-.35,.82-.35h11.87c.01-.14,.05-.41,.1-.82h-7.06c-.16,.14-.33,.25-.51,.35s-.35,.14-.51,.12l-1.31-.16c-.48-.08-.72-.3-.72-.66,0-.11,.03-.25,.1-.43,.75-1.68,1.38-3.33,1.89-4.95h-1.44v1.38c0,.29-.08,.51-.24,.66-.16,.15-.37,.23-.65,.23h-1.05c-.29,0-.51-.08-.66-.23-.15-.15-.23-.37-.23-.66v-2.83c0-.27,.07-.49,.23-.65,.15-.16,.37-.24,.66-.24h16.42c.29,0,.51,.08,.66,.24,.15,.16,.23,.37,.23,.65v2.67c0,.29-.08,.51-.23,.66-.15,.15-.37,.23-.66,.23h-1.07c0,.27-.08,.48-.23,.62s-.37,.21-.66,.21h-8.85l-.27,.72h8.5c.3,0,.52,.08,.67,.24s.21,.39,.2,.69l-.18,1.99h2.38c.31,0,.58,.11,.81,.34,.23,.23,.34,.5,.34,.83s-.11,.59-.34,.82c-.23,.23-.5,.35-.81,.35h-2.71c-.19,.97-.45,1.68-.78,2.13-.33,.45-.74,.75-1.22,.89-.49,.14-1.19,.22-2.1,.22-1.25,0-2.81-.03-4.68-.08Zm9.07-11.31v-.74h-7.9l-.21,.74h8.11Z"/><path d="M217.54,187.71h17.41c.29,0,.54,.11,.76,.32,.22,.21,.33,.47,.33,.77s-.11,.58-.33,.79-.47,.32-.76,.32h-3.06c.71,.15,1.5,.33,2.38,.55,.25,.07,.45,.21,.61,.41,.16,.21,.24,.44,.24,.72,0,.31-.11,.58-.33,.8s-.49,.33-.8,.33c-.08,0-.2-.01-.35-.04-2-.62-3.72-1.11-5.15-1.48-.49-.12-.74-.32-.74-.6,0-.08,.01-.14,.04-.18l.27-.51h-3.65l.04,.08c.12,.18,.18,.36,.18,.55,0,.29-.16,.5-.49,.64-1.56,.62-3.39,1.12-5.5,1.5-.05,.01-.13,.02-.23,.02-.4,0-.68-.2-.86-.6l-.25-.47c-.08-.18-.12-.34-.12-.47,0-.36,.23-.58,.68-.66,1.31-.23,2.31-.43,2.98-.59h-3.29c-.29,0-.54-.11-.76-.32s-.33-.48-.33-.79,.11-.56,.33-.77c.22-.21,.47-.32,.76-.32Zm.94-1.27v-4.37c0-.29,.08-.51,.24-.66,.16-.15,.37-.23,.65-.23h5.21v-.41h-6.53c-.33,0-.61-.12-.84-.35-.23-.23-.35-.51-.35-.82s.12-.61,.35-.84,.51-.35,.84-.35h6.53c0-.27,.08-.49,.24-.65s.37-.24,.65-.24h1.38c.27,0,.49,.04,.65,.12s.24,.19,.24,.33v.43h6.71c.33,0,.61,.12,.84,.35,.23,.23,.35,.51,.35,.84s-.12,.59-.35,.82-.51,.35-.84,.35h-6.71v.41h5.4c.27,0,.49,.08,.65,.23,.16,.15,.24,.37,.24,.66v4.37c0,.27-.08,.49-.24,.65s-.37,.24-.65,.24h-13.75c-.27,0-.49-.08-.65-.24s-.24-.37-.24-.65Zm12.46-3.57v-.41h-9.42v.41h9.42Zm0,1.54v-.41h-9.42v.41h9.42Zm0,1.54v-.41h-9.42v.41h9.42Z"/><path d="M239.62,179.52c.38,0,.71,.13,.99,.38,.27,.25,.42,.57,.43,.96v7.19c0,.59,.18,1.28,.53,2.07,.15,.34,.15,.68,0,1.03-.16,.34-.41,.6-.75,.76-.79,.26-1.39,.03-1.79-.68-.49-1.14-.75-2.22-.76-3.26v-7.1c.01-.37,.15-.68,.41-.93,.26-.25,.58-.39,.94-.4Zm9.98-.25c.37,.01,.68,.14,.94,.38s.4,.52,.41,.85v.27h.72c.38,0,.71,.12,.99,.37,.26,.26,.39,.57,.39,.92s-.13,.66-.4,.91c-.27,.25-.59,.38-.98,.38h-.72v1.5h.76c.38,0,.71,.13,.98,.38,.27,.25,.4,.56,.4,.91s-.14,.67-.41,.9c-.26,.25-.58,.37-.97,.37h-.78c-.04,.81-.17,1.55-.39,2.22-.27,.78-.65,1.4-1.14,1.85-.49,.45-1.21,.71-2.17,.76h-.9c-.9-.04-1.65-.26-2.24-.66-.63-.41-1.08-.89-1.34-1.43-.27-.54-.4-1.08-.4-1.63s.14-1.07,.41-1.61c.27-.54,.72-1.02,1.33-1.43,.62-.41,1.44-.62,2.48-.64h1.6v-1.5h-4.31c-.38,0-.71-.12-.96-.37-.27-.26-.41-.57-.41-.92s.13-.66,.4-.91c.27-.25,.59-.38,.98-.38h4.31v-.27c.01-.33,.16-.62,.43-.86,.27-.25,.6-.37,.99-.37Zm-1.97,9.98c.21-.26,.36-.6,.45-1.03,.04-.23,.08-.5,.1-.8h-1.85c-.26-.01-.48,.04-.65,.17s-.3,.27-.38,.43c-.08,.16-.12,.33-.12,.5,0,.11,.04,.26,.12,.46,.08,.2,.21,.36,.38,.48s.39,.19,.65,.21h.21c.52-.03,.88-.17,1.09-.43Z"/></g><g><path d="M96.66,211.63c0,.38-.13,.71-.4,.98-.27,.27-.59,.4-.98,.4h-7.92c-.08,0-.16,0-.25-.02h-.12c-.96-.03-1.75-.25-2.36-.66-.62-.41-1.06-.88-1.33-1.41-.27-.53-.41-1.06-.41-1.59s.21-1.15,.62-1.81c.41-.66,.91-1.05,1.5-1.19,.59-.14,1.03,.03,1.33,.51,.3,.48,.29,.91-.04,1.29-.33,.38-.51,.64-.53,.78-.03,.14-.04,.27-.04,.41s.04,.27,.12,.4,.21,.25,.38,.35c.17,.1,.39,.16,.65,.17h8.42c.38,0,.71,.14,.96,.41,.27,.26,.41,.58,.41,.96Zm-13.18-9.36c0-.38,.13-.71,.4-.97,.27-.27,.59-.4,.98-.4h9.94c.38,0,.71,.13,.99,.39,.26,.27,.39,.6,.39,.99s-.13,.71-.4,.98c-.27,.27-.59,.4-.97,.4h-9.94c-.38,0-.71-.14-.96-.41-.27-.26-.41-.58-.41-.96Z"/><path d="M112.36,211.63c0,.38-.13,.71-.4,.98s-.59,.4-.97,.4h-7.92c-.08,0-.16,0-.25-.02h-.12c-.96-.03-1.75-.25-2.36-.66-.62-.41-1.06-.88-1.33-1.41-.27-.53-.41-1.06-.41-1.59s.21-1.15,.62-1.81c.41-.66,.91-1.05,1.5-1.19s1.03,.03,1.33,.51c.3,.48,.29,.91-.04,1.29-.33,.38-.51,.64-.53,.78-.03,.14-.04,.27-.04,.41s.04,.27,.12,.4,.21,.25,.38,.35,.39,.16,.65,.17h8.42c.38,0,.7,.14,.96,.41,.27,.26,.41,.58,.41,.96Zm-13.18-9.36c0-.38,.13-.71,.4-.97s.59-.4,.98-.4h9.94c.38,0,.71,.13,.99,.39,.26,.27,.39,.6,.39,.99s-.13,.71-.4,.98c-.27,.27-.59,.4-.98,.4h-9.94c-.38,0-.71-.14-.96-.41-.27-.26-.41-.58-.41-.96Z"/><path d="M116.12,200.57c.38,0,.71,.13,.99,.38,.27,.25,.42,.57,.43,.96v7.19c0,.59,.18,1.28,.53,2.07,.15,.34,.15,.68,0,1.03-.16,.34-.41,.6-.75,.76-.79,.26-1.39,.03-1.79-.68-.49-1.14-.75-2.22-.76-3.26v-7.1c.01-.37,.15-.68,.41-.93,.26-.25,.58-.39,.94-.4Zm12.19,11.07c0,.38-.13,.71-.4,.98-.27,.27-.59,.4-.97,.4h-3.33c-.08,0-.16,0-.25-.02h-.12c-.96-.03-1.75-.25-2.36-.66-.62-.41-1.06-.88-1.33-1.41-.27-.53-.41-1.06-.41-1.59s.21-1.15,.62-1.81c.41-.66,.91-1.05,1.5-1.19,.59-.14,1.03,.03,1.33,.51,.3,.48,.29,.91-.04,1.29-.33,.38-.51,.64-.53,.78-.03,.14-.04,.27-.04,.41s.04,.27,.12,.4c.08,.13,.21,.25,.38,.35s.39,.16,.65,.17h3.82c.38,0,.7,.14,.96,.41,.27,.26,.41,.58,.41,.96Zm-8.58-9.36c0-.38,.13-.71,.4-.97,.27-.27,.59-.4,.97-.4h5.75c.38,0,.71,.13,.99,.39,.26,.27,.39,.6,.39,.99s-.13,.71-.4,.98-.59,.4-.97,.4h-5.75c-.38,0-.71-.14-.96-.41-.27-.26-.41-.58-.41-.96Z"/><path d="M129.95,206.05c0-.31,.11-.57,.33-.78,.22-.21,.47-.31,.76-.31h6.92v-.55h-5.13c-.26,0-.49-.1-.69-.3s-.3-.43-.3-.69,.1-.49,.3-.68,.43-.29,.69-.29h5.13v-.57h-6c-.31,0-.59-.12-.82-.35-.23-.23-.35-.51-.35-.82s.12-.58,.35-.81c.23-.23,.51-.34,.82-.34h6v-.27c0-.27,.08-.49,.24-.65s.37-.24,.65-.24h1.38c.27,0,.49,.05,.65,.15,.16,.1,.24,.24,.24,.42v.57h6.04c.31,0,.58,.11,.81,.33,.23,.22,.34,.49,.34,.82s-.11,.59-.34,.82c-.23,.23-.5,.35-.81,.35h-6.04v.57h5.17c.26,0,.49,.1,.68,.29s.29,.42,.29,.68-.1,.49-.29,.69-.42,.3-.68,.3h-5.17v.55h6.94c.29,0,.54,.1,.76,.31,.22,.21,.33,.47,.33,.78s-.11,.58-.33,.78c-.22,.21-.47,.31-.76,.31h-.96l.64,.53c.26,.21,.39,.42,.39,.64,0,.21-.12,.4-.37,.59-.44,.36-.97,.76-1.6,1.21,.38,.18,1.05,.43,1.99,.76,.25,.08,.46,.24,.63,.47,.17,.23,.26,.49,.26,.78,0,.37-.13,.68-.39,.93-.26,.25-.58,.38-.94,.38-.1,0-.21-.01-.35-.04-2.05-.59-3.83-1.48-5.32-2.67l.12,1.05,.02,.18c0,.46-.26,.73-.78,.8-3.41,.38-6.52,.64-9.32,.76-.56,.01-.88-.26-.94-.82l-.06-.68c-.03-.29,.03-.51,.17-.68s.36-.25,.65-.27c.48-.01,1.29-.05,2.44-.1v-1.38c-.81,.29-1.83,.58-3.06,.86-.07,.01-.16,.02-.29,.02-.38,0-.66-.2-.84-.59l-.29-.62c-.07-.18-.1-.32-.1-.43,0-.18,.06-.33,.17-.45,.12-.12,.29-.21,.52-.25,1.4-.32,2.63-.65,3.7-1.01h-3.08c-.29,0-.54-.1-.76-.31-.22-.21-.33-.46-.33-.78Zm11.58,4.29c-1.05-.93-1.88-1.98-2.46-3.16-.51,.4-1.07,.77-1.7,1.13v2.42c.97-.07,2.36-.2,4.17-.39Zm2.16-1.64c.79-.51,1.53-1.03,2.2-1.56h-3.76c.44,.58,.96,1.1,1.56,1.56Z"/><path d="M156.56,213.38c-.57,0-.88-.29-.92-.86l-.04-.72c-.01-.3,.05-.52,.2-.67,.14-.14,.36-.21,.65-.21l1.46,.02c.14,.01,.31,.02,.53,.02,.3,0,.51-.01,.62-.03s.18-.07,.23-.14,.06-.21,.06-.4v-4.93h-7.33c-.27,0-.49-.08-.65-.23-.16-.15-.24-.37-.24-.66v-.76c0-.27,.08-.49,.24-.65s.37-.24,.65-.24h17.14c.27,0,.49,.08,.65,.24s.24,.37,.24,.65v.76c0,.29-.08,.51-.24,.66-.16,.15-.37,.23-.65,.23h-6.71v4.76c0,1.07-.07,1.81-.22,2.23s-.44,.69-.88,.81c-.45,.12-1.24,.18-2.37,.18-.44,0-1.24-.02-2.4-.06Zm-2.85-6.61c.18-.37,.44-.55,.78-.55,.11,0,.23,.02,.37,.06l1.07,.35c.4,.12,.6,.36,.6,.7,0,.16-.03,.31-.1,.43-.64,1.34-1.47,2.66-2.48,3.94-.21,.27-.44,.41-.72,.41-.16,0-.33-.04-.49-.12l-.96-.45c-.34-.15-.51-.36-.51-.62,0-.18,.08-.38,.25-.6,.92-1.22,1.66-2.4,2.22-3.55Zm-.9-6.73c0-.27,.08-.49,.24-.65,.16-.16,.37-.24,.65-.24h13.78c.27,0,.49,.08,.65,.24,.16,.16,.24,.37,.24,.65v.74c0,.27-.08,.49-.24,.65s-.37,.24-.65,.24h-13.78c-.27,0-.49-.08-.65-.24s-.24-.37-.24-.65v-.74Zm11.6,7.37c0-.29,.18-.51,.53-.68l.99-.45c.17-.08,.33-.12,.49-.12,.26,0,.49,.14,.7,.43,1.12,1.44,2.03,2.72,2.71,3.86,.11,.18,.16,.35,.16,.51,0,.3-.19,.53-.58,.68l-1.05,.45c-.16,.07-.31,.1-.45,.1-.27,0-.51-.16-.7-.49-.77-1.27-1.63-2.53-2.59-3.76-.15-.18-.23-.36-.23-.53Z"/><path d="M172.31,203.5c0-.34,.13-.64,.4-.88,.27-.25,.59-.37,.98-.37h5.5l-.08-.47c-.04-.36,.05-.68,.29-.96,.23-.29,.53-.47,.9-.53,.37-.04,.7,.04,1,.25,.29,.21,.48,.48,.54,.82l.14,.9h3.33c.38,0,.71,.12,.99,.35,.26,.26,.39,.56,.39,.9s-.13,.64-.4,.88c-.27,.25-.59,.37-.97,.37h-2.92l.39,2.36c.04,.81-.34,1.31-1.13,1.5-.38,.07-.73,0-1.05-.21-.31-.21-.51-.49-.57-.84l-.45-2.81h-5.89c-.38,0-.71-.12-.96-.37-.27-.25-.41-.54-.41-.88Zm3.88,4.8c-.17,.36-.25,.62-.25,.78s.04,.33,.12,.51c.08,.18,.21,.33,.38,.46,.17,.13,.39,.2,.65,.2h7.06c.38,0,.71,.13,.98,.4s.4,.59,.4,.97-.14,.71-.41,.97c-.26,.27-.58,.41-.96,.41h-6.94c-.96,0-1.75-.22-2.37-.67-.62-.45-1.07-.95-1.33-1.51-.27-.56-.4-1.14-.4-1.72s.14-1.14,.41-1.7c.27-.56,.66-.96,1.17-1.21,.51-.25,1.02-.14,1.55,.33s.51,1.06-.05,1.79Z"/><path d="M189.78,210.26l3.31-3.72v-1.01h-2.24c-.38,0-.71-.13-.97-.4s-.4-.59-.4-.98,.13-.71,.39-.99c.27-.26,.6-.39,.99-.39h2.24v-1.13c.01-.37,.15-.68,.41-.93s.58-.39,.94-.4c.38,0,.71,.13,.99,.38s.42,.57,.43,.95v2.2c.88-.66,1.75-1.01,2.63-1.07h1.21c.79,0,1.48,.24,2.05,.71,.58,.47,.87,1.15,.88,2.02v3.57c.04,.75,.44,1.12,1.19,1.11,.37,.07,.65,.26,.84,.58,.19,.32,.26,.67,.21,1.04-.22,.82-.74,1.19-1.56,1.11-2.31-.29-3.46-1.59-3.45-3.92v-2.48c.03-.64-.29-.97-.94-.99h-.39c-.52,.03-1.12,.37-1.81,1.03-.33,.31-.62,.6-.86,.84v4.56c0,.38-.14,.7-.42,.95-.28,.25-.61,.38-1,.38-.82-.07-1.27-.51-1.35-1.33v-1.42l-1.33,1.54c-.21,.23-.43,.4-.67,.49-.24,.1-.54,.07-.89-.08-.34-.15-.58-.4-.72-.76-.14-.36-.13-.71,.02-1.07,.08-.16,.18-.3,.29-.41Z"/><path d="M206.76,205.62c0-.3,.13-.55,.4-.76,.27-.21,.59-.31,.98-.31h5.38v-.84h-5.38c-.38,0-.71-.1-.96-.31-.27-.22-.41-.47-.41-.76,0-.3,.13-.56,.4-.77,.27-.21,.59-.32,.98-.32h5.38c.01-.36,.16-.66,.43-.9,.27-.23,.6-.35,.99-.35,.37,.01,.68,.14,.94,.37,.26,.25,.4,.54,.41,.88h2.36c.38,0,.71,.1,.99,.31,.26,.22,.39,.48,.39,.78s-.13,.54-.4,.75-.59,.32-.97,.32h-2.36v.84h2.36c.38,0,.71,.1,.99,.31,.26,.21,.39,.46,.39,.76s-.13,.56-.4,.77c-.27,.21-.59,.32-.97,.32h-2.36v.86h2.4c.38,0,.71,.1,.97,.31,.27,.21,.4,.47,.4,.78s-.14,.56-.41,.74c-.26,.22-.58,.33-.96,.33h-2.42c-.05,.56-.18,1.08-.39,1.54-.27,.6-.65,1.08-1.14,1.43-.49,.35-1.21,.55-2.17,.61h-1.89c-1.08-.11-1.85-.28-2.32-.51-.63-.32-1.08-.68-1.34-1.09-.27-.41-.4-.84-.4-1.29,0-.42,.14-.84,.41-1.24,.27-.4,.72-.77,1.33-1.1,.62-.33,1.36-.49,2.24-.49h2.92v-.86h-5.38c-.38,0-.71-.1-.96-.31-.27-.22-.41-.48-.41-.78Zm5.11,5.54c.52-.03,.88-.13,1.09-.3,.21-.17,.36-.41,.45-.71,.03-.12,.05-.27,.08-.43h-2.89c-.26,0-.48,.03-.65,.1-.17,.07-.3,.16-.38,.27s-.12,.21-.12,.31c0,.07,.04,.16,.12,.29,.08,.12,.21,.23,.38,.32,.17,.09,.39,.14,.65,.15h1.27Z"/><path d="M222.44,202.85c0-.34,.13-.64,.4-.88,.27-.25,.59-.37,.98-.37h7.8c.03-.36,.17-.66,.43-.9,.27-.25,.6-.37,.99-.37,.37,.01,.68,.14,.94,.39,.25,.25,.38,.54,.41,.88h1.21c.38,0,.71,.12,.99,.35,.26,.26,.39,.56,.39,.9s-.13,.66-.4,.9c-.27,.25-.59,.37-.97,.37h-1.21v7.84c-.08,.82-.53,1.27-1.35,1.33-.38,0-.71-.13-1-.38-.28-.25-.42-.57-.42-.95v-.49c-.48,.29-1.03,.45-1.66,.47h-1.72c-1.21-.04-2.12-.26-2.73-.66-.62-.4-1.06-.85-1.33-1.37s-.41-1.03-.41-1.55c0-.55,.13-1.07,.4-1.58,.27-.51,.71-.96,1.33-1.37,.62-.4,1.41-.61,2.37-.63h2.46c.46,0,.9,.13,1.29,.39v-1.07h-7.8c-.38,0-.71-.12-.96-.37-.27-.25-.41-.55-.41-.9Zm5.34,4.31c-.26,0-.49,.06-.68,.19-.19,.13-.33,.29-.42,.47-.09,.18-.13,.37-.13,.54,0,.16,.04,.34,.13,.52,.09,.18,.23,.35,.42,.48,.19,.14,.42,.21,.68,.21h2.63c.26,0,.49-.07,.68-.21,.19-.14,.33-.3,.43-.49,.04-.11,.08-.21,.1-.31v-.41c-.03-.11-.06-.23-.1-.35-.1-.18-.24-.33-.43-.46-.19-.13-.42-.19-.68-.19h-2.63Z"/></g></svg>