<?xml version="1.0" encoding="utf-8"?>
<!-- Generator: Adobe Illustrator 26.5.3, SVG Export Plug-In . SVG Version: 6.00 Build 0)  -->
<svg version="1.1" id="layer1" xmlns="http://www.w3.org/2000/svg" xmlns:xlink="http://www.w3.org/1999/xlink" x="0px" y="0px"
	 viewBox="0 0 100 100" style="enable-background:new 0 0 100 100;" xml:space="preserve">
<style type="text/css">
	.st0{fill:none;stroke:#000000;stroke-width:1.0541;stroke-miterlimit:10;}
	.st1{fill:#FFFFFF;stroke:#000000;stroke-width:1.9601;stroke-miterlimit:10;}
	.st2{fill:#FFFFFF;stroke:#000000;stroke-width:1.8093;stroke-miterlimit:10;}
	.st3{fill:#FFFFFF;stroke:#000000;stroke-width:2.0394;stroke-linecap:round;stroke-linejoin:round;stroke-miterlimit:10;}
	.st4{fill:#FFFFFF;stroke:#000000;stroke-width:2.39;stroke-linecap:round;stroke-linejoin:round;stroke-miterlimit:10;}
	.st5{fill:#FFFFFF;stroke:#000000;stroke-width:2.3898;stroke-linecap:round;stroke-linejoin:round;stroke-miterlimit:10;}
	.st6{fill:none;stroke:#000000;stroke-width:2.4548;stroke-linecap:round;stroke-linejoin:round;stroke-miterlimit:10;}
	.st7{fill:none;stroke:#000000;stroke-width:2.0176;stroke-miterlimit:10;}
	.st8{fill:#FFFFFF;stroke:#000000;stroke-width:1.6305;stroke-linecap:round;stroke-miterlimit:10;}
</style>
<g>
	<path class="st0" d="M-279.9,115.5"/>
</g>
<g>
	<g>
		<path class="st1" d="M89,63.7c0-15.1-17.5-27.4-39.1-27.4c-21.6,0-39.1,12.3-39.1,27.4c0,0.7,0.1,1.3,0.1,2H14c0,0,0,0,0,0h72
			c0,0,0,0,0,0h2.9C88.9,65,89,64.4,89,63.7z"/>
		<path class="st2" d="M50,89.1c19.1,0,34.6-10.3,36-23.5H14C15.4,78.8,31,89.1,50,89.1z"/>
		<path class="st2" d="M14,65.6C14,65.6,14,65.7,14,65.6l72,0c0,0,0,0,0,0H14z"/>
	</g>
	<g>
		<path d="M64.3,60c-1,0-2.1-1.7-2.1-4.1c0-2.4,1.1-4.1,2.1-4.1c1,0,2.1,1.7,2.1,4.1C66.4,58.3,65.3,60,64.3,60z"/>
		<path d="M64.3,52.6c0.4,0,1.3,1.2,1.3,3.3s-0.9,3.3-1.3,3.3S63,57.9,63,55.9S63.9,52.6,64.3,52.6 M64.3,51c-1.6,0-2.9,2.2-2.9,4.9
			c0,2.7,1.3,4.9,2.9,4.9c1.6,0,2.9-2.2,2.9-4.9C67.2,53.2,65.9,51,64.3,51L64.3,51z"/>
	</g>
	<g>
		<ellipse cx="34.9" cy="55.9" rx="2.1" ry="4.1"/>
		<path d="M34.9,52.6c0.4,0,1.3,1.2,1.3,3.3s-0.9,3.3-1.3,3.3c-0.4,0-1.3-1.2-1.3-3.3S34.5,52.6,34.9,52.6 M34.9,51
			c-1.6,0-2.9,2.2-2.9,4.9c0,2.7,1.3,4.9,2.9,4.9c1.6,0,2.9-2.2,2.9-4.9C37.8,53.2,36.5,51,34.9,51L34.9,51z"/>
	</g>
	<path class="st3" d="M74,21.6c0-5.9-5.7-10.8-12.7-10.8c-1,0-1.9,0.1-2.8,0.3c-2.3-2.6-5.7-4.2-9.4-4.2c-3.7,0-7,1.6-9.3,4.1
		c-0.6-0.1-1.3-0.1-2-0.1c-7,0-12.7,4.8-12.7,10.8c0,4.6,3.5,8.6,8.3,10.1v12.4h31.3V31.9C70.1,30.6,74,26.5,74,21.6z"/>
	<path class="st4" d="M41.8,31.3c-3-2.4-4.9-5.9-4.9-9.8"/>
	<path class="st5" d="M62.3,21.6c0,3.9-1.9,7.4-4.9,9.8"/>
	<line class="st6" x1="38.7" y1="32.3" x2="60.9" y2="32.3"/>
	<g>
		<path class="st7" d="M31.7,51"/>
	</g>
	<path class="st8" d="M89.5,71.6h-1.4c-1.8,0-3.2-1.4-3.2-3.2V51.3c0-1.8,1.4-3.2,3.2-3.2h1.4c1.8,0,3.2,1.4,3.2,3.2v17.1
		C92.7,70.1,91.2,71.6,89.5,71.6z"/>
	<path class="st8" d="M11.9,71.6h-1.4c-1.8,0-3.2-1.4-3.2-3.2V51.3c0-1.8,1.4-3.2,3.2-3.2h1.4c1.8,0,3.2,1.4,3.2,3.2v17.1
		C15.2,70.1,13.7,71.6,11.9,71.6z"/>
</g>
</svg>
