<?xml version="1.0" encoding="UTF-8"?><svg id="_レイヤー_1" xmlns="http://www.w3.org/2000/svg" viewBox="0 0 118 78"><defs><style>.cls-1{stroke-width:1.13px;}.cls-1,.cls-2,.cls-3,.cls-4,.cls-5{stroke-miterlimit:10;}.cls-1,.cls-3,.cls-6,.cls-7,.cls-8,.cls-9,.cls-4,.cls-10,.cls-11{stroke:#000;}.cls-1,.cls-3,.cls-6,.cls-8,.cls-9,.cls-4,.cls-10,.cls-11{fill:#fff;}.cls-12{font-family:HiraKakuStdN-W8-83pv-RKSJ-H, 'Hiragino Kaku Gothic StdN';font-size:9px;}.cls-2{fill:#f8ff55;stroke:#f8ff55;stroke-width:.45px;}.cls-3{stroke-width:1.17px;}.cls-3,.cls-6,.cls-7,.cls-8,.cls-9,.cls-10,.cls-11{stroke-linecap:round;}.cls-6{stroke-width:1.3px;}.cls-6,.cls-7,.cls-8,.cls-9,.cls-10,.cls-11{stroke-linejoin:round;}.cls-7{fill:none;stroke-width:1.77px;}.cls-8{stroke-width:1.72px;}.cls-9{stroke-width:1.72px;}.cls-4{stroke-width:1.13px;}.cls-5{fill:#ffdf2a;stroke:#ffdf2a;stroke-width:1.09px;}.cls-10{stroke-width:1.41px;}.cls-11{stroke-width:1.47px;}</style></defs><g><path class="cls-10" d="M98.27,46.58c-2.22-11.86-15.21-19.42-29-16.83-13.79,2.59-23.16,14.34-20.93,26.19,.1,.55,.26,1.01,.36,1.56l1.98-.37h0l45.97-8.62h0l1.85-.35c-.1-.55-.13-1.03-.23-1.58Z"/><path class="cls-6" d="M77.11,71.21c12.2-2.29,20.58-12.23,19.53-22.76l-45.97,8.62c2.84,10.2,14.31,16.42,26.45,14.14Z"/><path class="cls-6" d="M50.66,57.05s.01,.08,0,0l45.97-8.62h0l-45.97,8.62Z"/></g><g><ellipse cx="62.63" cy="47.2" rx="1.36" ry="3.28" transform="translate(-7.63 12.35) rotate(-10.62)"/><path d="M62.14,44.61c.26-.05,1.01,.79,1.32,2.44s-.09,2.7-.34,2.75-1.01-.79-1.32-2.44,.09-2.7,.34-2.75m-.24-1.26c-1.02,.19-1.53,2.07-1.13,4.19s1.55,3.69,2.57,3.5,1.53-2.07,1.13-4.19c-.4-2.12-1.55-3.69-2.57-3.5h0Z"/></g><path class="cls-11" d="M82.3,14.25c-.87-4.63-5.23-7.8-9.7-6.96-.64,.12-1.2,.31-1.74,.57-1.85-1.77-4.26-2.62-6.62-2.17s-4.23,2.09-5.33,4.33c-.4,0-.84,.08-1.29,.16-4.47,.84-7.4,5.29-6.52,10,.68,3.61,3.5,6.33,6.79,6.94l1.83,9.74,19.99-3.75-1.81-9.66c3.26-1.67,5.14-5.35,4.42-9.2Z"/><path class="cls-8" d="M63.16,25.72c-2.27-1.53-4-4.05-4.57-7.11"/><path class="cls-9" d="M74.83,15.65c.57,3.06-.12,6.04-1.69,8.28"/><line class="cls-7" x1="61.33" y1="26.88" x2="75.51" y2="24.22"/><path class="cls-3" d="M100.34,52.9l-.89,.17c-1.15,.22-2.25-.72-2.51-2.13l-2.52-13.43c-.26-1.41,.42-2.68,1.57-2.9l.89-.17c1.15-.22,2.25,.72,2.51,2.13l2.52,13.43c.25,1.33-.49,2.69-1.57,2.9Z"/><path class="cls-3" d="M49.72,62.38l-.89,.17c-1.15,.22-2.25-.72-2.51-2.13l-2.52-13.43c-.26-1.41,.42-2.68,1.57-2.9l.89-.17c1.15-.22,2.25,.72,2.51,2.13l2.52,13.43c.31,1.32-.42,2.68-1.57,2.9Z"/><g><ellipse cx="81.55" cy="43.48" rx="1.36" ry="3.28" transform="translate(-6.61 15.77) rotate(-10.62)"/><path d="M81.06,40.89c.26-.05,1.01,.79,1.32,2.44s-.09,2.7-.34,2.75-1.01-.79-1.32-2.44,.09-2.7,.34-2.75m-.24-1.26c-1.02,.19-1.53,2.07-1.13,4.19s1.55,3.69,2.57,3.5,1.53-2.07,1.13-4.19c-.4-2.12-1.55-3.69-2.57-3.5h0Z"/></g><g><ellipse class="cls-4" cx="99.11" cy="51.39" rx="4.53" ry="6.75"/><ellipse class="cls-1" cx="98.55" cy="60.68" rx="9.44" ry="10.53"/></g><g><path class="cls-5" d="M98.52,30.55l-2.51-4.7c-.14-.26-.4-.44-.7-.47l-5.3-.6c-.74-.08-1.07-.98-.55-1.52l3.7-3.84c.21-.21,.29-.52,.23-.81l-1.07-5.22c-.15-.73,.61-1.32,1.28-.99l4.8,2.33c.27,.13,.58,.12,.84-.03l4.64-2.63c.65-.37,1.44,.17,1.34,.91l-.73,5.28c-.04,.29,.07,.59,.29,.79l3.94,3.6c.55,.51,.29,1.43-.45,1.56l-5.25,.94c-.29,.05-.54,.25-.66,.52l-2.2,4.86c-.31,.68-1.27,.71-1.62,.05Z"/><path class="cls-2" d="M98.94,24.9l-1.03-1.93c-.06-.11-.16-.18-.29-.19l-2.18-.24c-.31-.03-.44-.4-.23-.63l1.52-1.58c.08-.09,.12-.21,.1-.33l-.44-2.15c-.06-.3,.25-.54,.53-.41l1.97,.96c.11,.05,.24,.05,.35-.01l1.91-1.08c.27-.15,.59,.07,.55,.37l-.3,2.17c-.02,.12,.03,.24,.12,.33l1.62,1.48c.23,.21,.12,.59-.19,.64l-2.16,.39c-.12,.02-.22,.1-.27,.21l-.91,2c-.13,.28-.52,.29-.67,.02Z"/></g><g><text class="cls-12" transform="translate(3.83 21.55) rotate(7.63)"><tspan x="0" y="0">おまかせ</tspan></text><text class="cls-12" transform="translate(8.63 36.1) rotate(6.94)"><tspan x="0" y="0">ください</tspan></text></g></svg>