<?xml version="1.0" encoding="UTF-8"?><svg id="_レイヤー_1" xmlns="http://www.w3.org/2000/svg" viewBox="0 0 113.5 78"><defs><style>.cls-1{stroke-width:1.13px;}.cls-1,.cls-2,.cls-3,.cls-4,.cls-5{stroke-miterlimit:10;}.cls-1,.cls-3,.cls-6,.cls-7,.cls-8,.cls-9,.cls-4,.cls-10,.cls-11{stroke:#000;}.cls-1,.cls-3,.cls-6,.cls-8,.cls-9,.cls-4,.cls-10,.cls-11{fill:#fff;}.cls-2{fill:#f8ff55;stroke:#f8ff55;stroke-width:.45px;}.cls-3{stroke-width:1.17px;}.cls-3,.cls-6,.cls-7,.cls-8,.cls-9,.cls-10,.cls-11{stroke-linecap:round;}.cls-6{stroke-width:1.3px;}.cls-6,.cls-7,.cls-8,.cls-9,.cls-10,.cls-11{stroke-linejoin:round;}.cls-7{fill:none;stroke-width:1.77px;}.cls-8{stroke-width:1.72px;}.cls-9{stroke-width:1.72px;}.cls-4{stroke-width:1.13px;}.cls-5{fill:#ffdf2a;stroke:#ffdf2a;stroke-width:1.09px;}.cls-10{stroke-width:1.41px;}.cls-11{stroke-width:1.47px;}</style></defs><g><path class="cls-10" d="M97.77,46.58c-2.22-11.86-15.21-19.42-29-16.83-13.79,2.59-23.16,14.34-20.93,26.19,.1,.55,.26,1.01,.36,1.56l1.98-.37h0l45.97-8.62h0l1.85-.35c-.1-.55-.13-1.03-.23-1.58Z"/><path class="cls-6" d="M76.61,71.21c12.2-2.29,20.58-12.23,19.53-22.76l-45.97,8.62c2.84,10.2,14.31,16.42,26.45,14.14Z"/><path class="cls-6" d="M50.16,57.05s.01,.08,0,0l45.97-8.62h0l-45.97,8.62Z"/></g><g><ellipse cx="62.13" cy="47.2" rx="1.36" ry="3.28" transform="translate(-7.63 12.26) rotate(-10.62)"/><path d="M61.64,44.61c.26-.05,1.01,.79,1.32,2.44s-.09,2.7-.34,2.75-1.01-.79-1.32-2.44,.09-2.7,.34-2.75m-.24-1.26c-1.02,.19-1.53,2.07-1.13,4.19s1.55,3.69,2.57,3.5,1.53-2.07,1.13-4.19c-.4-2.12-1.55-3.69-2.57-3.5h0Z"/></g><path class="cls-11" d="M81.8,14.25c-.87-4.63-5.23-7.8-9.7-6.96-.64,.12-1.2,.31-1.74,.57-1.85-1.77-4.26-2.62-6.62-2.17s-4.23,2.09-5.33,4.33c-.4,0-.84,.08-1.29,.16-4.47,.84-7.4,5.29-6.52,10,.68,3.61,3.5,6.33,6.79,6.94l1.83,9.74,19.99-3.75-1.81-9.66c3.26-1.67,5.14-5.35,4.42-9.2Z"/><path class="cls-8" d="M62.66,25.72c-2.27-1.53-4-4.05-4.57-7.11"/><path class="cls-9" d="M74.33,15.65c.57,3.06-.12,6.04-1.69,8.28"/><line class="cls-7" x1="60.83" y1="26.88" x2="75.01" y2="24.22"/><path class="cls-3" d="M99.84,52.9l-.89,.17c-1.15,.22-2.25-.72-2.51-2.13l-2.52-13.43c-.26-1.41,.42-2.68,1.57-2.9l.89-.17c1.15-.22,2.25,.72,2.51,2.13l2.52,13.43c.25,1.33-.49,2.69-1.57,2.9Z"/><path class="cls-3" d="M49.22,62.38l-.89,.17c-1.15,.22-2.25-.72-2.51-2.13l-2.52-13.43c-.26-1.41,.42-2.68,1.57-2.9l.89-.17c1.15-.22,2.25,.72,2.51,2.13l2.52,13.43c.31,1.32-.42,2.68-1.57,2.9Z"/><g><ellipse cx="81.05" cy="43.48" rx="1.36" ry="3.28" transform="translate(-6.62 15.68) rotate(-10.62)"/><path d="M80.56,40.89c.26-.05,1.01,.79,1.32,2.44s-.09,2.7-.34,2.75-1.01-.79-1.32-2.44,.09-2.7,.34-2.75m-.24-1.26c-1.02,.19-1.53,2.07-1.13,4.19s1.55,3.69,2.57,3.5,1.53-2.07,1.13-4.19c-.4-2.12-1.55-3.69-2.57-3.5h0Z"/></g><g><ellipse class="cls-4" cx="98.61" cy="51.39" rx="4.53" ry="6.75"/><ellipse class="cls-1" cx="98.05" cy="60.68" rx="9.44" ry="10.53"/></g><g><path class="cls-5" d="M98.02,30.55l-2.51-4.7c-.14-.26-.4-.44-.7-.47l-5.3-.6c-.74-.08-1.07-.98-.55-1.52l3.7-3.84c.21-.21,.29-.52,.23-.81l-1.07-5.22c-.15-.73,.61-1.32,1.28-.99l4.8,2.33c.27,.13,.58,.12,.84-.03l4.64-2.63c.65-.37,1.44,.17,1.34,.91l-.73,5.28c-.04,.29,.07,.59,.29,.79l3.94,3.6c.55,.51,.29,1.43-.45,1.56l-5.25,.94c-.29,.05-.54,.25-.66,.52l-2.2,4.86c-.31,.68-1.27,.71-1.62,.05Z"/><path class="cls-2" d="M98.44,24.9l-1.03-1.93c-.06-.11-.16-.18-.29-.19l-2.18-.24c-.31-.03-.44-.4-.23-.63l1.52-1.58c.08-.09,.12-.21,.1-.33l-.44-2.15c-.06-.3,.25-.54,.53-.41l1.97,.96c.11,.05,.24,.05,.35-.01l1.91-1.08c.27-.15,.59,.07,.55,.37l-.3,2.17c-.02,.12,.03,.24,.12,.33l1.62,1.48c.23,.21,.12,.59-.19,.64l-2.16,.39c-.12,.02-.22,.1-.27,.21l-.91,2c-.13,.28-.52,.29-.67,.02Z"/></g><g><g><path d="M9.62,17.38c-.14,0-.16,0-.35,0-.36,.02-.93,.01-1.37,0l-.1,.78c.53-.05,.85-.04,1.32,.02,1.1,.15,1.88,.53,2.33,1.14,.34,.45,.48,1.05,.4,1.66-.17,1.26-1.25,2.08-2.52,1.91-1.11-.15-1.65-.97-1.48-2.26,0-.04,.02-.12,.03-.22,.68-.1,.9-.16,1.43-.36-.03,.19-.06,.28-.08,.47-.04,.28-.04,.43,0,.57,.04,.17,.18,.3,.36,.32,.38,.05,.68-.23,.75-.68,.04-.3-.08-.62-.33-.84-.22-.18-.56-.31-1.03-.37-.44-.06-.81-.06-1.34,0l-.2,1.58-.03,.23c-.07,.54-.13,.74-.29,.91-.2,.23-.56,.32-.96,.27-.66-.09-1.38-.47-1.83-.96-.32-.36-.48-.81-.42-1.24,.06-.48,.43-.97,1.03-1.37,.4-.26,.8-.44,1.44-.62l.14-1.05-.68-.07-.86-.13s-.11-.01-.19-.02l.17-1.4c.28,.09,.64,.17,1.21,.24,.05,0,.06,0,.34,.04q.13,0,.18,.02l.04-.29c.09-.67,.11-.88,.1-1.21l1.54,.21c-.09,.32-.12,.52-.2,1.11l-.04,.29c.62,.02,1.18-.01,1.67-.08l-.14,1.42Zm-3.48,2.41c-.45,.14-.81,.45-.85,.7-.01,.11,.04,.21,.16,.31,.11,.1,.27,.18,.38,.2,.12,.01,.15-.04,.19-.34l.12-.87Zm5.25-1.29c-.35-.85-.78-1.53-1.48-2.33l1.28-.64c.68,.72,1.15,1.42,1.49,2.21l-1.3,.76Z"/><path d="M14.05,16.28c.51,.2,1.42,.38,2.54,.53,.11,.01,.22,.03,.49,.06,.07-.59,.08-.75,.08-.98l1.57,.21c-.08,.24-.08,.3-.2,.92,1.2,.09,2.04,.1,2.58,.03l-.14,1.37c-.26-.02-.31-.02-.8-.03-.61,0-1.11-.02-1.81-.09q-.03,.22-.08,.56c1.02,.08,1.71,.09,2.34,.04l-.15,1.37q-.19-.02-.58-.03c-.41,0-1.27-.06-1.77-.11q-.05,.41-.08,.79c.45,.19,.72,.33,1.16,.65,.42,.3,.52,.38,1.1,.9,.12,.11,.18,.15,.31,.26l-1.04,1.32q-.23-.32-.53-.65c-.37-.41-.77-.75-1.16-.96-.05,.4-.15,.66-.33,.87-.36,.42-1.07,.57-2.04,.44-1.46-.2-2.21-.91-2.07-1.94,.09-.65,.57-1.13,1.32-1.3,.44-.1,.99-.11,1.62-.03,.12,.01,.14,.02,.28,.04,.03-.3,.05-.48,.05-.53-.19-.02-.55-.06-.69-.08-.52-.07-.93-.13-1.43-.23-.39-.07-.43-.09-.7-.12l.19-1.33c.38,.13,1.27,.32,2.18,.44,.19,.03,.32,.04,.6,.07,0-.06,.01-.09,.02-.13t.02-.23,.03-.21c-.21-.02-.3-.03-.38-.04-.48-.06-.63-.09-1.65-.28q-.34-.05-.67-.12c-.12-.03-.21-.04-.24-.04-.04,0-.09-.01-.15-.02l.2-1.38Zm1.9,5.43c-.54-.07-.88,.04-.91,.31-.03,.22,.2,.39,.65,.45,.5,.07,.74-.07,.79-.48,0-.05,.01-.15,.01-.15-.21-.08-.33-.11-.54-.13Z"/><path d="M22.26,18.59s.06,0,.08,.01c.29,.04,1.15,.08,1.74,.09,.27-.92,.4-1.44,.44-1.74,0-.03,.01-.08,.02-.15l1.6,.37q-.08,.17-.24,.69c-.13,.4-.23,.73-.3,.93,.15,.01,.26,.02,.39,.03,.55,.07,.95,.24,1.22,.53,.41,.43,.51,1,.38,2-.19,1.39-.55,2.52-.99,3.09-.15,.21-.4,.37-.64,.46-.19,.06-.43,.07-.71,.03-.41-.06-.8-.18-1.39-.43,.06-.25,.07-.35,.1-.51,.05-.39,.05-.64,0-1.08,.48,.26,.92,.45,1.18,.49,.19,.02,.32-.08,.46-.35,.19-.38,.42-1.27,.51-1.95,.05-.38,.03-.61-.07-.75-.08-.13-.2-.18-.52-.22-.08,0-.17-.02-.36-.03-.26,.73-.54,1.35-.93,2.14-.4,.79-.59,1.13-1.25,2.18-.09,.14-.12,.18-.19,.3l-1.37-.97c.67-.68,1.66-2.36,2.21-3.72-.64,0-1.11,.02-1.43,.06l.06-1.49Zm6.75-.07c.74,1.23,1.15,2.51,1.31,4.05l-1.56,.5c-.08-1.67-.46-3.04-1.15-4.12l1.39-.43Z"/><path d="M34.48,18.37c-.11,.37-.18,.76-.31,1.6,.92,.09,1.28,.12,2.28,.21,0-.04,0-.07,.01-.1,.07-.54,.13-1.23,.13-1.54l1.53,.21c-.05,.19-.11,.46-.16,.83l-.08,.59s0,.07-.02,.14q1.33,.12,1.63,.13l-.19,1.52c-.3-.06-.46-.09-.75-.13-.12-.02-.14-.02-.88-.11-.18,1.33-.34,1.83-.73,2.16-.26,.21-.63,.29-1.13,.22-.38-.05-.84-.21-1.32-.46,.01-.1,.02-.14,.03-.22,.06-.45,.08-.78,.06-1.25,.42,.27,.85,.47,1.16,.51,.29,.04,.36-.12,.51-1.13-.82-.08-1.59-.15-2.3-.21-.26,1.94-.31,2.37-.28,2.63,.05,.48,.38,.65,1.53,.8,1.09,.15,2.17,.14,2.85-.03l-.12,1.65q-.38-.02-.89-.03c-.84-.02-1.43-.06-2.1-.15-.86-.11-1.49-.28-1.85-.47-.63-.35-.89-.81-.92-1.63,0-.36,.06-1.09,.23-2.36,.02-.12,.04-.31,.07-.54-.8-.06-1.07-.08-1.53-.07l.11-1.5c.15,.04,.19,.04,.3,.06,.13,.02,.56,.06,1.31,.12,.02-.12,.03-.2,.04-.27,.1-.78,.13-1.03,.12-1.42l1.65,.22Z"/></g><g><path d="M15.9,30.39c-.23,.11-.33,.18-1.25,.82-.57,.39-1.37,.89-2.4,1.47-.26,.15-.32,.2-.33,.28q-.01,.11,.75,.83c.89,.82,1.57,1.53,2.46,2.52,.05,.05,.12,.12,.25,.27l-1.44,1.15c-.18-.32-.35-.57-.77-1.08-.68-.82-.96-1.12-2.37-2.51-.4-.4-.55-.58-.63-.82-.06-.18-.09-.41-.06-.61,.04-.31,.19-.59,.44-.82,.14-.12,.29-.22,.9-.57,1.3-.75,1.9-1.15,2.59-1.69,.24-.19,.34-.27,.51-.46l1.36,1.24Z"/><path d="M22.9,32.9c.88-.01,1.25,.02,2.38,.15,.06,0,.25,.03,.44,.06l-.16,1.51c-.42-.11-.67-.14-1.16-.2-.98-.12-1.62-.14-2.54-.08l.06-1.28c-.43,0-.56-.01-.82-.03-.56,1.74-.85,2.44-2.06,5.04l-1.57-.8c.74-1.1,1.56-2.85,2.06-4.39-.06,0-.11-.01-.14-.02-.21-.03-.45-.06-.61-.09-.23-.04-.27-.04-.34-.05-.06,0-.11-.01-.2-.01l.2-1.45c.34,.1,.81,.19,1.35,.25,.03,0,.09,.01,.17,.02,.21-.72,.28-1.04,.31-1.31,0-.04,0-.08,.02-.14l1.66,.33c-.08,.17-.1,.23-.18,.5-.06,.18-.13,.44-.24,.75,.6,.02,1.04,0,1.49-.05l-.12,1.3Zm.01,2.49c-.39,.36-.58,.64-.61,.92-.05,.41,.29,.65,1.04,.74,.71,.09,1.59,.05,2.16-.09l-.08,1.58c-.18,0-.24,0-.49,0-.85,.01-1.21,0-1.76-.07-1.75-.21-2.56-.88-2.42-2.01,.06-.52,.33-.99,.92-1.65l1.24,.59Zm1.62-4.6c.29,.42,.54,.88,.74,1.43l-.9,.31c-.23-.62-.44-1.02-.74-1.46l.9-.28Zm1.25-.39c.27,.38,.49,.77,.76,1.4l-.87,.3c-.26-.66-.47-1.05-.73-1.43l.85-.27Z"/><path d="M27.67,32.46c.34,.08,.55,.11,.98,.16,.69,.08,1.39,.13,2.25,.15-.03-.11-.03-.12-.09-.37-.1-.42-.17-.67-.26-.94h1.63c.02,.36,.11,.82,.24,1.31,.98-.03,1.71-.1,2.27-.22l-.02,1.52q-.26,0-.75,.04c-.41,.03-.78,.05-1.14,.06,.28,.81,.68,1.71,1.22,2.69l-1.56,.42c-.23-.31-.44-.45-.9-.61-.3-.1-.6-.16-.97-.21-1-.12-1.63,.09-1.69,.56-.06,.47,.47,.78,1.56,.92,1.02,.12,2.16,.02,2.92-.26v1.62c-.16,.02-.24,.02-.42,.04-1.19,.13-1.74,.13-2.66,.02-1.22-.15-2.05-.46-2.52-.93-.4-.42-.59-.97-.52-1.54,.06-.47,.3-.92,.67-1.22,.59-.49,1.5-.66,2.67-.52,.48,.06,.75,.13,1.2,.33-.14-.23-.27-.54-.44-1.01-.06-.15-.08-.19-.12-.29-.78,.01-1.94-.05-3.17-.18-.25-.02-.3-.03-.46-.03l.07-1.51Z"/><path d="M38.18,32.89c-.11,.39-.22,.95-.29,1.61-.24,2-.14,3.55,.23,3.59,.1,.01,.21-.09,.33-.31,.26-.48,.48-.96,.65-1.49,.35,.54,.57,.78,1.1,1.28-.27,.66-.55,1.17-.89,1.64-.4,.55-.92,.81-1.47,.75-.5-.06-.9-.37-1.19-.92-.38-.72-.52-1.64-.46-3.08,.03-.63,.09-1.38,.22-2.63,.03-.31,.04-.4,.04-.64l1.72,.21Zm4.08,.82c.99,1.54,1.44,3.26,1.43,5.45l-1.67,.4c.15-2.01-.26-3.85-1.19-5.39l1.43-.46Z"/></g></g></svg>