<?xml version="1.0" encoding="utf-8"?>
<!-- Generator: Adobe Illustrator 26.5.3, SVG Export Plug-In . SVG Version: 6.00 Build 0)  -->
<svg version="1.1" id="_レイヤー_1" xmlns="http://www.w3.org/2000/svg" xmlns:xlink="http://www.w3.org/1999/xlink" x="0px"
	 y="0px" viewBox="0 0 74.5 69.5" style="enable-background:new 0 0 74.5 69.5;" xml:space="preserve">
<style type="text/css">
	.st0{fill:#FFFFFF;stroke:#000000;stroke-width:3.1244;stroke-linecap:round;stroke-linejoin:round;}
	.st1{fill:#FFFFFF;stroke:#000000;stroke-width:3.6678;stroke-linecap:round;stroke-linejoin:round;}
	.st2{fill:none;stroke:#000000;stroke-width:3.7697;stroke-linecap:round;stroke-linejoin:round;}
</style>
<path class="st0" d="M71.2,28.2c0-10-7.9-18.4-17.6-18.3c-1.4,0-2.6,0.2-3.9,0.5c-3.2-4.4-7.9-7.1-13-7.1s-9.7,2.7-12.9,7
	C23.1,10,22.1,10,21.2,10c-9.7,0-17.6,8.2-17.5,18.4c0,7.8,4.9,14.6,11.5,17.2l0,21.1l43.3,0l0-20.9C65.8,43.5,71.2,36.5,71.2,28.2
	L71.2,28.2z"/>
<path class="st1" d="M26.7,44.7c-4.1-4.1-6.8-10-6.8-16.7"/>
<path class="st1" d="M55.1,28.2c0,6.6-2.6,12.6-6.8,16.7"/>
<line class="st2" x1="22.4" y1="46.4" x2="53.1" y2="46.4"/>
</svg>
