<?xml version="1.0" encoding="UTF-8"?><svg id="_レイヤー_1" xmlns="http://www.w3.org/2000/svg" viewBox="0 0 200 200"><defs><style>.cls-1{fill:none;stroke-width:4.9px;}.cls-1,.cls-2,.cls-3{stroke-linejoin:round;}.cls-1,.cls-2,.cls-3,.cls-4{stroke-linecap:round;}.cls-1,.cls-2,.cls-3,.cls-4,.cls-5,.cls-6{stroke:#000;}.cls-2{stroke-width:4.06px;}.cls-2,.cls-3,.cls-4,.cls-5,.cls-6{fill:#fff;}.cls-3{stroke-width:4.77px;}.cls-4{stroke-width:3.25px;}.cls-4,.cls-5,.cls-6{stroke-miterlimit:10;}.cls-5{stroke-width:3.91px;}.cls-6{stroke-width:3.6px;}</style></defs><g><path class="cls-5" d="M170.2,135.21c-.44-33.34-32.45-60.05-71.09-59.61-38.86,.66-69.98,28.26-69.54,61.59,0,1.55,.22,2.87,.22,4.42h5.52l129.37-1.99h5.3c0-1.55,.22-2.87,.22-4.42h0Z"/><path class="cls-6" d="M100.88,192.39c34.22-.44,61.82-23.62,64.02-52.98l-129.59,1.99c3.09,29.14,31.35,51.44,65.57,51Z"/><path class="cls-6" d="M35.31,141.39s.22,.22,0,0l129.37-1.99h0c.22,0-129.37,1.99-129.37,1.99Z"/></g><g><ellipse cx="72.63" cy="120.2" rx="3.75" ry="9.05" transform="translate(-1.77 1.09) rotate(-.85)"/><path d="M72.62,112.91c.66,0,2.43,2.65,2.43,7.29s-1.55,7.29-2.21,7.29-2.43-2.65-2.43-7.29,1.32-7.29,2.21-7.29m-.22-3.53c-2.87,0-5.08,4.86-5.08,10.82s2.43,10.82,5.3,10.82,5.08-4.86,5.08-10.82-2.43-10.82-5.3-10.82h0Z"/></g><path class="cls-2" d="M141.73,39.62c-.22-13.03-10.6-23.84-23.18-23.62-1.77,0-3.31,.22-5.08,.66-4.19-5.74-10.38-9.05-17-9.05s-12.58,3.75-16.56,9.27c-1.1-.22-2.43-.22-3.53-.22-12.58,.22-22.74,11.04-22.52,24.28,.22,10.16,6.62,18.99,15.23,22.08l.44,27.38,56.3-.88-.44-27.15c9.71-2.87,16.56-11.92,16.34-22.74h0Z"/><path class="cls-3" d="M84.1,61.91c-5.52-5.3-9.05-12.8-9.05-21.64"/><path class="cls-3" d="M120.75,39.84c.22,8.61-3.09,16.34-8.39,21.86"/><line class="cls-1" x1="78.59" y1="64.12" x2="118.54" y2="63.46"/><path class="cls-4" d="M172.85,153.31h-2.43c-3.31,0-5.74-3.09-5.96-7.06l-.44-37.75c0-3.97,2.43-7.06,5.74-7.06h2.43c3.31,0,5.74,3.09,5.96,7.06l.44,37.75c0,3.75-2.65,7.06-5.74,7.06Z"/><path class="cls-4" d="M30.24,155.52h-2.43c-3.31,0-5.74-3.09-5.96-7.06l-.44-37.75c0-3.97,2.43-7.06,5.74-7.06l2.43-.22c3.31,0,5.74,3.09,5.96,7.06l.44,37.75c.22,3.75-2.43,7.29-5.74,7.29Z"/><g><ellipse cx="126.05" cy="118.87" rx="3.75" ry="9.05" transform="translate(-1.74 1.87) rotate(-.85)"/><path d="M125.83,111.59c.66,0,2.43,2.65,2.43,7.29s-1.55,7.29-2.21,7.29-2.43-2.65-2.43-7.29,1.55-7.29,2.21-7.29m0-3.53c-2.87,0-5.08,4.86-5.08,10.82s2.43,10.82,5.3,10.82,5.08-4.86,5.08-10.82-2.43-10.82-5.3-10.82h0Z"/></g></svg>